<svg width="22" height="19" viewBox="0 0 22 19" fill="none" xmlns="http://www.w3.org/2000/svg">
<path d="M20.625 8.14383H4.3175L9.30875 2.22721C9.54214 1.95009 9.65443 1.59281 9.6209 1.23398C9.58738 0.875146 9.4108 0.544153 9.13 0.313814C8.8492 0.0834754 8.48719 -0.0273416 8.1236 0.00574224C7.76002 0.038826 7.42464 0.213101 7.19125 0.490227L0.31625 8.63235C0.269996 8.69712 0.228634 8.76515 0.1925 8.83591C0.1925 8.90376 0.1925 8.94447 0.0962502 9.01232C0.0339263 9.16791 0.00129404 9.33354 0 9.50085C0.00129404 9.66815 0.0339263 9.83378 0.0962502 9.98938C0.0962502 10.0572 0.0962498 10.0979 0.1925 10.1658C0.228634 10.2365 0.269996 10.3046 0.31625 10.3693L7.19125 18.5115C7.32053 18.6647 7.48242 18.7878 7.66541 18.8723C7.8484 18.9567 8.048 19.0003 8.25 19C8.57127 19.0006 8.88262 18.8902 9.13 18.6879C9.26923 18.574 9.38432 18.4341 9.46868 18.2762C9.55304 18.1183 9.60501 17.9455 9.62161 17.7678C9.63822 17.59 9.61913 17.4108 9.56544 17.2404C9.51176 17.0699 9.42453 16.9116 9.30875 16.7745L4.3175 10.8579H20.625C20.9897 10.8579 21.3394 10.7149 21.5973 10.4604C21.8551 10.2059 22 9.86075 22 9.50085C22 9.14094 21.8551 8.79578 21.5973 8.54129C21.3394 8.2868 20.9897 8.14383 20.625 8.14383Z" fill="#F96E11"/>
</svg>
