<svg width="390" height="70" viewBox="0 0 390 70" fill="none" xmlns="http://www.w3.org/2000/svg">
<rect width="390" height="70" fill="#FFEEE6"/>
<path d="M46.625 34.1438H30.3175L35.3088 28.2272C35.5421 27.9501 35.6544 27.5928 35.6209 27.234C35.5874 26.8751 35.4108 26.5442 35.13 26.3138C34.8492 26.0835 34.4872 25.9727 34.1236 26.0057C33.76 26.0388 33.4246 26.2131 33.1912 26.4902L26.3163 34.6324C26.27 34.6971 26.2286 34.7652 26.1925 34.8359C26.1925 34.9038 26.1925 34.9445 26.0963 35.0123C26.0339 35.1679 26.0013 35.3335 26 35.5008C26.0013 35.6682 26.0339 35.8338 26.0963 35.9894C26.0963 36.0572 26.0962 36.0979 26.1925 36.1658C26.2286 36.2365 26.27 36.3046 26.3163 36.3693L33.1912 44.5115C33.3205 44.6647 33.4824 44.7878 33.6654 44.8723C33.8484 44.9567 34.048 45.0003 34.25 45C34.5713 45.0006 34.8826 44.8902 35.13 44.6879C35.2692 44.574 35.3843 44.4341 35.4687 44.2762C35.553 44.1183 35.605 43.9455 35.6216 43.7678C35.6382 43.59 35.6191 43.4108 35.5654 43.2404C35.5118 43.0699 35.4245 42.9116 35.3088 42.7745L30.3175 36.8579H46.625C46.9897 36.8579 47.3394 36.7149 47.5973 36.4604C47.8551 36.2059 48 35.8608 48 35.5008C48 35.1409 47.8551 34.7958 47.5973 34.5413C47.3394 34.2868 46.9897 34.1438 46.625 34.1438Z" fill="#F96E11"/>
<path d="M141.512 44.288C140.168 44.288 138.88 44.112 137.648 43.76C136.416 43.392 135.424 42.92 134.672 42.344L135.992 39.416C136.712 39.928 137.56 40.352 138.536 40.688C139.528 41.008 140.528 41.168 141.536 41.168C142.304 41.168 142.92 41.096 143.384 40.952C143.864 40.792 144.216 40.576 144.44 40.304C144.664 40.032 144.776 39.72 144.776 39.368C144.776 38.92 144.6 38.568 144.248 38.312C143.896 38.04 143.432 37.824 142.856 37.664C142.28 37.488 141.64 37.328 140.936 37.184C140.248 37.024 139.552 36.832 138.848 36.608C138.16 36.384 137.528 36.096 136.952 35.744C136.376 35.392 135.904 34.928 135.536 34.352C135.184 33.776 135.008 33.04 135.008 32.144C135.008 31.184 135.264 30.312 135.776 29.528C136.304 28.728 137.088 28.096 138.128 27.632C139.184 27.152 140.504 26.912 142.088 26.912C143.144 26.912 144.184 27.04 145.208 27.296C146.232 27.536 147.136 27.904 147.92 28.4L146.72 31.352C145.936 30.904 145.152 30.576 144.368 30.368C143.584 30.144 142.816 30.032 142.064 30.032C141.312 30.032 140.696 30.12 140.216 30.296C139.736 30.472 139.392 30.704 139.184 30.992C138.976 31.264 138.872 31.584 138.872 31.952C138.872 32.384 139.048 32.736 139.4 33.008C139.752 33.264 140.216 33.472 140.792 33.632C141.368 33.792 142 33.952 142.688 34.112C143.392 34.272 144.088 34.456 144.776 34.664C145.48 34.872 146.12 35.152 146.696 35.504C147.272 35.856 147.736 36.32 148.088 36.896C148.456 37.472 148.64 38.2 148.64 39.08C148.64 40.024 148.376 40.888 147.848 41.672C147.32 42.456 146.528 43.088 145.472 43.568C144.432 44.048 143.112 44.288 141.512 44.288ZM156.773 44.192C155.381 44.192 154.141 43.912 153.053 43.352C151.965 42.776 151.109 41.984 150.485 40.976C149.877 39.968 149.573 38.824 149.573 37.544C149.573 36.248 149.877 35.104 150.485 34.112C151.109 33.104 151.965 32.32 153.053 31.76C154.141 31.184 155.381 30.896 156.773 30.896C158.133 30.896 159.317 31.184 160.325 31.76C161.333 32.32 162.077 33.128 162.557 34.184L159.653 35.744C159.317 35.136 158.893 34.688 158.381 34.4C157.885 34.112 157.341 33.968 156.749 33.968C156.109 33.968 155.533 34.112 155.021 34.4C154.509 34.688 154.101 35.096 153.797 35.624C153.509 36.152 153.365 36.792 153.365 37.544C153.365 38.296 153.509 38.936 153.797 39.464C154.101 39.992 154.509 40.4 155.021 40.688C155.533 40.976 156.109 41.12 156.749 41.12C157.341 41.12 157.885 40.984 158.381 40.712C158.893 40.424 159.317 39.968 159.653 39.344L162.557 40.928C162.077 41.968 161.333 42.776 160.325 43.352C159.317 43.912 158.133 44.192 156.773 44.192ZM172.132 44V41.48L171.892 40.928V36.416C171.892 35.616 171.644 34.992 171.148 34.544C170.668 34.096 169.924 33.872 168.916 33.872C168.228 33.872 167.548 33.984 166.876 34.208C166.22 34.416 165.66 34.704 165.196 35.072L163.852 32.456C164.556 31.96 165.404 31.576 166.396 31.304C167.388 31.032 168.396 30.896 169.42 30.896C171.388 30.896 172.916 31.36 174.004 32.288C175.092 33.216 175.636 34.664 175.636 36.632V44H172.132ZM168.196 44.192C167.188 44.192 166.324 44.024 165.604 43.688C164.884 43.336 164.332 42.864 163.948 42.272C163.564 41.68 163.372 41.016 163.372 40.28C163.372 39.512 163.556 38.84 163.924 38.264C164.308 37.688 164.908 37.24 165.724 36.92C166.54 36.584 167.604 36.416 168.916 36.416H172.348V38.6H169.324C168.444 38.6 167.836 38.744 167.5 39.032C167.18 39.32 167.02 39.68 167.02 40.112C167.02 40.592 167.204 40.976 167.572 41.264C167.956 41.536 168.476 41.672 169.132 41.672C169.756 41.672 170.316 41.528 170.812 41.24C171.308 40.936 171.668 40.496 171.892 39.92L172.468 41.648C172.196 42.48 171.7 43.112 170.98 43.544C170.26 43.976 169.332 44.192 168.196 44.192ZM186.373 30.896C187.397 30.896 188.309 31.104 189.109 31.52C189.925 31.92 190.565 32.544 191.029 33.392C191.493 34.224 191.725 35.296 191.725 36.608V44H187.981V37.184C187.981 36.144 187.749 35.376 187.285 34.88C186.837 34.384 186.197 34.136 185.365 34.136C184.773 34.136 184.237 34.264 183.757 34.52C183.293 34.76 182.925 35.136 182.653 35.648C182.397 36.16 182.269 36.816 182.269 37.616V44H178.525V31.088H182.101V34.664L181.429 33.584C181.893 32.72 182.557 32.056 183.421 31.592C184.285 31.128 185.269 30.896 186.373 30.896ZM209.22 44.288C207.924 44.288 206.716 44.08 205.596 43.664C204.492 43.232 203.532 42.624 202.715 41.84C201.9 41.056 201.26 40.136 200.796 39.08C200.348 38.024 200.124 36.864 200.124 35.6C200.124 34.336 200.348 33.176 200.796 32.12C201.26 31.064 201.9 30.144 202.715 29.36C203.548 28.576 204.516 27.976 205.62 27.56C206.724 27.128 207.932 26.912 209.244 26.912C210.7 26.912 212.012 27.168 213.18 27.68C214.364 28.176 215.356 28.912 216.156 29.888L213.66 32.192C213.084 31.536 212.444 31.048 211.74 30.728C211.036 30.392 210.268 30.224 209.436 30.224C208.652 30.224 207.932 30.352 207.276 30.608C206.62 30.864 206.052 31.232 205.572 31.712C205.092 32.192 204.716 32.76 204.444 33.416C204.188 34.072 204.06 34.8 204.06 35.6C204.06 36.4 204.188 37.128 204.444 37.784C204.716 38.44 205.092 39.008 205.572 39.488C206.052 39.968 206.62 40.336 207.276 40.592C207.932 40.848 208.652 40.976 209.436 40.976C210.268 40.976 211.036 40.816 211.74 40.496C212.444 40.16 213.084 39.656 213.66 38.984L216.156 41.288C215.356 42.264 214.364 43.008 213.18 43.52C212.012 44.032 210.692 44.288 209.22 44.288ZM225.867 44V41.48L225.627 40.928V36.416C225.627 35.616 225.379 34.992 224.883 34.544C224.403 34.096 223.659 33.872 222.651 33.872C221.963 33.872 221.283 33.984 220.611 34.208C219.955 34.416 219.395 34.704 218.931 35.072L217.587 32.456C218.291 31.96 219.139 31.576 220.131 31.304C221.123 31.032 222.131 30.896 223.155 30.896C225.123 30.896 226.651 31.36 227.739 32.288C228.827 33.216 229.371 34.664 229.371 36.632V44H225.867ZM221.931 44.192C220.923 44.192 220.059 44.024 219.339 43.688C218.619 43.336 218.067 42.864 217.683 42.272C217.299 41.68 217.107 41.016 217.107 40.28C217.107 39.512 217.291 38.84 217.659 38.264C218.043 37.688 218.643 37.24 219.459 36.92C220.275 36.584 221.339 36.416 222.651 36.416H226.083V38.6H223.059C222.179 38.6 221.571 38.744 221.235 39.032C220.915 39.32 220.755 39.68 220.755 40.112C220.755 40.592 220.939 40.976 221.307 41.264C221.691 41.536 222.211 41.672 222.867 41.672C223.491 41.672 224.051 41.528 224.547 41.24C225.043 40.936 225.403 40.496 225.627 39.92L226.203 41.648C225.931 42.48 225.435 43.112 224.715 43.544C223.995 43.976 223.067 44.192 221.931 44.192ZM232.259 44V31.088H235.835V34.736L235.331 33.68C235.715 32.768 236.331 32.08 237.179 31.616C238.027 31.136 239.059 30.896 240.275 30.896V34.352C240.115 34.336 239.971 34.328 239.843 34.328C239.715 34.312 239.579 34.304 239.435 34.304C238.411 34.304 237.579 34.6 236.939 35.192C236.315 35.768 236.003 36.672 236.003 37.904V44H232.259ZM247.452 44.192C246.236 44.192 245.14 43.92 244.164 43.376C243.188 42.816 242.412 42.04 241.836 41.048C241.276 40.056 240.996 38.888 240.996 37.544C240.996 36.184 241.276 35.008 241.836 34.016C242.412 33.024 243.188 32.256 244.164 31.712C245.14 31.168 246.236 30.896 247.452 30.896C248.54 30.896 249.492 31.136 250.308 31.616C251.124 32.096 251.756 32.824 252.204 33.8C252.652 34.776 252.876 36.024 252.876 37.544C252.876 39.048 252.66 40.296 252.228 41.288C251.796 42.264 251.172 42.992 250.356 43.472C249.556 43.952 248.588 44.192 247.452 44.192ZM248.1 41.12C248.708 41.12 249.26 40.976 249.756 40.688C250.252 40.4 250.644 39.992 250.932 39.464C251.236 38.92 251.388 38.28 251.388 37.544C251.388 36.792 251.236 36.152 250.932 35.624C250.644 35.096 250.252 34.688 249.756 34.4C249.26 34.112 248.708 33.968 248.1 33.968C247.476 33.968 246.916 34.112 246.42 34.4C245.924 34.688 245.524 35.096 245.22 35.624C244.932 36.152 244.788 36.792 244.788 37.544C244.788 38.28 244.932 38.92 245.22 39.464C245.524 39.992 245.924 40.4 246.42 40.688C246.916 40.976 247.476 41.12 248.1 41.12ZM251.484 44V41.36L251.556 37.52L251.316 33.704V26.192H255.06V44H251.484Z" fill="#F96E11"/>
</svg>
