<svg width="367" height="189" viewBox="0 0 367 189" fill="none" xmlns="http://www.w3.org/2000/svg">
<rect width="367" height="188.056" rx="8" fill="#FFEEE6"/>
<rect opacity="0.4" y="158.441" width="367" height="14.8076" rx="3" fill="#FFC21D"/>
<rect opacity="0.4" y="173.249" width="367" height="14.8076" rx="3" fill="#F96E11"/>
<path d="M86.1 121V107H87.74L97 118.5H96.14V107H98.14V121H96.5L87.24 109.5H88.1V121H86.1ZM104.13 113.62H111.35V115.34H104.13V113.62ZM104.33 121H102.33V107H112.21V108.74H104.33V121ZM121.13 121.16C120.063 121.16 119.076 120.987 118.17 120.64C117.276 120.28 116.496 119.78 115.83 119.14C115.176 118.487 114.663 117.727 114.29 116.86C113.916 115.993 113.73 115.04 113.73 114C113.73 112.96 113.916 112.007 114.29 111.14C114.663 110.273 115.183 109.52 115.85 108.88C116.516 108.227 117.296 107.727 118.19 107.38C119.096 107.02 120.083 106.84 121.15 106.84C122.23 106.84 123.223 107.027 124.13 107.4C125.05 107.76 125.83 108.3 126.47 109.02L125.17 110.28C124.636 109.72 124.036 109.307 123.37 109.04C122.703 108.76 121.99 108.62 121.23 108.62C120.443 108.62 119.71 108.753 119.03 109.02C118.363 109.287 117.783 109.66 117.29 110.14C116.796 110.62 116.41 111.193 116.13 111.86C115.863 112.513 115.73 113.227 115.73 114C115.73 114.773 115.863 115.493 116.13 116.16C116.41 116.813 116.796 117.38 117.29 117.86C117.783 118.34 118.363 118.713 119.03 118.98C119.71 119.247 120.443 119.38 121.23 119.38C121.99 119.38 122.703 119.247 123.37 118.98C124.036 118.7 124.636 118.273 125.17 117.7L126.47 118.96C125.83 119.68 125.05 120.227 124.13 120.6C123.223 120.973 122.223 121.16 121.13 121.16ZM140.074 110.3C140.94 110.3 141.7 110.467 142.354 110.8C143.02 111.133 143.54 111.64 143.914 112.32C144.287 113 144.474 113.86 144.474 114.9V121H142.554V115.12C142.554 114.093 142.3 113.32 141.794 112.8C141.3 112.28 140.6 112.02 139.694 112.02C139.014 112.02 138.42 112.153 137.914 112.42C137.407 112.687 137.014 113.08 136.734 113.6C136.467 114.12 136.334 114.767 136.334 115.54V121H134.414V110.4H136.254V113.26L135.954 112.5C136.3 111.807 136.834 111.267 137.554 110.88C138.274 110.493 139.114 110.3 140.074 110.3ZM152.567 121.12C151.5 121.12 150.554 120.887 149.727 120.42C148.9 119.953 148.247 119.313 147.767 118.5C147.287 117.673 147.047 116.74 147.047 115.7C147.047 114.647 147.287 113.713 147.767 112.9C148.247 112.087 148.9 111.453 149.727 111C150.554 110.533 151.5 110.3 152.567 110.3C153.62 110.3 154.56 110.533 155.387 111C156.227 111.453 156.88 112.087 157.347 112.9C157.827 113.7 158.067 114.633 158.067 115.7C158.067 116.753 157.827 117.687 157.347 118.5C156.88 119.313 156.227 119.953 155.387 120.42C154.56 120.887 153.62 121.12 152.567 121.12ZM152.567 119.44C153.247 119.44 153.854 119.287 154.387 118.98C154.934 118.673 155.36 118.24 155.667 117.68C155.974 117.107 156.127 116.447 156.127 115.7C156.127 114.94 155.974 114.287 155.667 113.74C155.36 113.18 154.934 112.747 154.387 112.44C153.854 112.133 153.247 111.98 152.567 111.98C151.887 111.98 151.28 112.133 150.747 112.44C150.214 112.747 149.787 113.18 149.467 113.74C149.147 114.287 148.987 114.94 148.987 115.7C148.987 116.447 149.147 117.107 149.467 117.68C149.787 118.24 150.214 118.673 150.747 118.98C151.28 119.287 151.887 119.44 152.567 119.44ZM164.362 121.12C163.296 121.12 162.469 120.833 161.882 120.26C161.296 119.687 161.002 118.867 161.002 117.8V108.08H162.922V117.72C162.922 118.293 163.062 118.733 163.342 119.04C163.636 119.347 164.049 119.5 164.582 119.5C165.182 119.5 165.682 119.333 166.082 119L166.682 120.38C166.389 120.633 166.036 120.82 165.622 120.94C165.222 121.06 164.802 121.12 164.362 121.12ZM159.202 111.98V110.4H165.962V111.98H159.202ZM177.415 121.12C176.535 121.12 175.695 121 174.895 120.76C174.108 120.52 173.488 120.227 173.035 119.88L173.835 118.36C174.288 118.667 174.848 118.927 175.515 119.14C176.181 119.353 176.861 119.46 177.555 119.46C178.448 119.46 179.088 119.333 179.475 119.08C179.875 118.827 180.075 118.473 180.075 118.02C180.075 117.687 179.955 117.427 179.715 117.24C179.475 117.053 179.155 116.913 178.755 116.82C178.368 116.727 177.935 116.647 177.455 116.58C176.975 116.5 176.495 116.407 176.015 116.3C175.535 116.18 175.095 116.02 174.695 115.82C174.295 115.607 173.975 115.32 173.735 114.96C173.495 114.587 173.375 114.093 173.375 113.48C173.375 112.84 173.555 112.28 173.915 111.8C174.275 111.32 174.781 110.953 175.435 110.7C176.101 110.433 176.888 110.3 177.795 110.3C178.488 110.3 179.188 110.387 179.895 110.56C180.615 110.72 181.201 110.953 181.655 111.26L180.835 112.78C180.355 112.46 179.855 112.24 179.335 112.12C178.815 112 178.295 111.94 177.775 111.94C176.935 111.94 176.308 112.08 175.895 112.36C175.481 112.627 175.275 112.973 175.275 113.4C175.275 113.76 175.395 114.04 175.635 114.24C175.888 114.427 176.208 114.573 176.595 114.68C176.995 114.787 177.435 114.88 177.915 114.96C178.395 115.027 178.875 115.12 179.355 115.24C179.835 115.347 180.268 115.5 180.655 115.7C181.055 115.9 181.375 116.18 181.615 116.54C181.868 116.9 181.995 117.38 181.995 117.98C181.995 118.62 181.808 119.173 181.435 119.64C181.061 120.107 180.535 120.473 179.855 120.74C179.175 120.993 178.361 121.12 177.415 121.12ZM188.854 121.12C187.948 121.12 187.148 120.953 186.454 120.62C185.774 120.287 185.241 119.78 184.854 119.1C184.481 118.407 184.294 117.54 184.294 116.5V110.4H186.214V116.28C186.214 117.32 186.461 118.1 186.954 118.62C187.461 119.14 188.168 119.4 189.074 119.4C189.741 119.4 190.321 119.267 190.814 119C191.308 118.72 191.688 118.32 191.954 117.8C192.221 117.267 192.354 116.627 192.354 115.88V110.4H194.274V121H192.454V118.14L192.754 118.9C192.408 119.607 191.888 120.153 191.194 120.54C190.501 120.927 189.721 121.12 188.854 121.12ZM203.549 121.12C202.669 121.12 201.863 120.92 201.129 120.52C200.409 120.107 199.829 119.5 199.389 118.7C198.963 117.9 198.749 116.9 198.749 115.7C198.749 114.5 198.956 113.5 199.369 112.7C199.796 111.9 200.369 111.3 201.089 110.9C201.823 110.5 202.643 110.3 203.549 110.3C204.589 110.3 205.509 110.527 206.309 110.98C207.109 111.433 207.743 112.067 208.209 112.88C208.676 113.68 208.909 114.62 208.909 115.7C208.909 116.78 208.676 117.727 208.209 118.54C207.743 119.353 207.109 119.987 206.309 120.44C205.509 120.893 204.589 121.12 203.549 121.12ZM197.929 124.88V110.4H199.769V113.26L199.649 115.72L199.849 118.18V124.88H197.929ZM203.389 119.44C204.069 119.44 204.676 119.287 205.209 118.98C205.756 118.673 206.183 118.24 206.489 117.68C206.809 117.107 206.969 116.447 206.969 115.7C206.969 114.94 206.809 114.287 206.489 113.74C206.183 113.18 205.756 112.747 205.209 112.44C204.676 112.133 204.069 111.98 203.389 111.98C202.723 111.98 202.116 112.133 201.569 112.44C201.036 112.747 200.609 113.18 200.289 113.74C199.983 114.287 199.829 114.94 199.829 115.7C199.829 116.447 199.983 117.107 200.289 117.68C200.609 118.24 201.036 118.673 201.569 118.98C202.116 119.287 202.723 119.44 203.389 119.44ZM217.182 121.12C216.302 121.12 215.496 120.92 214.762 120.52C214.042 120.107 213.462 119.5 213.022 118.7C212.596 117.9 212.382 116.9 212.382 115.7C212.382 114.5 212.589 113.5 213.002 112.7C213.429 111.9 214.002 111.3 214.722 110.9C215.456 110.5 216.276 110.3 217.182 110.3C218.222 110.3 219.142 110.527 219.942 110.98C220.742 111.433 221.376 112.067 221.842 112.88C222.309 113.68 222.542 114.62 222.542 115.7C222.542 116.78 222.309 117.727 221.842 118.54C221.376 119.353 220.742 119.987 219.942 120.44C219.142 120.893 218.222 121.12 217.182 121.12ZM211.562 124.88V110.4H213.402V113.26L213.282 115.72L213.482 118.18V124.88H211.562ZM217.022 119.44C217.702 119.44 218.309 119.287 218.842 118.98C219.389 118.673 219.816 118.24 220.122 117.68C220.442 117.107 220.602 116.447 220.602 115.7C220.602 114.94 220.442 114.287 220.122 113.74C219.816 113.18 219.389 112.747 218.842 112.44C218.309 112.133 217.702 111.98 217.022 111.98C216.356 111.98 215.749 112.133 215.202 112.44C214.669 112.747 214.242 113.18 213.922 113.74C213.616 114.287 213.462 114.94 213.462 115.7C213.462 116.447 213.616 117.107 213.922 117.68C214.242 118.24 214.669 118.673 215.202 118.98C215.749 119.287 216.356 119.44 217.022 119.44ZM229.735 121.12C228.668 121.12 227.722 120.887 226.895 120.42C226.068 119.953 225.415 119.313 224.935 118.5C224.455 117.673 224.215 116.74 224.215 115.7C224.215 114.647 224.455 113.713 224.935 112.9C225.415 112.087 226.068 111.453 226.895 111C227.722 110.533 228.668 110.3 229.735 110.3C230.788 110.3 231.728 110.533 232.555 111C233.395 111.453 234.048 112.087 234.515 112.9C234.995 113.7 235.235 114.633 235.235 115.7C235.235 116.753 234.995 117.687 234.515 118.5C234.048 119.313 233.395 119.953 232.555 120.42C231.728 120.887 230.788 121.12 229.735 121.12ZM229.735 119.44C230.415 119.44 231.022 119.287 231.555 118.98C232.102 118.673 232.528 118.24 232.835 117.68C233.142 117.107 233.295 116.447 233.295 115.7C233.295 114.94 233.142 114.287 232.835 113.74C232.528 113.18 232.102 112.747 231.555 112.44C231.022 112.133 230.415 111.98 229.735 111.98C229.055 111.98 228.448 112.133 227.915 112.44C227.382 112.747 226.955 113.18 226.635 113.74C226.315 114.287 226.155 114.94 226.155 115.7C226.155 116.447 226.315 117.107 226.635 117.68C226.955 118.24 227.382 118.673 227.915 118.98C228.448 119.287 229.055 119.44 229.735 119.44ZM237.89 121V110.4H239.73V113.28L239.55 112.56C239.844 111.827 240.337 111.267 241.03 110.88C241.724 110.493 242.577 110.3 243.59 110.3V112.16C243.51 112.147 243.43 112.14 243.35 112.14C243.284 112.14 243.217 112.14 243.15 112.14C242.124 112.14 241.31 112.447 240.71 113.06C240.11 113.673 239.81 114.56 239.81 115.72V121H237.89ZM250.026 121.12C248.96 121.12 248.133 120.833 247.546 120.26C246.96 119.687 246.666 118.867 246.666 117.8V108.08H248.586V117.72C248.586 118.293 248.726 118.733 249.006 119.04C249.3 119.347 249.713 119.5 250.246 119.5C250.846 119.5 251.346 119.333 251.746 119L252.346 120.38C252.053 120.633 251.7 120.82 251.286 120.94C250.886 121.06 250.466 121.12 250.026 121.12ZM244.866 111.98V110.4H251.626V111.98H244.866ZM259.036 121.12C257.903 121.12 256.903 120.887 256.036 120.42C255.183 119.953 254.516 119.313 254.036 118.5C253.569 117.687 253.336 116.753 253.336 115.7C253.336 114.647 253.563 113.713 254.016 112.9C254.483 112.087 255.116 111.453 255.916 111C256.729 110.533 257.643 110.3 258.656 110.3C259.683 110.3 260.589 110.527 261.376 110.98C262.163 111.433 262.776 112.073 263.216 112.9C263.669 113.713 263.896 114.667 263.896 115.76C263.896 115.84 263.889 115.933 263.876 116.04C263.876 116.147 263.869 116.247 263.856 116.34H254.836V114.96H262.856L262.076 115.44C262.089 114.76 261.949 114.153 261.656 113.62C261.363 113.087 260.956 112.673 260.436 112.38C259.929 112.073 259.336 111.92 258.656 111.92C257.989 111.92 257.396 112.073 256.876 112.38C256.356 112.673 255.949 113.093 255.656 113.64C255.363 114.173 255.216 114.787 255.216 115.48V115.8C255.216 116.507 255.376 117.14 255.696 117.7C256.029 118.247 256.489 118.673 257.076 118.98C257.663 119.287 258.336 119.44 259.096 119.44C259.723 119.44 260.289 119.333 260.796 119.12C261.316 118.907 261.769 118.587 262.156 118.16L263.216 119.4C262.736 119.96 262.136 120.387 261.416 120.68C260.709 120.973 259.916 121.12 259.036 121.12ZM270.942 121.12C269.916 121.12 268.996 120.893 268.182 120.44C267.382 119.987 266.749 119.353 266.282 118.54C265.816 117.727 265.582 116.78 265.582 115.7C265.582 114.62 265.816 113.68 266.282 112.88C266.749 112.067 267.382 111.433 268.182 110.98C268.996 110.527 269.916 110.3 270.942 110.3C271.836 110.3 272.642 110.5 273.362 110.9C274.082 111.3 274.656 111.9 275.082 112.7C275.522 113.5 275.742 114.5 275.742 115.7C275.742 116.9 275.529 117.9 275.102 118.7C274.689 119.5 274.122 120.107 273.402 120.52C272.682 120.92 271.862 121.12 270.942 121.12ZM271.102 119.44C271.769 119.44 272.369 119.287 272.902 118.98C273.449 118.673 273.876 118.24 274.182 117.68C274.502 117.107 274.662 116.447 274.662 115.7C274.662 114.94 274.502 114.287 274.182 113.74C273.876 113.18 273.449 112.747 272.902 112.44C272.369 112.133 271.769 111.98 271.102 111.98C270.422 111.98 269.816 112.133 269.282 112.44C268.749 112.747 268.322 113.18 268.002 113.74C267.682 114.287 267.522 114.94 267.522 115.7C267.522 116.447 267.682 117.107 268.002 117.68C268.322 118.24 268.749 118.673 269.282 118.98C269.816 119.287 270.422 119.44 271.102 119.44ZM274.722 121V118.14L274.842 115.68L274.642 113.22V106.16H276.562V121H274.722Z" fill="#F96E11"/>
</svg>
