<svg width="122" height="19" viewBox="0 0 122 19" fill="none" xmlns="http://www.w3.org/2000/svg">
<path d="M7.512 18.288C6.168 18.288 4.88 18.112 3.648 17.76C2.416 17.392 1.424 16.92 0.672 16.344L1.992 13.416C2.712 13.928 3.56 14.352 4.536 14.688C5.528 15.008 6.528 15.168 7.536 15.168C8.304 15.168 8.92 15.096 9.384 14.952C9.864 14.792 10.216 14.576 10.44 14.304C10.664 14.032 10.776 13.72 10.776 13.368C10.776 12.92 10.6 12.568 10.248 12.312C9.896 12.04 9.432 11.824 8.856 11.664C8.28 11.488 7.64 11.328 6.936 11.184C6.248 11.024 5.552 10.832 4.848 10.608C4.16 10.384 3.528 10.096 2.952 9.744C2.376 9.392 1.904 8.928 1.536 8.352C1.184 7.776 1.008 7.04 1.008 6.144C1.008 5.184 1.264 4.312 1.776 3.528C2.304 2.728 3.088 2.096 4.128 1.632C5.184 1.152 6.504 0.912 8.088 0.912C9.144 0.912 10.184 1.04 11.208 1.296C12.232 1.536 13.136 1.904 13.92 2.4L12.72 5.352C11.936 4.904 11.152 4.576 10.368 4.368C9.584 4.144 8.816 4.032 8.064 4.032C7.312 4.032 6.696 4.12 6.216 4.296C5.736 4.472 5.392 4.704 5.184 4.992C4.976 5.264 4.872 5.584 4.872 5.952C4.872 6.384 5.048 6.736 5.4 7.008C5.752 7.264 6.216 7.472 6.792 7.632C7.368 7.792 8 7.952 8.688 8.112C9.392 8.272 10.088 8.456 10.776 8.664C11.48 8.872 12.12 9.152 12.696 9.504C13.272 9.856 13.736 10.32 14.088 10.896C14.456 11.472 14.64 12.2 14.64 13.08C14.64 14.024 14.376 14.888 13.848 15.672C13.32 16.456 12.528 17.088 11.472 17.568C10.432 18.048 9.112 18.288 7.512 18.288ZM22.7727 18.192C21.3807 18.192 20.1407 17.912 19.0527 17.352C17.9647 16.776 17.1087 15.984 16.4847 14.976C15.8767 13.968 15.5727 12.824 15.5727 11.544C15.5727 10.248 15.8767 9.104 16.4847 8.112C17.1087 7.104 17.9647 6.32 19.0527 5.76C20.1407 5.184 21.3807 4.896 22.7727 4.896C24.1327 4.896 25.3167 5.184 26.3247 5.76C27.3327 6.32 28.0767 7.128 28.5567 8.184L25.6527 9.744C25.3167 9.136 24.8927 8.688 24.3807 8.4C23.8847 8.112 23.3407 7.968 22.7487 7.968C22.1087 7.968 21.5327 8.112 21.0207 8.4C20.5087 8.688 20.1007 9.096 19.7967 9.624C19.5087 10.152 19.3647 10.792 19.3647 11.544C19.3647 12.296 19.5087 12.936 19.7967 13.464C20.1007 13.992 20.5087 14.4 21.0207 14.688C21.5327 14.976 22.1087 15.12 22.7487 15.12C23.3407 15.12 23.8847 14.984 24.3807 14.712C24.8927 14.424 25.3167 13.968 25.6527 13.344L28.5567 14.928C28.0767 15.968 27.3327 16.776 26.3247 17.352C25.3167 17.912 24.1327 18.192 22.7727 18.192ZM38.1324 18V15.48L37.8924 14.928V10.416C37.8924 9.616 37.6444 8.992 37.1484 8.544C36.6684 8.096 35.9244 7.872 34.9164 7.872C34.2284 7.872 33.5484 7.984 32.8764 8.208C32.2204 8.416 31.6604 8.704 31.1964 9.072L29.8524 6.456C30.5564 5.96 31.4044 5.576 32.3964 5.304C33.3884 5.032 34.3964 4.896 35.4204 4.896C37.3884 4.896 38.9164 5.36 40.0044 6.288C41.0924 7.216 41.6364 8.664 41.6364 10.632V18H38.1324ZM34.1964 18.192C33.1884 18.192 32.3244 18.024 31.6044 17.688C30.8844 17.336 30.3324 16.864 29.9484 16.272C29.5644 15.68 29.3724 15.016 29.3724 14.28C29.3724 13.512 29.5564 12.84 29.9244 12.264C30.3084 11.688 30.9084 11.24 31.7244 10.92C32.5404 10.584 33.6044 10.416 34.9164 10.416H38.3484V12.6H35.3244C34.4444 12.6 33.8364 12.744 33.5004 13.032C33.1804 13.32 33.0204 13.68 33.0204 14.112C33.0204 14.592 33.2044 14.976 33.5724 15.264C33.9564 15.536 34.4764 15.672 35.1324 15.672C35.7564 15.672 36.3164 15.528 36.8124 15.24C37.3084 14.936 37.6684 14.496 37.8924 13.92L38.4684 15.648C38.1964 16.48 37.7004 17.112 36.9804 17.544C36.2604 17.976 35.3324 18.192 34.1964 18.192ZM52.3729 4.896C53.3969 4.896 54.3089 5.104 55.1089 5.52C55.9249 5.92 56.5649 6.544 57.0289 7.392C57.4929 8.224 57.7249 9.296 57.7249 10.608V18H53.9809V11.184C53.9809 10.144 53.7489 9.376 53.2849 8.88C52.8369 8.384 52.1969 8.136 51.3649 8.136C50.7729 8.136 50.2369 8.264 49.7569 8.52C49.2929 8.76 48.9249 9.136 48.6529 9.648C48.3969 10.16 48.2689 10.816 48.2689 11.616V18H44.5249V5.088H48.1009V8.664L47.4289 7.584C47.8929 6.72 48.5569 6.056 49.4209 5.592C50.2849 5.128 51.2689 4.896 52.3729 4.896ZM75.2195 18.288C73.9235 18.288 72.7155 18.08 71.5955 17.664C70.4915 17.232 69.5315 16.624 68.7155 15.84C67.8995 15.056 67.2595 14.136 66.7955 13.08C66.3475 12.024 66.1235 10.864 66.1235 9.6C66.1235 8.336 66.3475 7.176 66.7955 6.12C67.2595 5.064 67.8995 4.144 68.7155 3.36C69.5475 2.576 70.5155 1.976 71.6195 1.56C72.7235 1.128 73.9315 0.912 75.2435 0.912C76.6995 0.912 78.0115 1.168 79.1795 1.68C80.3635 2.176 81.3555 2.912 82.1555 3.888L79.6595 6.192C79.0835 5.536 78.4435 5.048 77.7395 4.728C77.0355 4.392 76.2675 4.224 75.4355 4.224C74.6515 4.224 73.9315 4.352 73.2755 4.608C72.6195 4.864 72.0515 5.232 71.5715 5.712C71.0915 6.192 70.7155 6.76 70.4435 7.416C70.1875 8.072 70.0595 8.8 70.0595 9.6C70.0595 10.4 70.1875 11.128 70.4435 11.784C70.7155 12.44 71.0915 13.008 71.5715 13.488C72.0515 13.968 72.6195 14.336 73.2755 14.592C73.9315 14.848 74.6515 14.976 75.4355 14.976C76.2675 14.976 77.0355 14.816 77.7395 14.496C78.4435 14.16 79.0835 13.656 79.6595 12.984L82.1555 15.288C81.3555 16.264 80.3635 17.008 79.1795 17.52C78.0115 18.032 76.6915 18.288 75.2195 18.288ZM91.8668 18V15.48L91.6268 14.928V10.416C91.6268 9.616 91.3788 8.992 90.8828 8.544C90.4028 8.096 89.6588 7.872 88.6508 7.872C87.9628 7.872 87.2828 7.984 86.6108 8.208C85.9548 8.416 85.3948 8.704 84.9308 9.072L83.5868 6.456C84.2908 5.96 85.1388 5.576 86.1308 5.304C87.1228 5.032 88.1308 4.896 89.1548 4.896C91.1228 4.896 92.6508 5.36 93.7388 6.288C94.8268 7.216 95.3708 8.664 95.3708 10.632V18H91.8668ZM87.9308 18.192C86.9228 18.192 86.0588 18.024 85.3388 17.688C84.6188 17.336 84.0668 16.864 83.6828 16.272C83.2988 15.68 83.1068 15.016 83.1068 14.28C83.1068 13.512 83.2908 12.84 83.6588 12.264C84.0428 11.688 84.6428 11.24 85.4588 10.92C86.2748 10.584 87.3388 10.416 88.6508 10.416H92.0828V12.6H89.0588C88.1788 12.6 87.5708 12.744 87.2348 13.032C86.9148 13.32 86.7548 13.68 86.7548 14.112C86.7548 14.592 86.9388 14.976 87.3068 15.264C87.6908 15.536 88.2108 15.672 88.8668 15.672C89.4908 15.672 90.0508 15.528 90.5468 15.24C91.0428 14.936 91.4028 14.496 91.6268 13.92L92.2028 15.648C91.9308 16.48 91.4348 17.112 90.7148 17.544C89.9948 17.976 89.0668 18.192 87.9308 18.192ZM98.2593 18V5.088H101.835V8.736L101.331 7.68C101.715 6.768 102.331 6.08 103.179 5.616C104.027 5.136 105.059 4.896 106.275 4.896V8.352C106.115 8.336 105.971 8.328 105.843 8.328C105.715 8.312 105.579 8.304 105.435 8.304C104.411 8.304 103.579 8.6 102.939 9.192C102.315 9.768 102.003 10.672 102.003 11.904V18H98.2593ZM113.452 18.192C112.236 18.192 111.14 17.92 110.164 17.376C109.188 16.816 108.412 16.04 107.836 15.048C107.276 14.056 106.996 12.888 106.996 11.544C106.996 10.184 107.276 9.008 107.836 8.016C108.412 7.024 109.188 6.256 110.164 5.712C111.14 5.168 112.236 4.896 113.452 4.896C114.54 4.896 115.492 5.136 116.308 5.616C117.124 6.096 117.756 6.824 118.204 7.8C118.652 8.776 118.876 10.024 118.876 11.544C118.876 13.048 118.66 14.296 118.228 15.288C117.796 16.264 117.172 16.992 116.356 17.472C115.556 17.952 114.588 18.192 113.452 18.192ZM114.1 15.12C114.708 15.12 115.26 14.976 115.756 14.688C116.252 14.4 116.644 13.992 116.932 13.464C117.236 12.92 117.388 12.28 117.388 11.544C117.388 10.792 117.236 10.152 116.932 9.624C116.644 9.096 116.252 8.688 115.756 8.4C115.26 8.112 114.708 7.968 114.1 7.968C113.476 7.968 112.916 8.112 112.42 8.4C111.924 8.688 111.524 9.096 111.22 9.624C110.932 10.152 110.788 10.792 110.788 11.544C110.788 12.28 110.932 12.92 111.22 13.464C111.524 13.992 111.924 14.4 112.42 14.688C112.916 14.976 113.476 15.12 114.1 15.12ZM117.484 18V15.36L117.556 11.52L117.316 7.704V0.191999H121.06V18H117.484Z" fill="#F96E11"/>
</svg>
