<svg width="223" height="314" viewBox="0 0 223 314" fill="none" xmlns="http://www.w3.org/2000/svg">
<g clip-path="url(#clip0_129_1038)">
<path d="M116.662 73.6156L117.359 77.3991C110.546 72.4174 101.059 70.1524 91.174 71.9425C55.8211 78.3445 43.3618 101.187 24.1522 104.665C21.1138 105.232 17.9843 104.996 15.1131 103.984L14.4147 100.195C17.2851 101.211 20.4156 101.449 23.4549 100.882C42.6645 97.4031 55.1238 74.5609 90.4767 68.159C100.343 66.3723 109.849 68.6339 116.662 73.6156Z" fill="url(#paint0_linear_129_1038)"/>
<path d="M112.841 52.886L116.662 73.6157C109.849 68.634 100.362 66.369 90.4768 68.159C55.1238 74.561 42.6645 97.4031 23.455 100.882C20.4157 101.449 17.2852 101.211 14.4147 100.195L13.3748 94.5521C17.1471 95.7585 21.2783 95.6587 25.0342 94.2705C43.2562 87.6221 50.1996 63.3756 83.7213 51.1326C93.8275 47.436 104.635 48.3944 112.841 52.886Z" fill="#11477C"/>
<path d="M108.804 30.9816L112.841 52.8859C104.635 48.3943 93.8149 47.4382 83.7013 51.13C50.1797 63.3731 43.2363 87.6196 25.0331 94.2646C21.2772 95.6527 17.146 95.7525 13.3737 94.5461C17.8845 95.3694 22.5906 94.6747 26.6751 92.5826C46.2851 82.4867 49.514 54.1126 85.6253 35.5511C92.7387 31.8925 100.812 30.3009 108.804 30.9816Z" fill="#073E6B"/>
<path d="M106.929 20.8057L108.804 30.9816C100.819 30.2995 92.7523 31.8856 85.642 35.5359C49.515 54.1185 46.3177 82.487 26.6762 92.5886C22.5917 94.6807 17.8856 95.3754 13.3748 94.5521L3.24377 39.5817L106.929 20.8057Z" fill="#11477C"/>
<path d="M34.2141 66.6367L34.9136 70.4321L34.1554 70.5694L33.4559 66.774L32.0937 67.0207L31.9658 66.3272L35.4485 65.6965L35.5763 66.3901L34.2141 66.6367ZM39.9161 68.0861L37.2367 68.5713C37.2996 68.8165 37.4502 68.9972 37.6885 69.1133C37.926 69.2251 38.1797 69.2566 38.4496 69.2077C38.8779 69.1302 39.1786 68.9364 39.3517 68.6263L39.8457 69.0014C39.5476 69.4491 39.1029 69.7265 38.5118 69.8336C38.032 69.9204 37.5937 69.8361 37.1969 69.5806C36.8036 69.32 36.5576 68.9221 36.459 68.387C36.3596 67.8475 36.452 67.3884 36.7363 67.0095C37.0207 66.6306 37.3941 66.3993 37.8568 66.3155C38.3237 66.231 38.746 66.3005 39.1236 66.5241C39.5004 66.7434 39.7342 67.0993 39.825 67.5916L39.9161 68.0861ZM37.1325 68.0062L39.0923 67.6513C39.0394 67.3645 38.9088 67.1603 38.7005 67.0387C38.4922 66.9172 38.2552 66.8805 37.9897 66.9285C37.7284 66.9759 37.5077 67.0999 37.3278 67.3006C37.1471 67.497 37.082 67.7322 37.1325 68.0062ZM43.7337 68.8348L43.0783 68.9535L42.9943 68.4976C42.7739 68.887 42.4259 69.1247 41.9505 69.2108C41.5949 69.2752 41.2808 69.2281 41.0081 69.0696C40.7397 68.9103 40.5747 68.6636 40.5132 68.3297C40.4509 67.9915 40.5285 67.7164 40.7462 67.5044C40.9639 67.2925 41.2848 67.1481 41.7089 67.0713L42.6406 66.9026L42.6169 66.7741C42.5332 66.3203 42.2387 66.1392 41.7332 66.2307C41.4162 66.2881 41.1077 66.4635 40.8076 66.7567L40.4035 66.3653C40.7582 65.9604 41.1991 65.7103 41.726 65.6149C42.1286 65.542 42.4753 65.5854 42.7659 65.7451C43.06 65.8998 43.2473 66.1955 43.3277 66.6321L43.7337 68.8348ZM42.7797 67.6936L42.7264 67.4046L41.9168 67.5513C41.3985 67.6451 41.1693 67.8547 41.2293 68.1801C41.2601 68.3471 41.348 68.4639 41.4931 68.5305C41.6374 68.5929 41.823 68.6035 42.0501 68.5624C42.2814 68.5205 42.4709 68.4198 42.6186 68.2603C42.7662 68.1009 42.8199 67.912 42.7797 67.6936ZM45.1143 66.6736L45.4552 68.5231L44.7355 68.6534L44.1059 65.237L44.8255 65.1067L44.9403 65.7296C45.0045 65.5012 45.1283 65.3084 45.3118 65.1513C45.4997 64.9934 45.7135 64.8928 45.9534 64.8493C46.4931 64.7516 46.9004 64.9079 47.1752 65.3182C47.4316 64.8117 47.8125 64.5127 48.318 64.4211C48.7035 64.3513 49.0358 64.4128 49.3148 64.6056C49.598 64.7977 49.7807 65.1163 49.8628 65.5615L50.2486 67.6551L49.529 67.7854L49.1834 65.9102C49.0674 65.2809 48.7481 65.0135 48.2255 65.1082C47.9813 65.1524 47.7817 65.2704 47.6267 65.4621C47.4752 65.6488 47.4228 65.8928 47.4694 66.194L47.8198 68.0949L47.1001 68.2252L46.7545 66.35C46.6946 66.0247 46.5929 65.7975 46.4497 65.6686C46.3056 65.5355 46.1093 65.4914 45.8609 65.5363C45.6124 65.5813 45.4115 65.704 45.2581 65.9043C45.1039 66.1004 45.0559 66.3568 45.1143 66.6736ZM35.4828 73.5208L36.1823 77.3161L35.4241 77.4534L34.7246 73.6581L33.3624 73.9048L33.2346 73.2112L36.7172 72.5806L36.845 73.2741L35.4828 73.5208ZM41.1848 74.9702L38.5054 75.4554C38.5683 75.7006 38.7189 75.8812 38.9572 75.9974C39.1947 76.1092 39.4484 76.1407 39.7183 76.0918C40.1466 76.0142 40.4474 75.8204 40.6204 75.5104L41.1145 75.8854C40.8163 76.3332 40.3716 76.6106 39.7805 76.7176C39.3007 76.8045 38.8624 76.7202 38.4656 76.4646C38.0723 76.2041 37.8264 75.8062 37.7277 75.271C37.6283 74.7316 37.7208 74.2724 38.0051 73.8936C38.2894 73.5147 38.6629 73.2834 39.1255 73.1996C39.5924 73.1151 40.0147 73.1846 40.3923 73.4082C40.7692 73.6275 41.003 73.9833 41.0937 74.4757L41.1848 74.9702ZM38.4012 74.8903L40.361 74.5354C40.3082 74.2485 40.1776 74.0443 39.9692 73.9228C39.7609 73.8012 39.524 73.7645 39.2584 73.8126C38.9971 73.8599 38.7765 73.9839 38.5966 74.1846C38.4159 74.381 38.3507 74.6163 38.4012 74.8903ZM45.0024 75.7189L44.347 75.8376L44.263 75.3816C44.0426 75.771 43.6947 76.0088 43.2192 76.0949C42.8636 76.1593 42.5495 76.1122 42.2768 75.9537C42.0084 75.7943 41.8435 75.5477 41.7819 75.2138C41.7196 74.8755 41.7973 74.6005 42.0149 74.3885C42.2326 74.1765 42.5535 74.0322 42.9776 73.9554L43.9093 73.7866L43.8856 73.6582C43.802 73.2044 43.5074 73.0233 43.002 73.1148C42.685 73.1722 42.3764 73.3475 42.0763 73.6408L41.6722 73.2494C42.027 72.8445 42.4678 72.5944 42.9947 72.4989C43.3974 72.426 43.744 72.4694 44.0346 72.6292C44.3287 72.7838 44.516 73.0795 44.5965 73.5162L45.0024 75.7189ZM44.0484 74.5777L43.9952 74.2887L43.1856 74.4353C42.6672 74.5292 42.4381 74.7388 42.498 75.0642C42.5288 75.2311 42.6167 75.3479 42.7618 75.4146C42.9061 75.4769 43.0918 75.4875 43.3188 75.4464C43.5501 75.4045 43.7396 75.3039 43.8873 75.1444C44.035 74.9849 44.0887 74.796 44.0484 74.5777ZM46.3831 73.5577L46.7239 75.4072L46.0043 75.5375L45.3746 72.1211L46.0943 71.9907L46.2091 72.6137C46.2732 72.3853 46.3971 72.1925 46.5806 72.0354C46.7684 71.8775 46.9822 71.7768 47.2221 71.7334C47.7619 71.6357 48.1691 71.792 48.444 72.2023C48.7003 71.6958 49.0812 71.3967 49.5867 71.3052C49.9722 71.2354 50.3045 71.2969 50.5835 71.4897C50.8668 71.6817 51.0494 72.0004 51.1315 72.4456L51.5173 74.5391L50.7977 74.6694L50.4521 72.7943C50.3361 72.1649 50.0168 71.8976 49.4942 71.9922C49.25 72.0364 49.0504 72.1544 48.8954 72.3462C48.7439 72.5329 48.6915 72.7769 48.7382 73.0781L49.0885 74.979L48.3688 75.1093L48.0233 73.2341C47.9633 72.9087 47.8617 72.6816 47.7184 72.5527C47.5743 72.4195 47.3781 72.3754 47.1296 72.4204C46.8812 72.4654 46.6802 72.5881 46.5268 72.7884C46.3726 72.9844 46.3247 73.2409 46.3831 73.5577Z" fill="white"/>
<path d="M51.5154 79.6725L76.9585 74.7349C79.4726 74.247 81.7442 75.6426 82.1484 77.6913L86.5369 99.935C86.9411 101.984 85.3674 104.126 82.8533 104.613L57.4102 109.551C54.8961 110.039 52.6245 108.643 52.2204 106.595L47.8318 84.3509C47.4277 82.3022 49.0014 80.1604 51.5154 79.6725Z" fill="white"/>
<path d="M51.5154 79.6725L76.9585 74.7349C79.4726 74.247 81.7442 75.6426 82.1484 77.6913L86.5369 99.935C86.9411 101.984 85.3674 104.126 82.8533 104.613L57.4102 109.551C54.8961 110.039 52.6245 108.643 52.2204 106.595L47.8318 84.3509C47.4277 82.3022 49.0014 80.1604 51.5154 79.6725Z" stroke="black"/>
<path d="M51.5154 79.6725L76.9585 74.7349C79.4726 74.247 81.7442 75.6426 82.1484 77.6913L86.5369 99.935C86.9411 101.984 85.3674 104.126 82.8533 104.613L57.4102 109.551C54.8961 110.039 52.6245 108.643 52.2204 106.595L47.8318 84.3509C47.4277 82.3022 49.0014 80.1604 51.5154 79.6725Z" stroke="black" stroke-opacity="0.2"/>
<path fill-rule="evenodd" clip-rule="evenodd" d="M69.6387 102.66C75.7448 101.59 79.8195 95.8166 78.7395 89.7654C77.6595 83.7143 71.8339 79.6764 65.7277 80.7466C59.6215 81.8169 55.5469 87.59 56.6268 93.6411C57.7068 99.6922 63.5325 103.73 69.6387 102.66ZM69.8559 103.877C76.6409 102.688 81.168 96.2739 79.968 89.5501C78.768 82.8264 72.2953 78.34 65.5104 79.5292C58.7255 80.7184 54.1983 87.1327 55.3984 93.8564C56.5984 100.58 63.071 105.067 69.8559 103.877Z" fill="black"/>
<path d="M61.6208 100.238C61.5086 99.6094 61.8879 98.9949 62.507 98.8148C67.1531 97.4644 70.2357 96.9724 75.0506 96.6282C75.2911 96.6114 75.5313 96.6644 75.742 96.7806C75.9526 96.8969 76.1245 97.0714 76.2367 97.2829C76.3489 97.4944 76.3965 97.7337 76.3737 97.9716C76.3509 98.2094 76.2587 98.4356 76.1084 98.6223C71.3883 104.421 68.1873 104.913 62.1746 101.07C61.8814 100.882 61.6815 100.578 61.6209 100.239L61.6208 100.238Z" fill="black"/>
<path fill-rule="evenodd" clip-rule="evenodd" d="M75.0503 97.0807C70.2735 97.422 67.2354 97.908 62.6369 99.2444C62.4857 99.2893 62.3565 99.3879 62.2741 99.5213C62.1916 99.6547 62.1617 99.8135 62.1901 99.9674C62.2212 100.142 62.3237 100.294 62.4676 100.386C65.4478 102.291 67.5773 103.014 69.4747 102.689C71.3788 102.362 73.2347 100.949 75.578 98.071C75.6522 97.978 75.6974 97.8656 75.7083 97.7475C75.7192 97.6294 75.6953 97.5108 75.6394 97.4059C75.5835 97.3011 75.4981 97.2146 75.3935 97.1569C75.289 97.0993 75.1697 97.0724 75.0503 97.0807ZM62.2864 98.0579C66.9813 96.6933 70.1089 96.1941 74.9614 95.8477C75.3232 95.8221 75.6846 95.9017 76.0014 96.0766C76.3183 96.2515 76.5768 96.5142 76.7453 96.8325C76.9138 97.1507 76.9851 97.5108 76.9503 97.8685C76.9155 98.2263 76.7762 98.5662 76.5495 98.8468C74.1725 101.767 72.0682 103.499 69.6883 103.907C67.3017 104.316 64.8246 103.364 61.7921 101.425C61.5749 101.286 61.389 101.103 61.2461 100.889C61.1032 100.676 61.0063 100.435 60.9615 100.182C60.8796 99.7284 60.9695 99.2608 61.214 98.8687C61.4584 98.4766 61.8403 98.1883 62.2864 98.0579Z" fill="black"/>
<path d="M73.3937 88.6068C73.6242 89.8983 73.3276 91.2276 72.569 92.3024C71.8105 93.3771 70.6522 94.1092 69.3489 94.3376C68.0457 94.5661 66.7042 94.2721 65.6197 93.5204C64.5352 92.7687 63.7964 91.6208 63.5659 90.3293C63.3354 89.0378 63.632 87.7084 64.3906 86.6337C65.1491 85.5589 66.3075 84.8268 67.6107 84.5984C68.914 84.37 70.2554 84.664 71.3399 85.4157C72.4245 86.1674 73.1632 87.3153 73.3937 88.6068Z" fill="black"/>
<path fill-rule="evenodd" clip-rule="evenodd" d="M67.9004 92.9207C68.8779 92.7493 69.7466 92.2003 70.3155 91.3942C70.8844 90.5881 71.1069 89.5911 70.9341 88.6225C70.7612 87.6539 70.2071 86.793 69.3937 86.2292C68.5803 85.6654 67.5742 85.4449 66.5968 85.6162C65.6193 85.7875 64.7506 86.3366 64.1817 87.1427C63.6128 87.9487 63.3903 88.9458 63.5632 89.9144C63.736 90.883 64.2901 91.7439 65.1035 92.3077C65.9169 92.8715 66.923 93.092 67.9004 92.9207ZM68.1177 94.1381C69.421 93.9096 70.5793 93.1775 71.3378 92.1028C72.0964 91.028 72.393 89.6987 72.1625 88.4072C71.932 87.1157 71.1933 85.9678 70.1087 85.2161C69.0242 84.4644 67.6828 84.1704 66.3795 84.3988C65.0763 84.6272 63.9179 85.3594 63.1594 86.4341C62.4008 87.5088 62.1042 88.8382 62.3347 90.1297C62.5652 91.4212 63.304 92.5691 64.3885 93.3208C65.473 94.0725 66.8145 94.3665 68.1177 94.1381Z" fill="black"/>
<path d="M43.4956 115.859C44.0735 115.758 44.6006 115.782 45.0769 115.931C45.5584 116.08 45.9548 116.344 46.2661 116.722C46.5817 117.095 46.7886 117.557 46.8869 118.108C46.9852 118.659 46.9505 119.163 46.7827 119.621C46.6193 120.071 46.3371 120.448 45.9361 120.751C45.5403 121.054 45.0534 121.255 44.4756 121.356L42.5528 121.693L41.5729 116.196L43.4956 115.859ZM44.2691 120.426C44.847 120.325 45.2654 120.089 45.5245 119.719C45.7835 119.349 45.8621 118.877 45.76 118.305C45.658 117.733 45.4209 117.314 45.0486 117.049C44.6753 116.779 44.1998 116.694 43.6219 116.795L42.8418 116.932L43.489 120.563L44.2691 120.426ZM51.8539 117.718C51.8819 117.875 51.8967 118.019 51.8981 118.148L48.7067 118.707C48.7891 119.018 48.9434 119.245 49.1696 119.39C49.3958 119.534 49.6507 119.581 49.9344 119.532C50.3442 119.46 50.6044 119.233 50.7151 118.851L51.905 118.643C51.8538 119.085 51.6739 119.474 51.3653 119.809C51.0558 120.14 50.641 120.35 50.1209 120.441C49.7006 120.515 49.306 120.489 48.937 120.364C48.5724 120.233 48.2651 120.014 48.0151 119.705C47.7704 119.396 47.6083 119.019 47.5287 118.572C47.4482 118.121 47.4695 117.708 47.5925 117.335C47.7156 116.961 47.9262 116.654 48.2244 116.412C48.5226 116.17 48.8871 116.012 49.3179 115.936C49.7329 115.864 50.1192 115.888 50.4767 116.01C50.8395 116.13 51.1397 116.34 51.3773 116.64C51.6192 116.933 51.778 117.292 51.8539 117.718ZM50.6551 117.603C50.5993 117.32 50.4566 117.112 50.227 116.979C49.9965 116.841 49.7368 116.797 49.4478 116.847C49.1746 116.895 48.9585 117.02 48.7993 117.221C48.6444 117.416 48.5722 117.664 48.5826 117.965L50.6551 117.603ZM54.6951 115.003C55.2152 114.912 55.6649 115.004 56.0443 115.279C56.4228 115.548 56.6645 115.977 56.7693 116.565L57.2256 119.125L56.1223 119.318L55.6928 116.908C55.631 116.561 55.497 116.311 55.2909 116.158C55.0839 115.999 54.8306 115.946 54.5312 115.998C54.2265 116.052 54.0016 116.188 53.8567 116.409C53.7161 116.623 53.6767 116.903 53.7385 117.25L54.1681 119.66L53.0648 119.853L52.2871 115.49L53.3903 115.296L53.4872 115.84C53.6006 115.625 53.7609 115.445 53.968 115.301C54.1795 115.15 54.4219 115.051 54.6951 115.003ZM59.9049 114.091C60.425 114 60.8748 114.092 61.2542 114.367C61.6327 114.636 61.8743 115.065 61.9792 115.653L62.4354 118.213L61.3322 118.406L60.9026 115.996C60.8408 115.649 60.7069 115.399 60.5008 115.246C60.2937 115.087 60.0405 115.034 59.741 115.086C59.4363 115.14 59.2115 115.276 59.0666 115.497C58.926 115.711 58.8865 115.991 58.9483 116.338L59.3779 118.748L58.2747 118.941L57.4969 114.578L58.6002 114.385L58.697 114.928C58.8104 114.713 58.9707 114.534 59.1779 114.389C59.3894 114.238 59.6317 114.139 59.9049 114.091ZM63.1736 113.048C62.9792 113.082 62.8056 113.05 62.6527 112.952C62.5042 112.848 62.4136 112.705 62.3808 112.521C62.348 112.337 62.3839 112.174 62.4885 112.031C62.5974 111.882 62.749 111.79 62.9434 111.756C63.1377 111.722 63.3092 111.757 63.4578 111.861C63.6106 111.959 63.7034 112.1 63.7362 112.283C63.7689 112.467 63.7309 112.634 63.622 112.783C63.5175 112.925 63.368 113.014 63.1736 113.048ZM63.81 113.473L64.5878 117.836L63.4845 118.029L62.7068 113.666L63.81 113.473ZM67.361 117.423C67.0037 117.486 66.6721 117.479 66.3659 117.403C66.0588 117.321 65.8016 117.185 65.5941 116.994C65.392 116.802 65.2592 116.573 65.1957 116.308L66.3068 116.114C66.3577 116.278 66.464 116.403 66.6255 116.488C66.7922 116.573 66.9833 116.596 67.1987 116.558C67.4088 116.522 67.5642 116.451 67.6648 116.347C67.7706 116.242 67.8119 116.124 67.7885 115.992C67.7632 115.851 67.6709 115.758 67.5117 115.716C67.3567 115.667 67.1142 115.628 66.784 115.6C66.4442 115.578 66.1618 115.543 65.9367 115.496C65.7168 115.448 65.5153 115.351 65.332 115.204C65.154 115.057 65.0388 114.836 64.9864 114.542C64.9434 114.3 64.9724 114.068 65.0734 113.844C65.1797 113.62 65.3512 113.427 65.5881 113.267C65.8301 113.105 66.1272 112.994 66.4791 112.932C66.9992 112.841 67.4377 112.9 67.7944 113.108C68.1502 113.311 68.3832 113.63 68.4933 114.066L67.4374 114.251C67.3908 114.08 67.2929 113.957 67.1438 113.88C66.9989 113.797 66.8189 113.774 66.6035 113.812C66.4038 113.847 66.2554 113.911 66.1582 114.004C66.0662 114.096 66.0319 114.207 66.0553 114.338C66.0815 114.485 66.1752 114.585 66.3363 114.638C66.4965 114.686 66.7386 114.722 67.0626 114.747C67.3919 114.77 67.6664 114.806 67.8863 114.854C68.1062 114.903 68.3055 115.003 68.4845 115.156C68.6677 115.302 68.7877 115.52 68.8444 115.807C68.8893 116.059 68.8587 116.298 68.7524 116.522C68.6514 116.745 68.4798 116.938 68.2377 117.099C68 117.255 67.7077 117.363 67.361 117.423ZM73.6244 113.907C73.6525 114.064 73.6672 114.208 73.6687 114.338L70.4772 114.896C70.5596 115.207 70.7139 115.434 70.9401 115.579C71.1663 115.723 71.4213 115.771 71.705 115.721C72.1147 115.649 72.375 115.422 72.4856 115.04L73.6755 114.832C73.6243 115.274 73.4444 115.663 73.1359 115.998C72.8264 116.329 72.4116 116.539 71.8915 116.63C71.4712 116.704 71.0766 116.678 70.7076 116.553C70.3429 116.422 70.0356 116.203 69.7857 115.894C69.5409 115.585 69.3788 115.208 69.2993 114.761C69.2188 114.31 69.24 113.897 69.3631 113.524C69.4861 113.15 69.6967 112.843 69.995 112.601C70.2932 112.359 70.6577 112.201 71.0884 112.125C71.5035 112.053 71.8897 112.077 72.2473 112.199C72.6101 112.319 72.9103 112.529 73.1478 112.829C73.3897 113.122 73.5486 113.482 73.6244 113.907ZM72.4256 113.792C72.3698 113.509 72.2271 113.301 71.9976 113.168C71.767 113.03 71.5073 112.986 71.2184 113.037C70.9452 113.084 70.729 113.209 70.5698 113.41C70.415 113.605 70.3427 113.853 70.3531 114.155L72.4256 113.792ZM79.331 112.347C79.6513 112.351 79.9337 112.461 80.1782 112.678C80.4228 112.895 80.5741 113.167 80.6321 113.492C80.6845 113.786 80.6573 114.059 80.5505 114.311C80.4479 114.556 80.2713 114.766 80.0206 114.939C79.7699 115.113 79.458 115.233 79.085 115.298L76.7131 115.713L75.7332 110.216L78.0027 109.819C78.3756 109.753 78.7069 109.758 78.9963 109.832C79.291 109.904 79.5259 110.037 79.7008 110.228C79.881 110.418 79.9955 110.65 80.0442 110.923C80.1012 111.243 80.0623 111.526 79.9273 111.772C79.7976 112.017 79.5988 112.209 79.331 112.347ZM77.2407 112.291L78.2494 112.114C78.512 112.069 78.704 111.975 78.8253 111.835C78.9456 111.689 78.9861 111.506 78.9468 111.286C78.9075 111.065 78.8061 110.907 78.6428 110.811C78.4794 110.715 78.2664 110.69 78.0037 110.736L76.995 110.913L77.2407 112.291ZM78.7674 114.428C79.0353 114.381 79.2316 114.282 79.3562 114.13C79.4861 113.977 79.5304 113.785 79.4893 113.554C79.4471 113.318 79.3356 113.148 79.1546 113.044C78.9726 112.935 78.7477 112.904 78.4798 112.951L77.3923 113.142L77.6563 114.622L78.7674 114.428ZM81.8411 108.806L82.8799 114.634L81.7767 114.827L80.7378 108.999L81.8411 108.806ZM83.2946 112.295C83.2159 111.854 83.2329 111.448 83.3454 111.076C83.4632 110.704 83.6554 110.399 83.9221 110.163C84.1941 109.926 84.5165 109.775 84.8895 109.71C85.2152 109.653 85.5106 109.669 85.7757 109.757C86.046 109.846 86.2725 109.976 86.4551 110.15L86.3442 109.528L87.4553 109.334L88.2331 113.697L87.122 113.891L87.0083 113.253C86.9029 113.483 86.7364 113.688 86.5085 113.869C86.285 114.043 86.0104 114.159 85.6847 114.216C85.3169 114.28 84.9639 114.245 84.6255 114.109C84.2923 113.972 84.006 113.749 83.7666 113.439C83.5314 113.123 83.3741 112.742 83.2946 112.295ZM86.7331 111.71C86.6854 111.442 86.5921 111.223 86.4534 111.052C86.3137 110.876 86.1456 110.754 85.9492 110.685C85.7519 110.612 85.5508 110.593 85.3459 110.629C85.141 110.664 84.9608 110.747 84.8052 110.878C84.6496 111.008 84.534 111.18 84.4583 111.393C84.3869 111.601 84.3746 111.836 84.4214 112.098C84.4682 112.361 84.5619 112.582 84.7026 112.764C84.8475 112.938 85.016 113.063 85.2081 113.138C85.4054 113.212 85.6039 113.231 85.8036 113.196C86.0084 113.16 86.1913 113.077 86.3521 112.946C86.512 112.81 86.6277 112.638 86.6991 112.43C86.7695 112.218 86.7808 111.977 86.7331 111.71ZM90.9408 108.658C91.4609 108.567 91.9107 108.659 92.2901 108.934C92.6686 109.203 92.9102 109.632 93.0151 110.22L93.4713 112.78L92.3681 112.973L91.9385 110.563C91.8767 110.216 91.7428 109.966 91.5367 109.813C91.3296 109.654 91.0764 109.601 90.7769 109.654C90.4722 109.707 90.2474 109.844 90.1025 110.064C89.9619 110.278 89.9225 110.558 89.9842 110.905L90.4138 113.315L89.3106 113.508L88.5328 109.145L89.6361 108.952L89.7329 109.495C89.8463 109.28 90.0066 109.101 90.2138 108.956C90.4253 108.806 90.6676 108.706 90.9408 108.658ZM93.8479 110.464C93.7674 110.013 93.7891 109.603 93.9131 109.235C94.0361 108.861 94.2441 108.554 94.5371 108.313C94.8291 108.067 95.1853 107.907 95.6055 107.834C96.1466 107.739 96.6175 107.797 97.0182 108.009C97.4231 108.214 97.7296 108.55 97.9374 109.017L96.7475 109.226C96.6508 109.048 96.5169 108.92 96.3458 108.841C96.1791 108.757 95.9854 108.734 95.7647 108.772C95.4495 108.828 95.2206 108.987 95.0779 109.25C94.9342 109.508 94.8999 109.847 94.9747 110.267C95.0487 110.682 95.1982 110.989 95.4232 111.187C95.6473 111.381 95.917 111.45 96.2322 111.395C96.6788 111.317 96.9348 111.066 97.0002 110.643L98.1901 110.435C98.1535 110.929 97.9814 111.346 97.6738 111.687C97.3662 112.028 96.9444 112.245 96.4086 112.339C95.9883 112.412 95.5989 112.386 95.2404 112.259C94.881 112.127 94.5794 111.909 94.3357 111.605C94.091 111.296 93.9284 110.916 93.8479 110.464ZM100.93 106.91C101.261 106.852 101.569 106.874 101.852 106.976C102.135 107.072 102.373 107.25 102.565 107.509C102.762 107.761 102.895 108.085 102.965 108.478L103.422 111.038L102.318 111.231L101.889 108.821C101.827 108.475 101.693 108.225 101.487 108.071C101.28 107.913 101.027 107.859 100.727 107.912C100.422 107.965 100.198 108.102 100.053 108.322C99.9121 108.536 99.8727 108.817 99.9345 109.163L100.364 111.573L99.2609 111.766L98.222 105.938L99.3252 105.745L99.6832 107.753C99.7913 107.54 99.9543 107.359 100.172 107.213C100.389 107.061 100.642 106.96 100.93 106.91Z" fill="#58595B"/>
<path d="M54.7036 127.938L54.3614 128.001L54.0854 126.039C53.9875 125.386 53.9096 124.796 53.8518 124.27L52.9914 127.759L52.6551 127.821L51.4571 124.717C51.4647 124.996 51.4485 125.605 51.4086 126.544L51.3283 128.56L50.9861 128.623L51.1795 124.408L51.6457 124.322L52.8009 127.361L53.6107 123.961L54.1241 123.866L54.7036 127.938ZM56.6664 124.319C56.8592 124.284 57.0363 124.274 57.1978 124.289C57.3594 124.304 57.5285 124.338 57.7053 124.39L57.7971 126.674C57.7973 126.718 57.8044 126.778 57.8184 126.853C57.8339 126.935 57.8602 127 57.8973 127.046C57.9376 127.087 57.9961 127.117 58.0728 127.135L58.0178 127.396C57.8742 127.389 57.7593 127.352 57.673 127.282C57.586 127.209 57.5283 127.085 57.4998 126.911C57.4142 127.106 57.2983 127.27 57.1522 127.402C57.0094 127.53 56.8435 127.612 56.6547 127.646C56.3478 127.703 56.088 127.641 55.8751 127.46C55.6655 127.275 55.526 126.998 55.4568 126.628C55.3994 126.322 55.3967 126.003 55.4486 125.672C55.5006 125.341 55.6251 125.05 55.8221 124.798C56.0231 124.546 56.3045 124.386 56.6664 124.319ZM56.7301 124.594C56.4508 124.646 56.2337 124.779 56.0787 124.995C55.9277 125.21 55.834 125.459 55.7975 125.742C55.7649 126.025 55.7733 126.298 55.8227 126.561C55.8786 126.86 55.978 127.075 56.1208 127.208C56.2636 127.34 56.4412 127.387 56.6537 127.348C56.8386 127.314 56.9935 127.228 57.1184 127.091C57.2473 126.954 57.3587 126.766 57.4527 126.53L57.3703 124.623C57.1638 124.563 56.9504 124.554 56.7301 124.594ZM60.2575 123.658C60.4896 123.616 60.6807 123.648 60.8309 123.754C60.9811 123.861 61.0787 124.034 61.1236 124.274C61.1368 124.344 61.1449 124.42 61.1479 124.501L61.2486 126.734L60.9063 126.797L60.8078 124.576C60.8068 124.527 60.7986 124.462 60.7832 124.379C60.7206 124.045 60.5398 123.905 60.2408 123.96C59.8435 124.033 59.5252 124.442 59.286 125.185L59.3721 127.079L59.0298 127.142L58.8889 123.977L59.1839 123.923L59.2449 124.705C59.3561 124.408 59.4968 124.171 59.667 123.993C59.8364 123.811 60.0333 123.7 60.2575 123.658ZM63.3971 123.08C63.5898 123.045 63.767 123.035 63.9285 123.05C64.09 123.065 64.2592 123.099 64.4359 123.152L64.5278 125.435C64.528 125.479 64.5351 125.539 64.5491 125.614C64.5646 125.696 64.5909 125.761 64.628 125.807C64.6683 125.848 64.7268 125.878 64.8035 125.896L64.7485 126.157C64.6049 126.15 64.49 126.113 64.4037 126.043C64.3167 125.97 64.2589 125.846 64.2305 125.672C64.1448 125.867 64.029 126.031 63.8829 126.163C63.74 126.291 63.5742 126.373 63.3854 126.408C63.0785 126.464 62.8187 126.402 62.6058 126.222C62.3961 126.036 62.2567 125.759 62.1875 125.39C62.1301 125.083 62.1273 124.764 62.1793 124.433C62.2313 124.102 62.3558 123.811 62.5528 123.559C62.7537 123.307 63.0352 123.147 63.3971 123.08ZM63.4608 123.355C63.1815 123.407 62.9644 123.54 62.8094 123.756C62.6584 123.971 62.5646 124.22 62.5282 124.503C62.4956 124.786 62.504 125.059 62.5534 125.322C62.6093 125.621 62.7087 125.837 62.8515 125.969C62.9943 126.101 63.1719 126.148 63.3843 126.109C63.5692 126.075 63.7242 125.989 63.8491 125.852C63.978 125.715 64.0894 125.528 64.1834 125.291L64.101 123.384C63.8945 123.324 63.6811 123.315 63.4608 123.355ZM66.7226 122.468C66.9154 122.433 67.0925 122.423 67.2541 122.438C67.4156 122.453 67.5847 122.487 67.7615 122.539L67.8804 125.489C67.9138 126.341 67.5608 126.835 66.8212 126.971C66.4671 127.036 66.1088 127.002 65.7462 126.87L65.8333 126.585C66.1632 126.695 66.4698 126.724 66.753 126.672C67.3077 126.57 67.5718 126.198 67.5452 125.556L67.5199 125.03C67.4321 125.213 67.3167 125.369 67.1738 125.497C67.0302 125.621 66.8679 125.699 66.687 125.733C66.384 125.788 66.1262 125.726 65.9133 125.546C65.7005 125.365 65.5582 125.094 65.4865 124.733C65.4291 124.427 65.4271 124.112 65.4805 123.789C65.5379 123.465 65.6678 123.181 65.8702 122.936C66.0727 122.692 66.3568 122.536 66.7226 122.468ZM66.7746 122.745C66.4913 122.798 66.2715 122.928 66.115 123.135C65.9626 123.342 65.8673 123.584 65.8294 123.859C65.7914 124.134 65.7991 124.403 65.8524 124.666C65.9061 124.953 66.0064 125.162 66.1531 125.294C66.2998 125.426 66.4774 125.472 66.6859 125.434C66.8669 125.401 67.0238 125.315 67.1566 125.176C67.2894 125.038 67.4051 124.852 67.5038 124.618L67.4266 122.772C67.2201 122.712 67.0027 122.703 66.7746 122.745ZM69.3156 122.058L69.4566 125.223L69.1143 125.286L68.9733 122.121L69.3156 122.058ZM69.1189 121.204C69.0481 121.217 68.9874 121.207 68.9368 121.176C68.8854 121.141 68.8534 121.09 68.8409 121.023C68.8262 120.944 68.8396 120.875 68.8812 120.814C68.9267 120.753 68.9888 120.715 69.0675 120.701C69.1383 120.688 69.1994 120.699 69.2507 120.734C69.3014 120.765 69.3329 120.814 69.3455 120.881C69.3602 120.96 69.3448 121.03 69.2993 121.091C69.2577 121.152 69.1976 121.189 69.1189 121.204ZM71.9267 121.51C72.1588 121.468 72.3499 121.5 72.5001 121.606C72.6503 121.713 72.7479 121.886 72.7928 122.126C72.806 122.197 72.8141 122.272 72.817 122.353L72.9178 124.586L72.5755 124.649L72.477 122.428C72.476 122.379 72.4678 122.314 72.4524 122.231C72.3898 121.897 72.209 121.757 71.91 121.812C71.5127 121.886 71.1944 122.294 70.9552 123.037L71.0413 124.931L70.699 124.994L70.558 121.829L70.8531 121.775L70.9141 122.557C71.0253 122.26 71.166 122.023 71.3362 121.845C71.5056 121.663 71.7025 121.552 71.9267 121.51ZM75.0899 120.928C75.2826 120.893 75.4598 120.882 75.6213 120.897C75.7828 120.912 75.952 120.946 76.1287 120.999L76.2477 123.948C76.2811 124.8 75.928 125.295 75.1884 125.431C74.8344 125.496 74.476 125.462 74.1135 125.33L74.2006 125.045C74.5305 125.155 74.837 125.184 75.1203 125.132C75.675 125.03 75.939 124.658 75.9124 124.016L75.8871 123.49C75.7993 123.673 75.684 123.828 75.5411 123.956C75.3975 124.081 75.2352 124.159 75.0542 124.193C74.7513 124.248 74.4934 124.186 74.2806 124.005C74.0677 123.825 73.9254 123.554 73.8538 123.193C73.7963 122.887 73.7943 122.572 73.8478 122.249C73.9052 121.925 74.0351 121.641 74.2375 121.396C74.4399 121.151 74.724 120.995 75.0899 120.928ZM75.1418 121.205C74.8586 121.257 74.6387 121.387 74.4823 121.595C74.3298 121.802 74.2346 122.043 74.1966 122.319C74.1587 122.594 74.1663 122.863 74.2196 123.126C74.2734 123.413 74.3736 123.622 74.5203 123.754C74.6671 123.886 74.8447 123.932 75.0532 123.894C75.2341 123.86 75.391 123.775 75.5238 123.636C75.6566 123.498 75.7724 123.312 75.871 123.078L75.7938 121.232C75.5873 121.172 75.37 121.163 75.1418 121.205ZM79.7484 119.149C80.2401 119.059 80.6561 119.096 80.9963 119.261C81.3397 119.422 81.5648 119.787 81.6716 120.357C81.7563 120.809 81.7615 121.24 81.6874 121.648C81.6172 122.055 81.4449 122.406 81.1704 122.701C80.8999 122.994 80.5168 123.187 80.0211 123.278L79.1419 123.44L78.9577 119.295L79.7484 119.149ZM79.3257 119.532L79.4879 123.071L80.0131 122.975C80.4222 122.899 80.7344 122.73 80.9496 122.467C81.1648 122.203 81.2958 121.893 81.3426 121.534C81.3934 121.175 81.3827 120.803 81.3105 120.418C81.2214 119.942 81.0454 119.643 80.7824 119.52C80.5233 119.397 80.2049 119.37 79.8272 119.44L79.3257 119.532ZM83.0305 119.534L83.1715 122.698L82.8292 122.761L82.6882 119.597L83.0305 119.534ZM82.8338 118.679C82.763 118.692 82.7023 118.683 82.6517 118.652C82.6003 118.616 82.5683 118.565 82.5558 118.498C82.5411 118.42 82.5545 118.35 82.5961 118.29C82.6416 118.228 82.7037 118.191 82.7824 118.176C82.8532 118.163 82.9143 118.174 82.9656 118.209C83.0163 118.241 83.0478 118.29 83.0604 118.357C83.0751 118.435 83.0597 118.505 83.0142 118.567C82.9726 118.627 82.9125 118.665 82.8338 118.679ZM85.4587 119.02C85.5728 118.999 85.6737 118.994 85.7615 119.007L85.7278 119.348C85.6526 119.338 85.5677 119.341 85.4733 119.358C85.257 119.398 85.0867 119.521 84.9624 119.727C84.8422 119.932 84.7483 120.224 84.6808 120.603L84.7562 122.407L84.4139 122.47L84.2729 119.305L84.568 119.251L84.6316 120.014C84.7699 119.427 85.0456 119.096 85.4587 119.02ZM88.4115 119.245C88.4822 119.622 88.3499 119.937 88.0148 120.19C87.6788 120.439 87.1754 120.652 86.5044 120.828L86.511 120.864C86.5714 121.186 86.6848 121.411 86.8512 121.539C87.0215 121.666 87.2287 121.708 87.4726 121.663C87.6339 121.633 87.777 121.582 87.9019 121.51C88.03 121.434 88.1588 121.329 88.2885 121.195L88.4872 121.409C88.3448 121.561 88.1929 121.685 88.0316 121.779C87.8735 121.869 87.698 121.932 87.5053 121.968C87.1512 122.033 86.8556 121.975 86.6184 121.795C86.3812 121.615 86.2258 121.329 86.1522 120.936C86.094 120.625 86.0916 120.308 86.1451 119.985C86.2025 119.662 86.3304 119.378 86.5289 119.134C86.7313 118.889 87.0076 118.734 87.3577 118.67C87.6449 118.617 87.8824 118.647 88.0702 118.758C88.2572 118.866 88.371 119.028 88.4115 119.245ZM87.4107 118.953C87.0567 119.018 86.8047 119.205 86.6549 119.513C86.509 119.821 86.4478 120.167 86.4713 120.554C87.0525 120.398 87.4755 120.222 87.7401 120.027C88.0047 119.832 88.1112 119.597 88.0597 119.322C88.0346 119.188 87.9664 119.085 87.8551 119.012C87.7437 118.939 87.5956 118.919 87.4107 118.953ZM90.3188 118.125C90.6611 118.062 90.9583 118.117 91.2105 118.29L91.0566 118.544C90.9507 118.478 90.8429 118.435 90.7332 118.415C90.6229 118.39 90.5008 118.39 90.367 118.415C90.0917 118.466 89.882 118.596 89.7381 118.805C89.5982 119.014 89.5135 119.257 89.4842 119.535C89.4541 119.809 89.463 120.074 89.5109 120.33C89.569 120.64 89.6794 120.86 89.8418 120.989C90.0082 121.117 90.2134 121.158 90.4573 121.113C90.5989 121.087 90.7247 121.042 90.8346 120.977C90.9485 120.911 91.0602 120.823 91.1699 120.714L91.3627 120.928C91.1232 121.192 90.8342 121.355 90.4959 121.417C90.1497 121.481 89.858 121.423 89.6209 121.243C89.3829 121.059 89.2271 120.77 89.1535 120.377C89.0975 120.078 89.0943 119.768 89.1438 119.445C89.1934 119.123 89.3131 118.839 89.5029 118.592C89.6967 118.345 89.9687 118.189 90.3188 118.125ZM92.4821 120.198C92.4875 120.27 92.4928 120.32 92.4979 120.347C92.5458 120.603 92.6917 120.708 92.9356 120.663C93.0851 120.636 93.243 120.556 93.4095 120.423L93.575 120.655C93.3862 120.82 93.1776 120.924 92.9495 120.966C92.741 121.004 92.5674 120.979 92.4288 120.891C92.2894 120.798 92.2002 120.648 92.1612 120.44C92.1538 120.4 92.1467 120.341 92.1399 120.261L92.0457 118.161L91.5265 118.257L91.5158 117.972L92.041 117.875L92.0719 117.095L92.3378 117.015L92.3715 117.814L93.1681 117.668L93.1374 117.96L92.388 118.098L92.4821 120.198ZM95.1407 120.562C94.7866 120.627 94.4906 120.568 94.2527 120.384C94.0187 120.199 93.8649 119.91 93.7913 119.517C93.736 119.222 93.7316 118.916 93.7779 118.599C93.8235 118.277 93.9412 117.993 94.1311 117.747C94.3242 117.495 94.6017 117.337 94.9636 117.27C95.3216 117.204 95.6172 117.262 95.8505 117.442C96.0837 117.623 96.2372 117.91 96.3108 118.303C96.3653 118.594 96.3697 118.9 96.3242 119.222C96.2825 119.543 96.1655 119.831 95.9732 120.086C95.7801 120.337 95.5026 120.496 95.1407 120.562ZM95.0984 120.271C95.3777 120.22 95.5869 120.088 95.7262 119.875C95.8693 119.662 95.954 119.418 95.9801 119.145C96.0055 118.868 95.9943 118.601 95.9464 118.346C95.889 118.039 95.7806 117.819 95.6214 117.686C95.4621 117.552 95.2585 117.509 95.0107 117.554C94.7275 117.606 94.5146 117.741 94.3722 117.958C94.2291 118.172 94.1448 118.417 94.1194 118.694C94.094 118.972 94.1044 119.234 94.1508 119.482C94.2083 119.788 94.3186 120.008 94.4818 120.141C94.645 120.273 94.8505 120.317 95.0984 120.271ZM98.4648 116.626C98.5789 116.605 98.6798 116.6 98.7676 116.612L98.7339 116.954C98.6587 116.944 98.5738 116.947 98.4794 116.964C98.2631 117.004 98.0928 117.127 97.9686 117.333C97.8483 117.538 97.7544 117.83 97.6869 118.208L97.7623 120.013L97.4201 120.076L97.2791 116.911L97.5741 116.857L97.6377 117.62C97.776 117.033 98.0517 116.702 98.4648 116.626Z" fill="#58595B"/>
<path d="M31.3928 138.387L31.9879 141.76L31.6923 141.811L31.0972 138.438L31.3928 138.387ZM33.1577 138.081C33.6241 138 34.0226 138.053 34.3534 138.239C34.6874 138.425 34.9103 138.835 35.022 139.468C35.1338 140.102 35.0645 140.572 34.8141 140.879C34.5663 141.183 34.2306 141.371 33.8069 141.445L33.0827 141.57L32.4877 138.197L33.1577 138.081ZM32.8267 138.392L33.3349 141.273L33.7832 141.195C34.5748 141.058 34.8842 140.5 34.7117 139.522C34.6433 139.135 34.5334 138.848 34.382 138.661C34.2305 138.474 34.0601 138.361 33.8705 138.323C33.6837 138.281 33.4737 138.28 33.2405 138.32L32.8267 138.392ZM38.2211 137.97C38.4543 137.93 38.6438 137.968 38.7896 138.085C38.9388 138.201 39.0353 138.384 39.0794 138.633L39.4043 140.475L39.1185 140.525L38.8006 138.722C38.7641 138.516 38.6964 138.372 38.5975 138.291C38.4986 138.21 38.3686 138.183 38.2077 138.211C38.0435 138.239 37.9054 138.311 37.7936 138.425C37.6844 138.535 37.5877 138.687 37.5034 138.881L37.8327 140.747L37.5469 140.797L37.0926 138.222L37.3389 138.179L37.4458 138.612C37.5237 138.439 37.6273 138.298 37.7568 138.188C37.8857 138.074 38.0404 138.002 38.2211 137.97ZM42.2321 139.985L41.9857 140.028L41.8902 139.572C41.7468 139.949 41.4961 140.169 41.1381 140.231C40.9049 140.271 40.7123 140.235 40.5605 140.123C40.4114 140.006 40.3145 139.822 40.2699 139.569L39.945 137.727L40.2308 137.678L40.5505 139.49C40.5858 139.69 40.6529 139.831 40.7518 139.912C40.8534 139.989 40.9896 140.013 41.1604 139.983C41.4593 139.931 41.6796 139.712 41.8212 139.326L41.492 137.459L41.7777 137.41L42.2321 139.985ZM45.3257 136.74C45.5326 136.704 45.7076 136.746 45.8508 136.867C45.9972 136.987 46.0919 137.168 46.1347 137.411L46.4596 139.253L46.1739 139.302L45.8559 137.5C45.82 137.297 45.7542 137.154 45.6586 137.073C45.5657 136.987 45.4503 136.956 45.3123 136.98C45.1678 137.005 45.0462 137.074 44.9475 137.186C44.8487 137.297 44.7602 137.448 44.6819 137.638L45.0112 139.504L44.7254 139.553L44.4075 137.751C44.3716 137.548 44.3058 137.405 44.2102 137.324C44.1173 137.238 44.0019 137.207 43.8639 137.231C43.7161 137.257 43.5928 137.326 43.4941 137.437C43.3954 137.549 43.3085 137.7 43.2335 137.889L43.5628 139.755L43.277 139.804L42.8227 137.229L43.069 137.186L43.171 137.62C43.2423 137.449 43.3377 137.309 43.4573 137.2C43.5764 137.088 43.7163 137.018 43.8773 136.99C44.0415 136.962 44.1875 136.984 44.3154 137.057C44.4427 137.126 44.5403 137.238 44.6081 137.392C44.6815 137.213 44.7777 137.068 44.8968 136.956C45.0185 136.84 45.1615 136.768 45.3257 136.74ZM48.0725 136.264C48.3714 136.212 48.6232 136.287 48.828 136.488C49.0327 136.689 49.1727 137.003 49.248 137.43C49.3216 137.847 49.2927 138.192 49.1615 138.465C49.0336 138.738 48.8153 138.901 48.5065 138.954C48.3522 138.981 48.2048 138.971 48.0646 138.924C47.9276 138.877 47.8063 138.803 47.7006 138.703L47.7284 139.033L47.4772 139.077L46.8378 135.453L47.1174 135.369L47.372 136.811C47.527 136.5 47.7605 136.318 48.0725 136.264ZM48.4106 138.727C48.6438 138.687 48.8063 138.562 48.8981 138.353C48.9926 138.141 49.0074 137.851 48.9426 137.483C48.814 136.754 48.5182 136.43 48.0551 136.51C47.9007 136.537 47.7746 136.6 47.6769 136.698C47.5785 136.792 47.4925 136.919 47.4189 137.077L47.6578 138.431C47.7625 138.545 47.879 138.63 48.0072 138.685C48.1349 138.738 48.2694 138.752 48.4106 138.727ZM51.9235 136.88C51.9362 136.953 51.9451 137.022 51.9501 137.089L50.2307 137.387C50.3062 137.719 50.429 137.955 50.5992 138.094C50.7721 138.23 50.9752 138.278 51.2084 138.237C51.343 138.214 51.4578 138.174 51.5527 138.117C51.6502 138.056 51.752 137.971 51.8578 137.861L52.023 138.02C51.9134 138.147 51.796 138.249 51.6706 138.325C51.5452 138.401 51.4004 138.453 51.2361 138.481C50.8946 138.54 50.6063 138.47 50.3714 138.271C50.1365 138.071 49.9826 137.765 49.9096 137.351C49.8616 137.079 49.8606 136.834 49.9068 136.616C49.9557 136.394 50.0475 136.214 50.1822 136.076C50.3196 135.934 50.4917 135.845 50.6987 135.809C51.0271 135.752 51.2964 135.82 51.5066 136.014C51.7162 136.204 51.8551 136.493 51.9235 136.88ZM51.627 136.841C51.5761 136.552 51.4756 136.337 51.3257 136.198C51.1785 136.054 50.9867 136.003 50.7502 136.043C50.5367 136.08 50.3788 136.192 50.2763 136.379C50.1739 136.566 50.1457 136.828 50.1916 137.165L51.64 136.914L51.627 136.841ZM53.5173 135.321C53.6192 135.303 53.7063 135.298 53.7787 135.306L53.7723 135.586C53.6966 135.579 53.6193 135.582 53.5405 135.596C53.3664 135.626 53.2365 135.714 53.1507 135.861C53.0676 136.004 53.0137 136.216 52.9889 136.498L53.2669 138.074L52.9811 138.123L52.5268 135.548L52.7731 135.505L52.8994 136.077C52.9307 135.852 52.9965 135.678 53.0968 135.556C53.1998 135.43 53.34 135.351 53.5173 135.321ZM56.1072 137.155C56.1762 137.143 56.2361 137.157 56.2869 137.195C56.3404 137.23 56.373 137.28 56.3845 137.346C56.3967 137.415 56.3838 137.476 56.346 137.53C56.3108 137.58 56.2587 137.611 56.1898 137.623C56.1241 137.635 56.0642 137.621 56.0101 137.583C55.956 137.545 55.9232 137.493 55.9116 137.428C55.9 137.362 55.9134 137.304 55.9519 137.253C55.9898 137.199 56.0415 137.167 56.1072 137.155ZM55.7684 135.235C55.8374 135.223 55.8973 135.236 55.9481 135.275C56.0016 135.31 56.0342 135.36 56.0457 135.426C56.0579 135.494 56.045 135.556 56.0072 135.61C55.972 135.66 55.9199 135.691 55.851 135.703C55.7853 135.714 55.7254 135.701 55.6713 135.663C55.6172 135.625 55.5844 135.573 55.5728 135.507C55.5612 135.442 55.5746 135.384 55.6131 135.333C55.651 135.279 55.7027 135.246 55.7684 135.235ZM58.9296 133.718L59.5073 136.993L59.2216 137.042L58.6995 134.083L57.9801 134.725L57.8097 134.536L58.6833 133.761L58.9296 133.718ZM60.6251 133.369C60.901 133.321 61.1336 133.364 61.3229 133.497C61.5155 133.629 61.6341 133.822 61.6787 134.074C61.7163 134.288 61.7073 134.496 61.6516 134.698C61.596 134.901 61.4926 135.13 61.3415 135.386C61.1936 135.642 60.9486 136.028 60.6064 136.544L62.1583 136.275L62.1632 136.533L60.3157 136.853L60.2731 136.611C60.6385 136.054 60.8979 135.644 61.0511 135.381C61.207 135.113 61.3097 134.889 61.359 134.708C61.4109 134.523 61.4199 134.334 61.3857 134.14C61.3515 133.947 61.2668 133.802 61.1316 133.707C60.9997 133.612 60.8401 133.58 60.6529 133.613C60.5018 133.639 60.3726 133.693 60.2654 133.776C60.1614 133.858 60.0679 133.971 59.9848 134.114L59.7617 134C59.8647 133.817 59.9851 133.674 60.1228 133.572C60.2639 133.47 60.4313 133.402 60.6251 133.369ZM62.9388 132.968C63.1227 132.936 63.2884 132.945 63.4358 132.994C63.5865 133.042 63.7089 133.122 63.8032 133.234C63.8969 133.343 63.9574 133.475 63.9846 133.629C64.0222 133.843 63.9921 134.027 63.8944 134.183C63.7993 134.334 63.6594 134.443 63.4747 134.509C63.6899 134.482 63.8793 134.529 64.0427 134.649C64.2088 134.766 64.3139 134.949 64.3579 135.198C64.3915 135.389 64.3786 135.565 64.3193 135.728C64.26 135.89 64.1574 136.028 64.0115 136.141C63.8683 136.251 63.6933 136.323 63.4863 136.359C63.1053 136.425 62.7668 136.338 62.4706 136.099L62.6243 135.905C62.7574 136.007 62.8879 136.076 63.016 136.111C63.1468 136.142 63.2861 136.145 63.4339 136.12C63.6704 136.079 63.8441 135.979 63.955 135.821C64.0659 135.663 64.102 135.475 64.0632 135.255C63.9821 134.795 63.6952 134.608 63.2026 134.693L62.9858 134.731L62.9844 134.493L63.142 134.465C63.3292 134.433 63.4787 134.349 63.5904 134.215C63.7015 134.077 63.7385 133.904 63.7014 133.693C63.6696 133.513 63.5869 133.38 63.4534 133.295C63.3194 133.207 63.1571 133.179 62.9666 133.212C62.8286 133.236 62.7065 133.282 62.6003 133.351C62.4934 133.417 62.3904 133.515 62.2913 133.643L62.1073 133.493C62.2167 133.345 62.3384 133.229 62.4725 133.145C62.606 133.058 62.7614 132.999 62.9388 132.968ZM65.2677 135.569C65.3367 135.557 65.3966 135.57 65.4474 135.609C65.5009 135.643 65.5334 135.693 65.545 135.759C65.5572 135.828 65.5443 135.889 65.5064 135.943C65.4713 135.993 65.4192 136.024 65.3502 136.036C65.2845 136.048 65.2246 136.034 65.1705 135.996C65.1165 135.958 65.0836 135.907 65.072 135.841C65.0605 135.775 65.0739 135.717 65.1123 135.667C65.1502 135.613 65.202 135.58 65.2677 135.569ZM67.8321 134.419L67.8738 134.655L67.4304 134.732L67.5825 135.594L67.3017 135.643L67.1496 134.781L65.716 135.029L65.6786 134.817L66.2809 132.389L66.5396 132.446L65.9797 134.74L67.1079 134.545L66.973 133.578L67.2193 133.536L67.3887 134.496L67.8321 134.419ZM69.6074 132.112L68.2772 132.343L68.4744 133.46C68.6371 133.327 68.8153 133.244 69.0091 133.21C69.2916 133.162 69.5311 133.215 69.7278 133.37C69.9271 133.522 70.0546 133.755 70.1102 134.07C70.1479 134.283 70.1374 134.483 70.0788 134.669C70.023 134.851 69.923 135.004 69.7788 135.127C69.6374 135.246 69.4616 135.324 69.2514 135.361C68.8868 135.424 68.5549 135.346 68.2557 135.127L68.4026 134.924C68.5274 135.018 68.6536 135.08 68.7811 135.112C68.9086 135.144 69.0512 135.147 69.2088 135.119C69.442 135.079 69.6123 134.97 69.7198 134.792C69.8266 134.611 69.8563 134.386 69.8088 134.117C69.7625 133.855 69.6656 133.67 69.5182 133.564C69.3735 133.453 69.1961 133.417 68.9859 133.453C68.8808 133.471 68.7895 133.501 68.712 133.541C68.6373 133.578 68.5555 133.632 68.4668 133.705L68.2402 133.745L67.9596 132.154L69.61 131.868L69.6074 132.112ZM71.631 132.695C71.8839 132.652 72.1081 132.704 72.3036 132.853C72.4985 132.998 72.6255 133.239 72.6846 133.573C72.7257 133.806 72.7192 134.019 72.6651 134.211C72.6137 134.399 72.5225 134.554 72.3915 134.675C72.2632 134.792 72.107 134.866 71.9231 134.898C71.5618 134.96 71.2731 134.868 71.057 134.622C70.8435 134.371 70.6957 134.013 70.6134 133.547C70.5468 133.169 70.5365 132.833 70.5825 132.537C70.6286 132.241 70.7272 132.005 70.8785 131.826C71.0292 131.644 71.2261 131.532 71.4692 131.49C71.6892 131.452 71.9042 131.481 72.114 131.577L72.0255 131.795C71.8499 131.72 71.6767 131.698 71.5059 131.728C71.2399 131.774 71.0515 131.943 70.9408 132.236C70.83 132.53 70.8077 132.892 70.8737 133.324C71.037 132.964 71.2894 132.755 71.631 132.695ZM71.8814 134.661C72.0982 134.624 72.2496 134.513 72.3356 134.329C72.4243 134.141 72.4443 133.909 72.3956 133.634C72.3476 133.361 72.2545 133.169 72.1164 133.058C71.9815 132.946 71.8205 132.906 71.6333 132.939C71.4691 132.967 71.3267 133.042 71.2061 133.165C71.0882 133.283 70.9948 133.435 70.9258 133.619C71.0028 133.998 71.1181 134.278 71.2717 134.458C71.4253 134.637 71.6285 134.705 71.8814 134.661ZM73.5669 134.131C73.6359 134.119 73.6958 134.132 73.7466 134.171C73.8001 134.206 73.8327 134.256 73.8443 134.321C73.8564 134.39 73.8436 134.452 73.8057 134.506C73.7705 134.556 73.7184 134.587 73.6495 134.599C73.5838 134.61 73.5239 134.597 73.4698 134.559C73.4157 134.521 73.3829 134.469 73.3713 134.403C73.3597 134.338 73.3731 134.28 73.4116 134.229C73.4495 134.175 73.5013 134.142 73.5669 134.131ZM75.5503 130.839L75.5894 131.061L74.8442 134.377L74.5625 134.334L75.2973 131.132L73.7651 131.397L73.7225 131.156L75.5503 130.839ZM77.542 132.082C77.8129 132.14 78.018 132.228 78.1572 132.346C78.2992 132.46 78.389 132.624 78.4267 132.838C78.4585 133.018 78.4407 133.185 78.373 133.339C78.3081 133.489 78.2002 133.616 78.0493 133.72C77.9016 133.823 77.7227 133.893 77.5125 133.93C77.3023 133.966 77.1101 133.96 76.9358 133.913C76.7649 133.865 76.6232 133.781 76.5107 133.662C76.401 133.539 76.3305 133.388 76.2993 133.211C76.2251 132.791 76.4064 132.447 76.843 132.178C76.6336 132.123 76.4728 132.046 76.3606 131.947C76.251 131.844 76.1804 131.703 76.1485 131.522C76.119 131.355 76.1359 131.201 76.1993 131.062C76.2627 130.922 76.3595 130.809 76.4897 130.722C76.6193 130.632 76.7646 130.573 76.9256 130.545C77.0865 130.517 77.2431 130.522 77.3953 130.56C77.5476 130.598 77.6771 130.67 77.7839 130.777C77.894 130.883 77.9644 131.023 77.9951 131.197C78.0252 131.368 78.0037 131.524 77.9304 131.665C77.8566 131.803 77.7271 131.942 77.542 132.082ZM76.4351 131.478C76.4629 131.635 76.5293 131.752 76.6342 131.829C76.7423 131.905 76.9153 131.964 77.1532 132.008L77.3154 132.035C77.482 131.905 77.5954 131.781 77.6557 131.662C77.7193 131.543 77.7378 131.408 77.7111 131.257C77.6781 131.069 77.5932 130.934 77.4564 130.849C77.3229 130.764 77.1593 130.738 76.9655 130.772C76.7783 130.804 76.6349 130.883 76.5352 131.009C76.4354 131.134 76.4021 131.29 76.4351 131.478ZM77.4749 133.687C77.7081 133.647 77.8835 133.557 78.0012 133.419C78.1216 133.276 78.1632 133.1 78.1262 132.89C78.103 132.758 78.0593 132.654 77.9949 132.577C77.93 132.497 77.8412 132.435 77.7283 132.39C77.6149 132.342 77.4602 132.3 77.2641 132.263L77.0853 132.228C76.8803 132.351 76.7388 132.489 76.6607 132.641C76.5853 132.789 76.565 132.962 76.5998 133.159C76.6368 133.369 76.7345 133.52 76.8927 133.611C77.0509 133.702 77.245 133.727 77.4749 133.687ZM79.4161 130.114C79.7479 130.056 80.0164 130.13 80.2217 130.334C80.4298 130.535 80.5706 130.844 80.6441 131.261C80.7188 131.684 80.7192 132.041 80.6451 132.331C80.5711 132.622 80.43 132.868 80.2219 133.07C80.0171 133.271 79.733 133.464 79.3696 133.649L79.2566 133.44C79.6855 133.223 79.9971 132.975 80.1913 132.694C80.3888 132.413 80.4622 132.062 80.4117 131.641C80.3386 131.803 80.2404 131.936 80.1169 132.042C79.9928 132.145 79.8487 132.211 79.6845 132.239C79.5137 132.269 79.3537 132.254 79.2046 132.195C79.0549 132.133 78.927 132.032 78.8209 131.891C78.7176 131.747 78.6474 131.57 78.6103 131.36C78.5721 131.143 78.5815 130.947 78.6385 130.771C78.6983 130.592 78.7961 130.446 78.9322 130.335C79.0676 130.22 79.2289 130.146 79.4161 130.114ZM79.6921 131.994C79.8464 131.967 79.9771 131.903 80.0842 131.799C80.1939 131.692 80.2872 131.549 80.3639 131.37C80.2983 130.979 80.1934 130.701 80.0493 130.537C79.9046 130.369 79.7107 130.306 79.4677 130.348C79.2476 130.386 79.0866 130.49 78.9846 130.66C78.8852 130.826 78.8593 131.044 78.9068 131.313C78.9514 131.566 79.0433 131.751 79.1826 131.869C79.3252 131.987 79.495 132.028 79.6921 131.994ZM32.8097 144.231C33.2761 144.15 33.6747 144.203 34.0054 144.389C34.3394 144.575 34.5623 144.984 34.6741 145.618C34.7859 146.251 34.7165 146.722 34.4661 147.029C34.2184 147.332 33.8827 147.521 33.459 147.594L32.7348 147.72L32.1397 144.347L32.8097 144.231ZM32.4787 144.542L32.9869 147.422L33.4353 147.345C34.2268 147.207 34.5363 146.65 34.3637 145.672C34.2954 145.284 34.1855 144.997 34.034 144.81C33.8826 144.623 33.7121 144.511 33.5226 144.473C33.3358 144.431 33.1258 144.43 32.8926 144.47L32.4787 144.542ZM36.3958 143.554C36.6717 143.506 36.925 143.531 37.1556 143.63C37.3857 143.726 37.5814 143.895 37.7427 144.137C37.904 144.38 38.0173 144.687 38.0828 145.058C38.1471 145.422 38.1449 145.746 38.0763 146.028C38.0104 146.307 37.8861 146.533 37.7035 146.707C37.5203 146.877 37.2892 146.987 37.01 147.035C36.7374 147.082 36.4857 147.056 36.2551 146.958C36.0244 146.859 35.8287 146.69 35.668 146.45C35.5073 146.211 35.3945 145.907 35.3297 145.54C35.2654 145.175 35.2675 144.852 35.3362 144.569C35.4048 144.287 35.5304 144.059 35.713 143.885C35.8989 143.711 36.1265 143.6 36.3958 143.554ZM36.4401 143.805C36.1117 143.862 35.8745 144.033 35.7286 144.319C35.5821 144.601 35.5526 144.99 35.64 145.486C35.7263 145.975 35.8867 146.328 36.1212 146.544C36.359 146.76 36.6405 146.84 36.9657 146.784C37.304 146.725 37.545 146.557 37.6888 146.278C37.832 145.996 37.8599 145.607 37.7724 145.112C37.6844 144.613 37.5234 144.257 37.2895 144.043C37.0582 143.826 36.7751 143.747 36.4401 143.805ZM40.2934 144.568C40.5279 144.555 40.7296 144.604 40.8984 144.717C41.0667 144.827 41.1746 145.016 41.2221 145.285C41.2777 145.6 41.2123 145.854 41.0261 146.045C40.8398 146.236 40.5562 146.365 40.1752 146.431L39.2539 146.59L38.6588 143.217L39.4126 143.087C39.8034 143.019 40.1164 143.038 40.3515 143.142C40.5899 143.247 40.7337 143.438 40.783 143.717C40.8194 143.924 40.7915 144.101 40.6991 144.249C40.61 144.397 40.4748 144.503 40.2934 144.568ZM38.9979 143.412L39.2159 144.648L39.8958 144.531C40.106 144.494 40.2656 144.411 40.3746 144.28C40.483 144.146 40.5201 143.983 40.4859 143.789C40.4471 143.569 40.3438 143.425 40.1759 143.356C40.0113 143.286 39.7812 143.277 39.4856 143.328L38.9979 143.412ZM40.1317 146.185C40.7361 146.08 40.9977 145.798 40.9166 145.338C40.8738 145.095 40.7664 144.928 40.5944 144.836C40.4258 144.743 40.2183 144.718 39.972 144.761L39.2576 144.885L39.5061 146.293L40.1317 146.185ZM43.4619 145.435C43.5309 145.423 43.5908 145.437 43.6416 145.475C43.6951 145.51 43.7277 145.56 43.7392 145.626C43.7514 145.695 43.7386 145.756 43.7007 145.81C43.6655 145.86 43.6134 145.891 43.5445 145.903C43.4788 145.914 43.4189 145.901 43.3648 145.863C43.3107 145.825 43.2779 145.773 43.2663 145.708C43.2547 145.642 43.2681 145.584 43.3066 145.533C43.3445 145.479 43.3962 145.447 43.4619 145.435ZM43.1231 143.515C43.1921 143.503 43.252 143.516 43.3028 143.555C43.3563 143.59 43.3889 143.64 43.4004 143.705C43.4126 143.774 43.3998 143.836 43.3619 143.89C43.3267 143.94 43.2746 143.971 43.2057 143.983C43.14 143.994 43.0801 143.981 43.026 143.943C42.9719 143.905 42.9391 143.853 42.9275 143.787C42.9159 143.722 42.9293 143.663 42.9678 143.613C43.0057 143.559 43.0574 143.526 43.1231 143.515ZM48.877 144.923L48.5912 144.973L48.1536 143.384C47.9806 142.768 47.8516 142.286 47.7666 141.939L47.3927 144.77L47.1119 144.818L45.7615 142.287C45.8012 142.608 45.8428 143.035 45.8862 143.569L45.9053 143.764L46.0442 145.414L45.7634 145.463L45.4885 142.034L45.8974 141.964L47.198 144.443L47.5429 141.679L47.9568 141.607L48.877 144.923ZM52.6682 144.267L52.3824 144.316L51.9448 142.728C51.7718 142.111 51.6428 141.63 51.5578 141.282L51.1839 144.113L50.9031 144.161L49.5527 141.63C49.5924 141.951 49.634 142.379 49.6774 142.912L49.6965 143.107L49.8354 144.757L49.5546 144.806L49.2797 141.378L49.6886 141.307L50.9892 143.786L51.3341 141.022L51.748 140.95L52.6682 144.267ZM54.0375 139.955L54.2951 139.976L53.9253 144.556L53.6677 144.535L54.0375 139.955ZM56.1872 140.181C56.6536 140.1 57.0521 140.153 57.3828 140.339C57.7168 140.525 57.9397 140.935 58.0515 141.568C58.1633 142.202 58.094 142.672 57.8435 142.98C57.5958 143.283 57.2601 143.471 56.8364 143.545L56.1122 143.67L55.5171 140.297L56.1872 140.181ZM55.8562 140.492L56.3644 143.373L56.8127 143.295C57.6042 143.158 57.9137 142.6 57.7411 141.622C57.6728 141.235 57.5629 140.948 57.4115 140.761C57.26 140.574 57.0895 140.461 56.9 140.423C56.7132 140.381 56.5032 140.38 56.27 140.421L55.8562 140.492ZM59.3 139.642C59.7664 139.561 60.1649 139.614 60.4957 139.8C60.8297 139.986 61.0526 140.396 61.1643 141.029C61.2761 141.663 61.2068 142.133 60.9564 142.44C60.7086 142.744 60.3729 142.932 59.9493 143.005L59.225 143.131L58.63 139.758L59.3 139.642ZM58.969 139.953L59.4772 142.834L59.9255 142.756C60.7171 142.619 61.0265 142.061 60.854 141.083C60.7856 140.696 60.6757 140.408 60.5243 140.221C60.3729 140.035 60.2024 139.922 60.0128 139.884C59.826 139.842 59.616 139.841 59.3828 139.881L58.969 139.953ZM62.8227 138.433L63.0803 138.454L62.7105 143.035L62.4529 143.013L62.8227 138.433ZM66.2631 138.436L65.5563 140.674L65.7891 141.994L65.4935 142.045L65.2616 140.73L63.8195 138.859L64.1496 138.802L65.3723 140.437L65.9478 138.49L66.2631 138.436ZM68.5956 138.032L68.6045 138.284L67.2201 138.524L67.4417 139.779L68.6388 139.572L68.6823 139.818L67.4851 140.026L67.7283 141.404L69.1817 141.152L69.2251 141.399L67.4762 141.702L66.8811 138.329L68.5956 138.032ZM71.8398 140.946L71.3817 140.076L69.9629 140.322L69.8297 141.294L69.5292 141.346L70.0623 137.778L70.4318 137.714L72.1502 140.892L71.8398 140.946ZM70.0023 140.056L71.2586 139.839L70.2872 137.987L70.0023 140.056ZM73.4867 139.103L72.8118 139.22L73.0785 140.731L72.7829 140.782L72.1878 137.409L73.0056 137.268C73.807 137.129 74.2616 137.365 74.3693 137.975C74.4122 138.218 74.3823 138.423 74.2797 138.59C74.1771 138.756 74.0081 138.892 73.7728 138.997L74.9752 140.403L74.6255 140.463L73.4867 139.103ZM73.3309 138.881C73.8958 138.783 74.1368 138.499 74.054 138.03C74.0135 137.8 73.913 137.643 73.7527 137.56C73.5918 137.472 73.3537 137.456 73.0384 137.511L72.526 137.6L72.7692 138.978L73.3309 138.881ZM34.8966 149.959L34.9056 150.211L33.5212 150.45L33.7427 151.706L34.9399 151.499L34.9833 151.745L33.7862 151.952L34.0294 153.331L35.4828 153.079L35.5262 153.325L33.7772 153.628L33.1822 150.256L34.8966 149.959ZM38.2742 150.14C38.4811 150.104 38.6562 150.146 38.7993 150.267C38.9457 150.387 39.0404 150.569 39.0832 150.811L39.4081 152.653L39.1224 152.703L38.8044 150.9C38.7685 150.697 38.7028 150.554 38.6072 150.473C38.5142 150.387 38.3988 150.357 38.2609 150.38C38.1163 150.406 37.9947 150.474 37.896 150.586C37.7972 150.698 37.7087 150.848 37.6305 151.038L37.9597 152.904L37.674 152.953L37.356 151.151C37.3201 150.948 37.2543 150.805 37.1587 150.724C37.0658 150.638 36.9504 150.607 36.8124 150.631C36.6646 150.657 36.5414 150.726 36.4426 150.838C36.3439 150.949 36.257 151.1 36.182 151.289L36.5113 153.155L36.2255 153.204L35.7712 150.629L36.0175 150.586L36.1195 151.02C36.1908 150.849 36.2863 150.709 36.4059 150.6C36.5249 150.488 36.6649 150.418 36.8258 150.391C36.99 150.362 37.1361 150.384 37.264 150.457C37.3913 150.526 37.4888 150.638 37.5566 150.792C37.63 150.613 37.7263 150.468 37.8453 150.356C37.967 150.24 38.11 150.168 38.2742 150.14ZM41.9261 151.628C41.9498 151.763 41.9833 151.857 42.0266 151.91C42.0731 151.963 42.1368 151.998 42.2176 152.014L42.1891 152.227C42.0668 152.225 41.967 152.196 41.8898 152.142C41.8158 152.087 41.7571 151.994 41.7136 151.863C41.5872 152.183 41.345 152.373 40.987 152.435C40.7407 152.478 40.5331 152.443 40.3643 152.33C40.1981 152.213 40.0945 152.039 40.0534 151.805C40.0065 151.54 40.0639 151.318 40.2256 151.141C40.3906 150.964 40.6406 150.846 40.9757 150.788L41.4683 150.703L41.424 150.452C41.3875 150.245 41.3152 150.103 41.207 150.027C41.0983 149.948 40.9371 149.927 40.7236 149.964C40.5266 149.998 40.3021 150.088 40.0501 150.233L39.938 150.029C40.2068 149.864 40.4676 149.76 40.7205 149.716C41.2821 149.619 41.611 149.842 41.7072 150.387L41.9261 151.628ZM40.9955 152.195C41.3042 152.142 41.5157 151.95 41.6299 151.619L41.5048 150.91L41.0565 150.987C40.7937 151.033 40.6024 151.118 40.4824 151.244C40.3624 151.37 40.3203 151.534 40.3562 151.738C40.3875 151.915 40.4592 152.043 40.5712 152.122C40.6833 152.2 40.8247 152.225 40.9955 152.195ZM42.8984 149.394L43.3528 151.97L43.067 152.019L42.6127 149.444L42.8984 149.394ZM42.5508 148.288C42.6165 148.276 42.6725 148.287 42.7189 148.319C42.7653 148.352 42.7936 148.398 42.8041 148.457C42.8145 148.516 42.8035 148.569 42.771 148.615C42.7386 148.661 42.6895 148.69 42.6238 148.701C42.5614 148.712 42.507 148.701 42.4606 148.669C42.4143 148.636 42.3859 148.59 42.3755 148.531C42.365 148.472 42.376 148.419 42.4085 148.373C42.441 148.327 42.4884 148.298 42.5508 148.288ZM44.8331 151.769C44.6918 151.794 44.5729 151.772 44.4763 151.704C44.383 151.636 44.3222 151.521 44.2938 151.36L43.7309 148.169L44.0105 148.085L44.5778 151.301C44.6074 151.468 44.6911 151.54 44.829 151.516C44.898 151.504 44.9551 151.482 45.0003 151.451L45.1165 151.649C45.0326 151.711 44.9382 151.751 44.8331 151.769ZM47.0832 150.897C47.1522 150.885 47.212 150.899 47.2629 150.937C47.3164 150.972 47.3489 151.022 47.3605 151.088C47.3727 151.157 47.3598 151.218 47.3219 151.272C47.2868 151.322 47.2347 151.353 47.1657 151.365C47.1 151.376 47.0401 151.363 46.986 151.325C46.932 151.287 46.8991 151.235 46.8875 151.17C46.876 151.104 46.8894 151.046 46.9278 150.995C46.9657 150.941 47.0175 150.909 47.0832 150.897ZM46.7444 148.977C46.8134 148.965 46.8732 148.978 46.9241 149.017C46.9776 149.052 47.0101 149.102 47.0217 149.167C47.0339 149.236 47.021 149.298 46.9831 149.352C46.948 149.402 46.8959 149.433 46.8269 149.445C46.7612 149.456 46.7013 149.443 46.6472 149.405C46.5932 149.367 46.5603 149.315 46.5487 149.249C46.5372 149.184 46.5506 149.126 46.589 149.075C46.6269 149.021 46.6787 148.988 46.7444 148.977ZM50.0051 150.873C49.8638 150.898 49.7449 150.876 49.6483 150.808C49.555 150.74 49.4942 150.625 49.4658 150.464L48.9029 147.274L49.1825 147.19L49.7498 150.405C49.7794 150.572 49.8631 150.644 50.001 150.62C50.07 150.608 50.1271 150.586 50.1723 150.555L50.2885 150.753C50.2046 150.815 50.1102 150.855 50.0051 150.873ZM51.3658 147.872C51.7074 147.813 51.9943 147.885 52.2264 148.088C52.4613 148.288 52.6159 148.598 52.69 149.018C52.7635 149.435 52.7232 149.782 52.569 150.059C52.4175 150.332 52.1726 150.498 51.8343 150.556C51.4927 150.615 51.2042 150.544 50.9687 150.341C50.7359 150.134 50.5828 149.823 50.5092 149.406C50.4612 149.133 50.4635 148.887 50.5163 148.669C50.5691 148.45 50.668 148.272 50.8131 148.135C50.9582 147.998 51.1424 147.911 51.3658 147.872ZM51.4084 148.113C51.1587 148.156 50.9815 148.284 50.8765 148.495C50.7716 148.706 50.751 148.992 50.8147 149.353C50.8778 149.711 50.9932 149.971 51.1609 150.135C51.3318 150.298 51.5421 150.358 51.7917 150.315C52.0414 150.272 52.2186 150.145 52.3236 149.934C52.4318 149.722 52.4538 149.434 52.3895 149.07C52.3263 148.712 52.2096 148.453 52.0392 148.293C51.8715 148.129 51.6613 148.069 51.4084 148.113ZM54.2936 147.365C54.3954 147.347 54.4826 147.342 54.555 147.35L54.5486 147.63C54.4729 147.623 54.3956 147.626 54.3168 147.64C54.1427 147.67 54.0128 147.758 53.927 147.905C53.8439 148.048 53.7899 148.261 53.7652 148.542L54.0432 150.118L53.7574 150.167L53.3031 147.592L53.5494 147.549L53.6757 148.121C53.707 147.896 53.7728 147.722 53.8731 147.6C53.9761 147.474 54.1163 147.395 54.2936 147.365ZM57.0298 148.175C57.0425 148.247 57.0514 148.316 57.0564 148.383L55.337 148.681C55.4125 149.013 55.5354 149.249 55.7056 149.388C55.8785 149.524 56.0815 149.572 56.3147 149.532C56.4494 149.508 56.5641 149.468 56.659 149.411C56.7566 149.35 56.8583 149.265 56.9642 149.155L57.1293 149.314C57.0198 149.442 56.9023 149.543 56.7769 149.619C56.6515 149.695 56.5067 149.747 56.3425 149.775C56.0009 149.835 55.7127 149.764 55.4778 149.565C55.2429 149.365 55.0889 149.059 55.016 148.645C54.9679 148.373 54.967 148.128 55.0132 147.91C55.0621 147.688 55.1539 147.508 55.2885 147.37C55.4259 147.228 55.5981 147.139 55.805 147.103C56.1334 147.046 56.4027 147.114 56.6129 147.308C56.8225 147.498 56.9615 147.787 57.0298 148.175ZM56.7334 148.135C56.6824 147.846 56.582 147.631 56.4321 147.492C56.2849 147.348 56.093 147.297 55.8565 147.338C55.6431 147.375 55.4851 147.487 55.3827 147.673C55.2803 147.86 55.252 148.122 55.298 148.459L56.7464 148.208L56.7334 148.135ZM60.1362 146.353C60.3431 146.317 60.5181 146.359 60.6612 146.48C60.8077 146.6 60.9023 146.782 60.9452 147.024L61.2701 148.866L60.9843 148.916L60.6664 147.113C60.6305 146.91 60.5647 146.767 60.4691 146.686C60.3762 146.6 60.2607 146.57 60.1228 146.593C59.9783 146.619 59.8566 146.687 59.7579 146.799C59.6592 146.911 59.5707 147.061 59.4924 147.251L59.8216 149.117L59.5359 149.166L59.2179 147.364C59.182 147.161 59.1163 147.018 59.0207 146.937C58.9277 146.851 58.8123 146.821 58.6744 146.844C58.5266 146.87 58.4033 146.939 58.3046 147.051C58.2058 147.162 58.119 147.313 58.044 147.502L58.3732 149.368L58.0875 149.417L57.6331 146.842L57.8795 146.799L57.9814 147.233C58.0527 147.062 58.1482 146.922 58.2678 146.813C58.3868 146.701 58.5268 146.631 58.6877 146.604C58.8519 146.575 58.998 146.597 59.1259 146.67C59.2532 146.739 59.3507 146.851 59.4185 147.005C59.492 146.826 59.5882 146.681 59.7072 146.569C59.829 146.453 59.9719 146.381 60.1362 146.353ZM63.7522 144.904C64.1791 144.83 64.5591 144.854 64.8919 144.976C65.2281 145.097 65.4988 145.288 65.7041 145.551C65.9095 145.813 66.0428 146.118 66.1042 146.466C66.1876 146.938 66.1692 147.314 66.049 147.592C65.9288 147.87 65.7357 148.032 65.4696 148.078C65.3054 148.106 65.1634 148.078 65.0437 147.994C64.9239 147.91 64.8337 147.792 64.773 147.64C64.7297 147.817 64.6557 147.963 64.551 148.079C64.4495 148.195 64.3118 148.268 64.1377 148.298C63.9801 148.326 63.8297 148.308 63.6865 148.244C63.5466 148.181 63.4264 148.075 63.3258 147.926C63.2284 147.777 63.16 147.591 63.1207 147.368C63.0726 147.096 63.0767 146.86 63.1329 146.661C63.1919 146.458 63.2904 146.297 63.4286 146.178C63.5667 146.06 63.7343 145.983 63.9314 145.949C64.1777 145.906 64.4263 145.924 64.677 146.002L64.9012 147.273C64.977 147.703 65.1513 147.894 65.4239 147.847C65.6078 147.815 65.7372 147.695 65.812 147.486C65.8901 147.276 65.8912 146.956 65.8153 146.526C65.7585 146.204 65.6405 145.929 65.4613 145.699C65.2853 145.469 65.0548 145.304 64.7699 145.205C64.4849 145.105 64.1602 145.087 63.7956 145.15C63.4212 145.215 63.1064 145.359 62.8514 145.583C62.5996 145.806 62.4218 146.084 62.3181 146.416C62.2176 146.748 62.2006 147.103 62.2672 147.48C62.3361 147.871 62.4719 148.199 62.6745 148.465C62.8804 148.731 63.1388 148.92 63.4496 149.031C63.7638 149.143 64.1097 149.166 64.4874 149.1C64.806 149.045 65.1065 148.936 65.389 148.772L65.5086 148.989C65.3483 149.078 65.1952 149.15 65.0493 149.206C64.9034 149.262 64.7287 149.307 64.525 149.342C64.1046 149.415 63.7146 149.391 63.3548 149.271C62.9984 149.15 62.6993 148.942 62.4574 148.645C62.215 148.345 62.0547 147.974 61.9765 147.531C61.9024 147.111 61.9255 146.714 62.0459 146.342C62.1691 145.965 62.3775 145.65 62.6712 145.396C62.9681 145.142 63.3285 144.978 63.7522 144.904ZM64.1273 148.067C64.285 148.039 64.4074 147.966 64.4945 147.846C64.5811 147.722 64.6349 147.586 64.656 147.437L64.4362 146.191C64.2867 146.15 64.1347 146.142 63.9804 146.169C63.7406 146.21 63.5707 146.331 63.4706 146.531C63.3705 146.731 63.3491 146.994 63.4064 147.319C63.4551 147.594 63.543 147.796 63.6703 147.922C63.7976 148.049 63.95 148.097 64.1273 148.067ZM67.1419 145.195L67.5962 147.77L67.3105 147.82L66.8561 145.244L67.1419 145.195ZM66.7943 144.088C66.86 144.077 66.916 144.087 66.9623 144.12C67.0087 144.152 67.0371 144.198 67.0475 144.257C67.0579 144.316 67.0469 144.369 67.0145 144.415C66.982 144.461 66.9329 144.49 66.8672 144.502C66.8048 144.512 66.7505 144.502 66.7041 144.469C66.6577 144.436 66.6293 144.391 66.6189 144.332C66.6085 144.272 66.6195 144.22 66.652 144.174C66.6844 144.127 66.7319 144.099 66.7943 144.088ZM69.2386 144.776C69.5506 144.722 69.8044 144.798 69.9999 145.004C70.1981 145.207 70.3345 145.52 70.4092 145.943C70.4822 146.357 70.455 146.702 70.3276 146.977C70.203 147.249 69.983 147.413 69.6677 147.467C69.5133 147.494 69.3683 147.487 69.2324 147.446C69.0961 147.402 68.9756 147.333 68.8711 147.24L69.0952 148.51L68.8164 148.599L68.184 145.014L68.4303 144.972L68.521 145.342C68.5925 145.191 68.6889 145.066 68.8103 144.967C68.9349 144.867 69.0777 144.804 69.2386 144.776ZM69.571 147.235C69.8074 147.194 69.9716 147.069 70.0634 146.861C70.1552 146.652 70.1686 146.364 70.1038 145.996C69.9752 145.267 69.6826 144.943 69.2261 145.022C69.0717 145.048 68.944 145.111 68.843 145.21C68.7452 145.308 68.6576 145.435 68.5801 145.59L68.8216 146.959C69.0387 147.192 69.2885 147.284 69.571 147.235ZM71.6677 144.355C71.8286 144.327 71.9791 144.327 72.1192 144.353C72.2587 144.376 72.3992 144.425 72.5408 144.498L72.4408 144.708C72.3081 144.647 72.186 144.607 72.0745 144.589C71.9625 144.568 71.8441 144.568 71.7193 144.59C71.5485 144.619 71.4175 144.683 71.3263 144.78C71.2351 144.877 71.201 144.991 71.2242 145.122C71.2462 145.247 71.3076 145.336 71.4085 145.39C71.5126 145.443 71.6884 145.48 71.9359 145.501C72.2415 145.526 72.4685 145.585 72.6169 145.678C72.7685 145.77 72.8632 145.922 72.9008 146.136C72.9414 146.366 72.8848 146.563 72.7312 146.728C72.5776 146.894 72.3678 146.999 72.1017 147.046C71.9047 147.08 71.7273 147.082 71.5697 147.051C71.4115 147.018 71.2623 146.959 71.1223 146.875L71.2478 146.666C71.3789 146.738 71.5077 146.786 71.634 146.812C71.7631 146.834 71.9032 146.831 72.0542 146.805C72.2447 146.772 72.3899 146.703 72.4898 146.598C72.5924 146.489 72.6301 146.357 72.6029 146.203C72.5844 146.098 72.5496 146.016 72.4986 145.957C72.4476 145.898 72.3704 145.854 72.2671 145.824C72.1632 145.792 72.0149 145.767 71.8223 145.749C71.5369 145.724 71.3239 145.668 71.1833 145.581C71.0459 145.493 70.9613 145.359 70.9295 145.178C70.9069 145.05 70.9244 144.929 70.982 144.814C71.039 144.696 71.1266 144.598 71.2449 144.52C71.3658 144.438 71.5068 144.383 71.6677 144.355ZM75.5944 146.385L75.348 146.427L75.2525 145.972C75.1091 146.349 74.8584 146.568 74.5004 146.63C74.2672 146.67 74.0746 146.634 73.9228 146.522C73.7737 146.406 73.6768 146.221 73.6322 145.969L73.3073 144.127L73.5931 144.077L73.9128 145.889C73.9481 146.09 74.0152 146.23 74.1141 146.311C74.2157 146.388 74.3519 146.412 74.5227 146.383C74.8216 146.331 75.0419 146.112 75.1835 145.725L74.8543 143.859L75.14 143.809L75.5944 146.385ZM78.688 143.139C78.8949 143.103 79.0699 143.146 79.2131 143.266C79.3595 143.386 79.4542 143.568 79.497 143.811L79.8219 145.652L79.5362 145.702L79.2182 143.9C79.1823 143.696 79.1165 143.554 79.0209 143.472C78.928 143.387 78.8126 143.356 78.6746 143.38C78.5301 143.405 78.4085 143.473 78.3098 143.585C78.211 143.697 78.1225 143.848 78.0442 144.037L78.3735 145.903L78.0877 145.953L77.7698 144.151C77.7339 143.947 77.6681 143.805 77.5725 143.723C77.4796 143.638 77.3641 143.607 77.2262 143.631C77.0784 143.656 76.9551 143.725 76.8564 143.837C76.7577 143.949 76.6708 144.099 76.5958 144.288L76.9251 146.154L76.6393 146.204L76.185 143.628L76.4313 143.586L76.5333 144.02C76.6046 143.848 76.7 143.708 76.8196 143.6C76.9387 143.488 77.0786 143.418 77.2396 143.39C77.4038 143.362 77.5498 143.384 77.6777 143.456C77.805 143.525 77.9026 143.637 77.9704 143.791C78.0438 143.613 78.14 143.467 78.2591 143.355C78.3808 143.24 78.5238 143.168 78.688 143.139ZM80.7517 145.065C80.8207 145.053 80.8806 145.066 80.9314 145.105C80.9849 145.14 81.0174 145.19 81.029 145.256C81.0412 145.324 81.0283 145.386 80.9904 145.44C80.9553 145.49 80.9032 145.521 80.8342 145.533C80.7685 145.544 80.7087 145.531 80.6546 145.493C80.6005 145.455 80.5676 145.403 80.5561 145.337C80.5445 145.272 80.5579 145.214 80.5964 145.163C80.6342 145.109 80.686 145.076 80.7517 145.065ZM82.2293 142.526C82.3771 142.5 82.5122 142.499 82.6347 142.521C82.7566 142.541 82.8799 142.587 83.0045 142.66L82.8946 142.872C82.797 142.818 82.6994 142.782 82.6016 142.766C82.5072 142.748 82.4025 142.749 82.2875 142.769C82.0445 142.811 81.8675 142.94 81.7565 143.156C81.645 143.368 81.6211 143.654 81.6848 144.015C81.748 144.373 81.8661 144.63 82.0392 144.786C82.2155 144.942 82.4252 144.998 82.6683 144.956C82.7832 144.936 82.8835 144.9 82.9691 144.848C83.058 144.796 83.1437 144.725 83.2262 144.636L83.398 144.805C83.2137 145.026 82.9836 145.161 82.7077 145.208C82.4876 145.246 82.2862 145.227 82.1034 145.151C81.9207 145.074 81.766 144.945 81.6392 144.764C81.5152 144.579 81.4289 144.349 81.3803 144.073C81.3322 143.801 81.3345 143.555 81.3873 143.336C81.4428 143.114 81.5428 142.932 81.6873 142.792C81.8319 142.652 82.0125 142.563 82.2293 142.526ZM84.4618 142.139C84.8034 142.08 85.0902 142.152 85.3224 142.355C85.5573 142.555 85.7119 142.865 85.786 143.285C85.8595 143.702 85.8192 144.049 85.665 144.326C85.5135 144.599 85.2686 144.765 84.9303 144.823C84.5887 144.882 84.3002 144.811 84.0647 144.608C83.8319 144.401 83.6788 144.09 83.6052 143.673C83.5572 143.4 83.5595 143.154 83.6123 142.936C83.6651 142.717 83.764 142.539 83.9091 142.402C84.0542 142.265 84.2384 142.178 84.4618 142.139ZM84.5043 142.38C84.2547 142.423 84.0775 142.551 83.9725 142.762C83.8676 142.973 83.847 143.259 83.9107 143.62C83.9738 143.978 84.0892 144.238 84.2569 144.402C84.4278 144.565 84.6381 144.625 84.8877 144.582C85.1374 144.539 85.3146 144.412 85.4196 144.201C85.5278 143.989 85.5497 143.701 85.4855 143.337C85.4223 142.979 85.3056 142.72 85.1352 142.56C84.9675 142.396 84.7572 142.336 84.5043 142.38ZM88.9021 141.37C89.109 141.334 89.284 141.376 89.4272 141.497C89.5736 141.617 89.6683 141.799 89.7111 142.042L90.036 143.883L89.7503 143.933L89.4323 142.13C89.3964 141.927 89.3306 141.784 89.235 141.703C89.1421 141.617 89.0267 141.587 88.8887 141.611C88.7442 141.636 88.6226 141.704 88.5239 141.816C88.4251 141.928 88.3366 142.078 88.2583 142.268L88.5876 144.134L88.3018 144.183L87.9839 142.381C87.948 142.178 87.8822 142.035 87.7866 141.954C87.6937 141.868 87.5782 141.838 87.4403 141.861C87.2925 141.887 87.1692 141.956 87.0705 142.068C86.9718 142.179 86.8849 142.33 86.8099 142.519L87.1392 144.385L86.8534 144.434L86.3991 141.859L86.6454 141.816L86.7474 142.25C86.8187 142.079 86.9141 141.939 87.0337 141.83C87.1527 141.718 87.2927 141.649 87.4537 141.621C87.6179 141.592 87.7639 141.614 87.8918 141.687C88.0191 141.756 88.1167 141.868 88.1845 142.022C88.2579 141.843 88.3541 141.698 88.4732 141.586C88.5949 141.47 88.7379 141.398 88.9021 141.37ZM35.0178 156.027C35.4185 155.957 35.7404 155.988 35.9834 156.118C36.2291 156.245 36.3821 156.479 36.4423 156.82C36.506 157.181 36.4396 157.467 36.2431 157.677C36.0493 157.883 35.757 158.02 35.3662 158.088L34.8833 158.171L35.1153 159.486L34.8197 159.537L34.2246 156.164L35.0178 156.027ZM35.3236 157.846C35.629 157.793 35.8532 157.692 35.996 157.542C36.1387 157.392 36.1844 157.171 36.1328 156.879C36.0842 156.603 35.969 156.42 35.7872 156.33C35.6081 156.236 35.3642 156.215 35.0555 156.269L34.5628 156.354L34.8408 157.93L35.3236 157.846ZM38.1827 156.245C38.4126 156.205 38.6024 156.245 38.7521 156.364C38.9013 156.481 38.9976 156.662 39.041 156.908L39.3659 158.75L39.0802 158.799L38.7622 156.997C38.6921 156.6 38.4945 156.429 38.1694 156.486C38.0051 156.514 37.8671 156.585 37.7552 156.699C37.646 156.81 37.5493 156.962 37.4651 157.156L37.7943 159.022L37.5086 159.071L36.8692 155.447L37.1488 155.363L37.4155 156.875C37.5887 156.514 37.8444 156.303 38.1827 156.245ZM40.8085 155.79C41.1501 155.731 41.437 155.803 41.6692 156.006C41.9041 156.206 42.0586 156.516 42.1327 156.936C42.2063 157.353 42.166 157.7 42.0118 157.977C41.8603 158.25 41.6154 158.416 41.2771 158.474C40.9355 158.534 40.647 158.462 40.4115 158.259C40.1787 158.052 40.0255 157.741 39.952 157.324C39.9039 157.051 39.9063 156.806 39.959 156.587C40.0118 156.368 40.1108 156.19 40.2559 156.053C40.401 155.916 40.5852 155.829 40.8085 155.79ZM40.8511 156.031C40.6015 156.075 40.4242 156.202 40.3193 156.413C40.2143 156.624 40.1937 156.91 40.2574 157.271C40.3206 157.629 40.436 157.889 40.6036 158.053C40.7746 158.216 40.9849 158.276 41.2345 158.233C41.4841 158.19 41.6614 158.063 41.7663 157.852C41.8745 157.64 41.8965 157.352 41.8322 156.988C41.7691 156.63 41.6523 156.371 41.482 156.211C41.3143 156.047 41.104 155.987 40.8511 156.031ZM43.8743 155.259C44.1075 155.219 44.297 155.257 44.4429 155.374C44.592 155.49 44.6886 155.673 44.7326 155.922L45.0575 157.764L44.7718 157.813L44.4538 156.011C44.4173 155.804 44.3496 155.66 44.2507 155.579C44.1518 155.498 44.0219 155.472 43.861 155.5C43.6967 155.528 43.5587 155.599 43.4468 155.714C43.3376 155.824 43.2409 155.976 43.1567 156.17L43.4859 158.036L43.2002 158.085L42.7458 155.51L42.9922 155.468L43.099 155.901C43.1769 155.728 43.2806 155.587 43.41 155.476C43.5389 155.363 43.6937 155.29 43.8743 155.259ZM47.6609 155.887C47.6737 155.959 47.6825 156.029 47.6875 156.095L45.9682 156.393C46.0436 156.725 46.1665 156.961 46.3367 157.101C46.5096 157.236 46.7126 157.284 46.9458 157.244C47.0805 157.22 47.1952 157.18 47.2901 157.123C47.3877 157.062 47.4894 156.977 47.5953 156.867L47.7604 157.027C47.6509 157.154 47.5334 157.255 47.408 157.331C47.2826 157.407 47.1378 157.459 46.9736 157.488C46.632 157.547 46.3438 157.477 46.1089 157.277C45.874 157.078 45.72 156.771 45.6471 156.357C45.599 156.085 45.5981 155.84 45.6443 155.622C45.6932 155.401 45.785 155.221 45.9196 155.082C46.057 154.94 46.2292 154.851 46.4361 154.815C46.7645 154.758 47.0338 154.827 47.244 155.02C47.4536 155.211 47.5926 155.499 47.6609 155.887ZM47.3645 155.847C47.3135 155.558 47.2131 155.344 47.0632 155.204C46.916 155.06 46.7241 155.009 46.4876 155.05C46.2742 155.087 46.1162 155.199 46.0138 155.386C45.9114 155.573 45.8831 155.835 45.9291 156.172L47.3775 155.921L47.3645 155.847ZM50.0068 156.48C50.0758 156.468 50.1357 156.482 50.1865 156.52C50.24 156.555 50.2725 156.605 50.2841 156.671C50.2963 156.74 50.2834 156.801 50.2456 156.855C50.2104 156.905 50.1583 156.936 50.0893 156.948C50.0237 156.959 49.9638 156.946 49.9097 156.908C49.8556 156.87 49.8227 156.818 49.8112 156.753C49.7996 156.687 49.813 156.629 49.8515 156.578C49.8893 156.524 49.9411 156.492 50.0068 156.48ZM49.668 154.56C49.737 154.548 49.7969 154.561 49.8477 154.6C49.9012 154.634 49.9337 154.685 49.9453 154.75C49.9575 154.819 49.9446 154.881 49.9068 154.935C49.8716 154.985 49.8195 155.016 49.7505 155.028C49.6849 155.039 49.625 155.026 49.5709 154.988C49.5168 154.95 49.4839 154.898 49.4724 154.832C49.4608 154.767 49.4742 154.708 49.5127 154.658C49.5505 154.604 49.6023 154.571 49.668 154.56ZM52.8769 153.831L53.0089 154.58L53.7479 154.452L53.7914 154.698L53.0524 154.826L53.1844 155.574L52.9135 155.621L52.7814 154.873L52.0424 155.001L51.999 154.755L52.738 154.627L52.6059 153.878L52.8769 153.831ZM55.1655 152.582C55.5038 152.524 55.7855 152.624 56.0105 152.883C56.235 153.138 56.3961 153.543 56.494 154.098C56.5913 154.649 56.5768 155.085 56.4504 155.405C56.3267 155.72 56.0973 155.907 55.7623 155.965C55.424 156.024 55.1426 155.925 54.9182 155.67C54.6931 155.411 54.5317 155.005 54.4338 154.45C54.3359 153.895 54.3488 153.46 54.4725 153.144C54.5962 152.828 54.8272 152.641 55.1655 152.582ZM55.2072 152.819C54.7178 152.904 54.5586 153.43 54.7294 154.399C54.9008 155.37 55.2312 155.814 55.7206 155.729C55.9604 155.687 56.1202 155.538 56.2 155.28C56.2831 155.023 56.2809 154.646 56.1935 154.15C56.106 153.654 55.9791 153.299 55.8126 153.084C55.6488 152.866 55.447 152.777 55.2072 152.819ZM57.8742 152.113C58.2125 152.055 58.4942 152.155 58.7192 152.413C58.9437 152.669 59.1048 153.074 59.2027 153.629C59.3 154.18 59.2854 154.616 59.1591 154.935C59.0354 155.251 58.806 155.438 58.471 155.496C58.1327 155.555 57.8513 155.456 57.6269 155.201C57.4018 154.942 57.2404 154.535 57.1425 153.981C57.0446 153.426 57.0575 152.991 57.1812 152.675C57.3049 152.359 57.5359 152.172 57.8742 152.113ZM57.9159 152.35C57.4265 152.434 57.2672 152.961 57.4381 153.929C57.6095 154.901 57.9399 155.344 58.4293 155.26C58.6691 155.218 58.8289 155.069 58.9087 154.811C58.9918 154.553 58.9896 154.176 58.9022 153.681C58.8147 153.185 58.6877 152.83 58.5212 152.615C58.3574 152.397 58.1557 152.308 57.9159 152.35ZM60.5829 151.644C60.9212 151.585 61.2028 151.686 61.4279 151.944C61.6523 152.2 61.8135 152.605 61.9114 153.16C62.0087 153.711 61.9941 154.147 61.8677 154.466C61.744 154.782 61.5147 154.969 61.1797 155.027C60.8414 155.085 60.56 154.987 60.3356 154.732C60.1105 154.473 59.9491 154.066 59.8512 153.511C59.7533 152.957 59.7662 152.521 59.8899 152.206C60.0136 151.89 60.2446 151.703 60.5829 151.644ZM60.6246 151.88C60.1352 151.965 59.9759 152.492 60.1468 153.46C60.3182 154.432 60.6486 154.875 61.138 154.79C61.3778 154.749 61.5375 154.599 61.6174 154.342C61.7005 154.084 61.6983 153.707 61.6109 153.212C61.5234 152.716 61.3964 152.361 61.2299 152.146C61.0661 151.927 60.8643 151.839 60.6246 151.88ZM62.6088 153.262L62.5654 153.016L63.8709 152.79L63.9144 153.036L62.6088 153.262ZM65.269 150.832C65.6072 150.774 65.8889 150.874 66.114 151.132C66.3384 151.388 66.4996 151.793 66.5975 152.348C66.6948 152.899 66.6802 153.335 66.5538 153.654C66.4301 153.97 66.2008 154.157 65.8658 154.215C65.5275 154.274 65.2461 154.175 65.0216 153.92C64.7966 153.661 64.6351 153.254 64.5373 152.7C64.4394 152.145 64.4523 151.71 64.576 151.394C64.6997 151.078 64.9307 150.891 65.269 150.832ZM65.3106 151.069C64.8213 151.153 64.662 151.68 64.8329 152.648C65.0043 153.62 65.3347 154.063 65.8241 153.979C66.0638 153.937 66.2236 153.788 66.3034 153.53C66.3866 153.272 66.3844 152.896 66.2969 152.4C66.2095 151.904 66.0825 151.549 65.916 151.334C65.7522 151.116 65.5504 151.027 65.3106 151.069ZM67.9776 150.363C68.3159 150.305 68.5976 150.405 68.8226 150.663C69.0471 150.919 69.2083 151.324 69.3061 151.879C69.4034 152.43 69.3889 152.866 69.2625 153.185C69.1388 153.501 68.9095 153.688 68.5744 153.746C68.2361 153.804 67.9548 153.706 67.7303 153.451C67.5053 153.192 67.3438 152.785 67.2459 152.23C67.1481 151.676 67.161 151.24 67.2847 150.925C67.4083 150.609 67.6393 150.422 67.9776 150.363ZM68.0193 150.599C67.53 150.684 67.3707 151.211 67.5415 152.179C67.713 153.151 68.0434 153.594 68.5327 153.51C68.7725 153.468 68.9323 153.319 69.0121 153.061C69.0952 152.803 69.0931 152.426 69.0056 151.931C68.9182 151.435 68.7912 151.08 68.6247 150.865C68.4609 150.646 68.2591 150.558 68.0193 150.599ZM70.6863 149.894C71.0246 149.835 71.3063 149.935 71.5313 150.194C71.7558 150.45 71.9169 150.855 72.0148 151.409C72.1121 151.961 72.0976 152.396 71.9712 152.716C71.8475 153.032 71.6181 153.219 71.2831 153.277C70.9448 153.335 70.6635 153.237 70.439 152.981C70.214 152.723 70.0525 152.316 69.9546 151.761C69.8567 151.206 69.8697 150.771 69.9933 150.455C70.117 150.14 70.348 149.953 70.6863 149.894ZM70.728 150.13C70.2386 150.215 70.0794 150.742 70.2502 151.71C70.4216 152.682 70.7521 153.125 71.2414 153.04C71.4812 152.999 71.641 152.849 71.7208 152.592C71.8039 152.334 71.8018 151.957 71.7143 151.461C71.6268 150.966 71.4999 150.611 71.3334 150.396C71.1696 150.177 70.9678 150.089 70.728 150.13ZM72.7123 151.512L72.6688 151.266L73.9744 151.039L74.0178 151.286L72.7123 151.512ZM75.3724 149.082C75.7107 149.024 75.9924 149.124 76.2174 149.382C76.4419 149.638 76.603 150.043 76.7009 150.598C76.7982 151.149 76.7836 151.585 76.6573 151.904C76.5336 152.22 76.3042 152.407 75.9692 152.465C75.6309 152.524 75.3495 152.425 75.1251 152.17C74.9 151.911 74.7386 151.504 74.6407 150.949C74.5428 150.395 74.5557 149.959 74.6794 149.644C74.8031 149.328 75.0341 149.141 75.3724 149.082ZM75.4141 149.319C74.9247 149.403 74.7654 149.93 74.9363 150.898C75.1077 151.87 75.4381 152.313 75.9275 152.229C76.1673 152.187 76.3271 152.038 76.4069 151.78C76.49 151.522 76.4878 151.145 76.4004 150.65C76.3129 150.154 76.1859 149.799 76.0194 149.584C75.8556 149.366 75.6539 149.277 75.4141 149.319ZM78.0811 148.613C78.4194 148.554 78.701 148.654 78.9261 148.913C79.1505 149.169 79.3117 149.574 79.4096 150.128C79.5069 150.68 79.4923 151.115 79.3659 151.435C79.2422 151.751 79.0129 151.938 78.6779 151.996C78.3396 152.054 78.0582 151.956 77.8338 151.7C77.6087 151.442 77.4473 151.035 77.3494 150.48C77.2515 149.925 77.2644 149.49 77.3881 149.174C77.5118 148.859 77.7428 148.672 78.0811 148.613ZM78.1228 148.849C77.6334 148.934 77.4741 149.461 77.645 150.429C77.8164 151.401 78.1468 151.844 78.6362 151.759C78.876 151.718 79.0357 151.568 79.1156 151.311C79.1987 151.053 79.1965 150.676 79.1091 150.18C79.0216 149.685 78.8946 149.33 78.7281 149.115C78.5643 148.896 78.3625 148.808 78.1228 148.849Z" fill="#58595B"/>
</g>
<rect x="-1.74787" y="-1.20787" width="107.682" height="148.247" rx="6.5" transform="matrix(0.983996 -0.178189 0.181248 0.983437 3.43473 39.2503)" stroke="black" stroke-width="3"/>
<path d="M45.7708 161.889L47.823 173.549" stroke="#58595B" stroke-miterlimit="10"/>
<path d="M46.8285 161.707L48.8807 173.367" stroke="#58595B" stroke-width="0.5" stroke-miterlimit="10"/>
<path d="M47.8939 161.523L49.9461 173.183" stroke="#58595B" stroke-width="0.5" stroke-miterlimit="10"/>
<path d="M49.077 161.318L51.1292 172.978" stroke="#58595B" stroke-miterlimit="10"/>
<path d="M52.3911 160.745L54.4433 172.405" stroke="#58595B" stroke-miterlimit="10"/>
<path d="M50.5735 161.06L52.6257 172.72" stroke="#58595B" stroke-width="0.25" stroke-miterlimit="10"/>
<path d="M57.946 159.785L59.9983 171.445" stroke="#58595B" stroke-width="0.25" stroke-miterlimit="10"/>
<path d="M60.2258 159.391L62.278 171.051" stroke="#58595B" stroke-width="0.25" stroke-miterlimit="10"/>
<path d="M61.2915 159.208L63.3437 170.868" stroke="#58595B" stroke-width="0.25" stroke-miterlimit="10"/>
<path d="M84.1846 155.252L86.2368 166.912" stroke="#58595B" stroke-width="0.25" stroke-miterlimit="10"/>
<path d="M87.7886 154.629L89.8408 166.289" stroke="#58595B" stroke-width="0.25" stroke-miterlimit="10"/>
<path d="M94.3854 153.489L96.4376 165.149" stroke="#58595B" stroke-width="0.25" stroke-miterlimit="10"/>
<path d="M113.361 150.21L115.413 161.87" stroke="#58595B" stroke-width="0.25" stroke-miterlimit="10"/>
<path d="M89.7629 154.288L91.8152 165.948" stroke="#58595B" stroke-width="0.25" stroke-miterlimit="10"/>
<path d="M93.2571 153.684L95.3093 165.344" stroke="#58595B" stroke-width="0.25" stroke-miterlimit="10"/>
<path d="M111.073 150.605L113.126 162.265" stroke="#58595B" stroke-width="0.25" stroke-miterlimit="10"/>
<path d="M55.7053 160.173L57.7575 171.833" stroke="#58595B" stroke-width="3" stroke-miterlimit="10"/>
<path d="M59.0116 159.602L61.0638 171.262" stroke="#58595B" stroke-miterlimit="10"/>
<path d="M62.3256 159.029L64.3778 170.689" stroke="#58595B" stroke-miterlimit="10"/>
<path d="M65.6398 158.456L67.692 170.116" stroke="#58595B" stroke-width="4" stroke-miterlimit="10"/>
<path d="M68.9459 157.885L70.9981 169.545" stroke="#58595B" stroke-miterlimit="10"/>
<path d="M72.26 157.312L74.3122 168.972" stroke="#58595B" stroke-width="4" stroke-miterlimit="10"/>
<path d="M75.5742 156.739L77.6264 168.399" stroke="#58595B" stroke-width="0.75" stroke-miterlimit="10"/>
<path d="M78.8804 156.168L80.9326 167.828" stroke="#58595B" stroke-miterlimit="10"/>
<path d="M82.1946 155.595L84.2468 167.255" stroke="#58595B" stroke-width="3" stroke-miterlimit="10"/>
<path d="M85.5087 155.023L87.5609 166.683" stroke="#58595B" stroke-miterlimit="10"/>
<path d="M88.8148 154.451L90.867 166.111" stroke="#58595B" stroke-miterlimit="10"/>
<path d="M92.4581 153.822L94.5103 165.482" stroke="#58595B" stroke-width="0.5" stroke-miterlimit="10"/>
<path d="M86.6212 154.83L88.6734 166.49" stroke="#58595B" stroke-width="0.5" stroke-miterlimit="10"/>
<path d="M95.4431 153.306L97.4953 164.966" stroke="#58595B" stroke-miterlimit="10"/>
<path d="M91.5022 153.987L93.5544 165.647" stroke="#58595B" stroke-miterlimit="10"/>
<path d="M96.6027 153.105L98.6549 164.765" stroke="#58595B" stroke-width="0.5" stroke-miterlimit="10"/>
<path d="M90.6326 154.137L92.6848 165.797" stroke="#58595B" stroke-width="0.5" stroke-miterlimit="10"/>
<path d="M102.063 152.162L104.116 163.822" stroke="#58595B" stroke-miterlimit="10"/>
<path d="M105.378 151.589L107.43 163.249" stroke="#58595B" stroke-miterlimit="10"/>
<path d="M103.223 151.961L105.275 163.621" stroke="#58595B" stroke-miterlimit="10"/>
<path d="M108.684 151.018L110.736 162.678" stroke="#58595B" stroke-width="3" stroke-miterlimit="10"/>
<path d="M99.3213 152.636L101.374 164.296" stroke="#58595B" stroke-width="2" stroke-miterlimit="10"/>
<path d="M111.998 150.445L114.05 162.105" stroke="#58595B" stroke-miterlimit="10"/>
<path d="M115.312 149.873L117.364 161.533" stroke="#58595B" stroke-width="0.75" stroke-miterlimit="10"/>
<path d="M116.581 149.653L118.634 161.313" stroke="#58595B" stroke-miterlimit="10"/>
<path d="M19.5694 27.0122L16.6471 27.5172C16.0102 27.6217 15.3581 27.5674 14.7553 27.3597C14.1525 27.152 13.6196 26.798 13.2094 26.3327L11.331 24.1917C10.9189 23.7219 10.6459 23.1558 10.5393 22.55C10.4326 21.9442 10.4961 21.3199 10.7234 20.7397L11.7595 18.0951C11.9885 17.5212 12.3698 17.0112 12.8661 16.615C13.3625 16.2188 13.9568 15.95 14.5909 15.8349L17.5133 15.3299C18.1493 15.2263 18.8001 15.2802 19.4023 15.4865C20.0046 15.6928 20.5377 16.0444 20.9497 16.507L22.8607 18.6499C23.2727 19.1183 23.5455 19.6833 23.652 20.2879C23.7584 20.8926 23.6946 21.5157 23.467 22.0946L22.4309 24.7392C22.2019 25.3194 21.817 25.8349 21.3148 26.2338C20.8126 26.6327 20.2107 26.9012 19.5694 27.0122ZM14.9912 18.1091C14.7742 18.1479 14.5707 18.2394 14.4006 18.3745C14.2305 18.5096 14.0996 18.6837 14.0209 18.8798L12.9821 21.5096C12.9056 21.7064 12.8843 21.918 12.9205 22.1233C12.9566 22.3286 13.0489 22.5205 13.1881 22.68L15.0691 24.8358C15.2095 24.9954 15.392 25.117 15.5985 25.1884C15.805 25.2598 16.0285 25.2786 16.2468 25.2429L19.1692 24.7379C19.388 24.6986 19.5932 24.606 19.7645 24.4694C19.9358 24.3327 20.0673 24.1566 20.1461 23.9585L21.1822 21.3139C21.2587 21.1171 21.28 20.9056 21.2438 20.7002C21.2077 20.4949 21.1154 20.303 20.9762 20.1435L19.0978 18.0025C18.9558 17.8435 18.7718 17.723 18.5641 17.6531C18.3564 17.5833 18.1321 17.5664 17.9136 17.6042L14.9912 18.1091Z" fill="#F9FBFC"/>
<path d="M215.308 104.764L100.575 104.02L99.2915 302.154L214.025 302.897L215.308 104.764Z" fill="#66A9B9"/>
<path d="M213.281 91.7762L103.001 91.0619C101.712 91.0834 100.44 91.3593 99.2574 91.8738C98.0753 92.3882 97.0066 93.1311 96.1124 94.0598C95.2182 94.9885 94.5163 96.0846 94.047 97.2853C93.5777 98.486 93.3502 99.7676 93.3776 101.056L92.0689 303.105C92.0248 304.394 92.2357 305.678 92.6894 306.885C93.1431 308.092 93.8308 309.197 94.7128 310.137C95.5949 311.077 96.6539 311.834 97.8293 312.363C99.0046 312.893 100.273 313.186 101.562 313.224L211.842 313.938C213.131 313.917 214.403 313.641 215.585 313.126C216.767 312.612 217.836 311.869 218.73 310.94C219.624 310.012 220.326 308.915 220.796 307.715C221.265 306.514 221.492 305.232 221.465 303.944L222.774 101.895C222.818 100.606 222.607 99.3218 222.153 98.1151C221.7 96.9084 221.012 95.8033 220.13 94.8631C219.248 93.9229 218.189 93.1662 217.013 92.6365C215.838 92.1068 214.57 91.8144 213.281 91.7762ZM211.99 291.023L101.825 290.31L102.956 115.705L213.006 116.417L211.99 291.023Z" fill="#001C22"/>
<path d="M170.377 101.862L145.35 101.7C144.938 101.613 144.511 101.619 144.102 101.717C143.692 101.815 143.309 102.003 142.981 102.267C142.653 102.531 142.388 102.865 142.205 103.245C142.022 103.624 141.925 104.04 141.922 104.461C141.92 104.882 142.011 105.299 142.189 105.68C142.367 106.062 142.628 106.4 142.953 106.668C143.277 106.937 143.657 107.129 144.066 107.233C144.474 107.336 144.901 107.347 145.314 107.266L170.341 107.428C170.753 107.515 171.18 107.509 171.589 107.411C171.999 107.313 172.382 107.125 172.71 106.861C173.038 106.597 173.303 106.263 173.486 105.883C173.669 105.504 173.766 105.088 173.769 104.667C173.771 104.246 173.68 103.829 173.502 103.448C173.324 103.066 173.063 102.728 172.738 102.46C172.414 102.191 172.033 101.999 171.625 101.895C171.217 101.792 170.79 101.781 170.377 101.862Z" fill="#003845"/>
<path d="M164.704 295.899L148.928 295.797C146.829 295.783 145.117 297.474 145.103 299.572L145.071 304.524C145.058 306.622 146.748 308.335 148.847 308.348L164.623 308.45C166.722 308.464 168.434 306.774 168.448 304.675L168.48 299.724C168.494 297.625 166.803 295.913 164.704 295.899Z" fill="#006F8A"/>
<path d="M199.091 217.767C198.716 218.146 198.091 218.526 197.467 218.656C195.592 219.297 193.59 218.064 193.088 216.318C192.963 216.194 189.194 203.224 178.929 193.059C168.664 182.895 155.657 179.005 155.657 179.005C153.78 178.396 152.653 176.53 153.275 174.649C153.898 172.769 155.772 171.627 157.648 172.237C158.273 172.356 172.53 176.236 184.298 187.888C196.066 199.54 200.085 213.758 200.211 214.382C200.338 215.506 199.965 216.885 199.091 217.767ZM186.085 215.378C185.96 215.004 182.573 206.406 174.06 197.977C165.547 189.548 156.917 186.245 156.541 186.124C154.79 185.388 152.666 186.282 152.043 188.162C151.296 189.919 152.174 192.037 154.05 192.646C154.05 192.646 161.68 195.707 169.066 203.02C176.452 210.334 179.588 217.933 179.588 217.933C180.34 219.677 182.342 220.66 184.091 219.895C184.591 219.641 184.966 219.513 185.34 219.135C186.339 218.126 186.712 216.748 186.085 215.378ZM170.719 223.885C171.343 223.005 171.467 221.878 171.216 220.88C171.09 220.506 169.205 213.146 164.072 208.064C158.939 202.981 151.436 201.045 151.186 201.047C149.185 200.564 147.311 201.705 146.938 203.584C146.441 205.588 147.569 207.454 149.444 207.813C149.444 207.813 155.323 209.388 159.078 213.107C160.706 214.719 162.084 216.832 162.836 218.576L132.585 221.084C131.46 221.219 130.335 221.854 129.837 222.858C129.338 223.862 129.09 225.115 129.716 226.235C129.842 226.359 132.224 231.464 136.605 235.803C140.987 240.141 146.116 242.473 146.366 242.721C148.117 243.456 150.242 242.813 151.114 240.93C151.862 239.174 151.234 237.053 149.358 236.194C149.358 236.194 144.979 234.106 141.599 230.759C140.598 229.768 139.721 228.65 138.97 227.656L168.096 225.283C168.971 225.15 169.721 224.894 170.345 224.263L170.719 223.885Z" fill="white"/>
<defs>
<linearGradient id="paint0_linear_129_1038" x1="-30.7625" y1="102.362" x2="140.515" y2="70.7953" gradientUnits="userSpaceOnUse">
<stop stop-color="white"/>
<stop offset="1" stop-color="#BFC1BF"/>
</linearGradient>
<clipPath id="clip0_129_1038">
<rect width="104.682" height="145.247" rx="5" transform="matrix(0.983996 -0.178189 0.181248 0.983437 3.24377 39.5817)" fill="white"/>
</clipPath>
</defs>
</svg>
