<svg width="358" height="145" viewBox="0 0 358 145" fill="none" xmlns="http://www.w3.org/2000/svg">
<rect width="358" height="145" rx="8" fill="#FFEEE6"/>
<rect opacity="0.4" y="122.165" width="358" height="11.4173" rx="3" fill="#FFC21D"/>
<rect opacity="0.4" y="133.583" width="358" height="11.4173" rx="3" fill="#F96E11"/>
<path d="M36.82 79L43.06 65H46.26L52.52 79H49.12L44 66.64H45.28L40.14 79H36.82ZM39.94 76L40.8 73.54H48L48.88 76H39.94ZM58.2748 79.16C57.2615 79.16 56.3482 78.9333 55.5348 78.48C54.7215 78.0133 54.0748 77.3667 53.5948 76.54C53.1282 75.7133 52.8948 74.74 52.8948 73.62C52.8948 72.4867 53.1282 71.5067 53.5948 70.68C54.0748 69.8533 54.7215 69.2133 55.5348 68.76C56.3482 68.3067 57.2615 68.08 58.2748 68.08C59.1815 68.08 59.9748 68.28 60.6548 68.68C61.3348 69.08 61.8615 69.6867 62.2348 70.5C62.6082 71.3133 62.7948 72.3533 62.7948 73.62C62.7948 74.8733 62.6148 75.9133 62.2548 76.74C61.8948 77.5533 61.3748 78.16 60.6948 78.56C60.0282 78.96 59.2215 79.16 58.2748 79.16ZM58.8148 76.6C59.3215 76.6 59.7815 76.48 60.1948 76.24C60.6082 76 60.9348 75.66 61.1748 75.22C61.4282 74.7667 61.5548 74.2333 61.5548 73.62C61.5548 72.9933 61.4282 72.46 61.1748 72.02C60.9348 71.58 60.6082 71.24 60.1948 71C59.7815 70.76 59.3215 70.64 58.8148 70.64C58.2948 70.64 57.8282 70.76 57.4148 71C57.0015 71.24 56.6682 71.58 56.4148 72.02C56.1748 72.46 56.0548 72.9933 56.0548 73.62C56.0548 74.2333 56.1748 74.7667 56.4148 75.22C56.6682 75.66 57.0015 76 57.4148 76.24C57.8282 76.48 58.2948 76.6 58.8148 76.6ZM61.6348 79V76.8L61.6948 73.6L61.4948 70.42V64.16H64.6148V79H61.6348ZM72.1225 79.16C71.1092 79.16 70.1958 78.9333 69.3825 78.48C68.5692 78.0133 67.9225 77.3667 67.4425 76.54C66.9758 75.7133 66.7425 74.74 66.7425 73.62C66.7425 72.4867 66.9758 71.5067 67.4425 70.68C67.9225 69.8533 68.5692 69.2133 69.3825 68.76C70.1958 68.3067 71.1092 68.08 72.1225 68.08C73.0292 68.08 73.8225 68.28 74.5025 68.68C75.1825 69.08 75.7092 69.6867 76.0825 70.5C76.4558 71.3133 76.6425 72.3533 76.6425 73.62C76.6425 74.8733 76.4625 75.9133 76.1025 76.74C75.7425 77.5533 75.2225 78.16 74.5425 78.56C73.8758 78.96 73.0692 79.16 72.1225 79.16ZM72.6625 76.6C73.1692 76.6 73.6292 76.48 74.0425 76.24C74.4558 76 74.7825 75.66 75.0225 75.22C75.2758 74.7667 75.4025 74.2333 75.4025 73.62C75.4025 72.9933 75.2758 72.46 75.0225 72.02C74.7825 71.58 74.4558 71.24 74.0425 71C73.6292 70.76 73.1692 70.64 72.6625 70.64C72.1425 70.64 71.6758 70.76 71.2625 71C70.8492 71.24 70.5158 71.58 70.2625 72.02C70.0225 72.46 69.9025 72.9933 69.9025 73.62C69.9025 74.2333 70.0225 74.7667 70.2625 75.22C70.5158 75.66 70.8492 76 71.2625 76.24C71.6758 76.48 72.1425 76.6 72.6625 76.6ZM75.4825 79V76.8L75.5425 73.6L75.3425 70.42V64.16H78.4625V79H75.4825ZM87.2342 79V65H89.9142L95.8742 74.88H94.4542L100.314 65H102.974L103.014 79H99.9742L99.9542 69.66H100.514L95.8342 77.52H94.3742L89.5942 69.66H90.2742V79H87.2342ZM111.456 79.16C110.229 79.16 109.149 78.92 108.216 78.44C107.296 77.96 106.582 77.3067 106.076 76.48C105.569 75.64 105.316 74.6867 105.316 73.62C105.316 72.54 105.562 71.5867 106.056 70.76C106.562 69.92 107.249 69.2667 108.116 68.8C108.982 68.32 109.962 68.08 111.056 68.08C112.109 68.08 113.056 68.3067 113.896 68.76C114.749 69.2 115.422 69.84 115.916 70.68C116.409 71.5067 116.656 72.5 116.656 73.66C116.656 73.78 116.649 73.92 116.636 74.08C116.622 74.2267 116.609 74.3667 116.596 74.5H107.856V72.68H114.956L113.756 73.22C113.756 72.66 113.642 72.1733 113.416 71.76C113.189 71.3467 112.876 71.0267 112.476 70.8C112.076 70.56 111.609 70.44 111.076 70.44C110.542 70.44 110.069 70.56 109.656 70.8C109.256 71.0267 108.942 71.3533 108.716 71.78C108.489 72.1933 108.376 72.6867 108.376 73.26V73.74C108.376 74.3267 108.502 74.8467 108.756 75.3C109.022 75.74 109.389 76.08 109.856 76.32C110.336 76.5467 110.896 76.66 111.536 76.66C112.109 76.66 112.609 76.5733 113.036 76.4C113.476 76.2267 113.876 75.9667 114.236 75.62L115.896 77.42C115.402 77.98 114.782 78.4133 114.036 78.72C113.289 79.0133 112.429 79.16 111.456 79.16ZM132.513 68.08C133.366 68.08 134.12 68.2533 134.773 68.6C135.44 68.9333 135.96 69.4533 136.333 70.16C136.72 70.8533 136.913 71.7467 136.913 72.84V79H133.793V73.32C133.793 72.4533 133.613 71.8133 133.253 71.4C132.893 70.9867 132.386 70.78 131.733 70.78C131.28 70.78 130.873 70.8867 130.513 71.1C130.153 71.3 129.873 71.6067 129.673 72.02C129.473 72.4333 129.373 72.96 129.373 73.6V79H126.253V73.32C126.253 72.4533 126.073 71.8133 125.713 71.4C125.366 70.9867 124.866 70.78 124.213 70.78C123.76 70.78 123.353 70.8867 122.993 71.1C122.633 71.3 122.353 71.6067 122.153 72.02C121.953 72.4333 121.853 72.96 121.853 73.6V79H118.733V68.24H121.713V71.18L121.153 70.32C121.526 69.5867 122.053 69.0333 122.733 68.66C123.426 68.2733 124.213 68.08 125.093 68.08C126.08 68.08 126.94 68.3333 127.673 68.84C128.42 69.3333 128.913 70.0933 129.153 71.12L128.053 70.82C128.413 69.98 128.986 69.3133 129.773 68.82C130.573 68.3267 131.486 68.08 132.513 68.08ZM146.07 79.16C145.123 79.16 144.31 78.96 143.63 78.56C142.95 78.16 142.43 77.5533 142.07 76.74C141.71 75.9133 141.53 74.8733 141.53 73.62C141.53 72.3533 141.716 71.3133 142.09 70.5C142.476 69.6867 143.01 69.08 143.69 68.68C144.37 68.28 145.163 68.08 146.07 68.08C147.083 68.08 147.99 68.3067 148.79 68.76C149.603 69.2133 150.243 69.8533 150.71 70.68C151.19 71.5067 151.43 72.4867 151.43 73.62C151.43 74.74 151.19 75.7133 150.71 76.54C150.243 77.3667 149.603 78.0133 148.79 78.48C147.99 78.9333 147.083 79.16 146.07 79.16ZM139.71 79V64.16H142.83V70.42L142.63 73.6L142.69 76.8V79H139.71ZM145.53 76.6C146.05 76.6 146.51 76.48 146.91 76.24C147.323 76 147.65 75.66 147.89 75.22C148.143 74.7667 148.27 74.2333 148.27 73.62C148.27 72.9933 148.143 72.46 147.89 72.02C147.65 71.58 147.323 71.24 146.91 71C146.51 70.76 146.05 70.64 145.53 70.64C145.01 70.64 144.543 70.76 144.13 71C143.716 71.24 143.39 71.58 143.15 72.02C142.91 72.46 142.79 72.9933 142.79 73.62C142.79 74.2333 142.91 74.7667 143.15 75.22C143.39 75.66 143.716 76 144.13 76.24C144.543 76.48 145.01 76.6 145.53 76.6ZM158.858 79.16C157.631 79.16 156.551 78.92 155.618 78.44C154.698 77.96 153.985 77.3067 153.478 76.48C152.971 75.64 152.718 74.6867 152.718 73.62C152.718 72.54 152.965 71.5867 153.458 70.76C153.965 69.92 154.651 69.2667 155.518 68.8C156.385 68.32 157.365 68.08 158.458 68.08C159.511 68.08 160.458 68.3067 161.298 68.76C162.151 69.2 162.825 69.84 163.318 70.68C163.811 71.5067 164.058 72.5 164.058 73.66C164.058 73.78 164.051 73.92 164.038 74.08C164.025 74.2267 164.011 74.3667 163.998 74.5H155.258V72.68H162.358L161.158 73.22C161.158 72.66 161.045 72.1733 160.818 71.76C160.591 71.3467 160.278 71.0267 159.878 70.8C159.478 70.56 159.011 70.44 158.478 70.44C157.945 70.44 157.471 70.56 157.058 70.8C156.658 71.0267 156.345 71.3533 156.118 71.78C155.891 72.1933 155.778 72.6867 155.778 73.26V73.74C155.778 74.3267 155.905 74.8467 156.158 75.3C156.425 75.74 156.791 76.08 157.258 76.32C157.738 76.5467 158.298 76.66 158.938 76.66C159.511 76.66 160.011 76.5733 160.438 76.4C160.878 76.2267 161.278 75.9667 161.638 75.62L163.298 77.42C162.805 77.98 162.185 78.4133 161.438 78.72C160.691 79.0133 159.831 79.16 158.858 79.16ZM166.135 79V68.24H169.115V71.28L168.695 70.4C169.015 69.64 169.529 69.0667 170.235 68.68C170.942 68.28 171.802 68.08 172.815 68.08V70.96C172.682 70.9467 172.562 70.94 172.455 70.94C172.349 70.9267 172.235 70.92 172.115 70.92C171.262 70.92 170.569 71.1667 170.035 71.66C169.515 72.14 169.255 72.8933 169.255 73.92V79H166.135Z" fill="#F96E11"/>
<path d="M216 34.5638C216.002 34.0342 216.214 33.5267 216.591 33.1522C216.969 32.7776 217.48 32.5665 218.013 32.5648H307.839C308.372 32.5665 308.883 32.7776 309.26 33.1522C309.637 33.5267 309.85 34.0342 309.852 34.5638V40.9969H216V34.5638Z" fill="#263238"/>
<path d="M232.274 38.4663C231.938 38.4663 231.61 38.3674 231.331 38.182C231.051 37.9966 230.833 37.7332 230.705 37.4249C230.576 37.1166 230.543 36.7774 230.608 36.4502C230.674 36.1229 230.836 35.8223 231.073 35.5864C231.311 35.3504 231.613 35.1897 231.943 35.1246C232.273 35.0595 232.614 35.093 232.925 35.2206C233.235 35.3483 233.5 35.5646 233.687 35.842C233.874 36.1194 233.973 36.4456 233.973 36.7793C233.973 37.2267 233.794 37.6558 233.476 37.9722C233.157 38.2886 232.725 38.4663 232.274 38.4663V38.4663ZM232.274 35.4456C232.009 35.4456 231.749 35.5238 231.528 35.6703C231.307 35.8169 231.135 36.0252 231.034 36.2689C230.932 36.5126 230.905 36.7808 230.957 37.0395C231.009 37.2982 231.137 37.5358 231.325 37.7224C231.513 37.9089 231.752 38.0359 232.012 38.0874C232.273 38.1388 232.543 38.1124 232.788 38.0115C233.034 37.9105 233.244 37.7396 233.391 37.5203C233.539 37.3009 233.618 37.0431 233.618 36.7793C233.617 36.4258 233.475 36.0871 233.223 35.8371C232.972 35.5872 232.63 35.4464 232.274 35.4456Z" fill="#F0F0F0"/>
<path d="M226.88 38.4663C226.544 38.4657 226.216 38.3662 225.937 38.1805C225.658 37.9947 225.44 37.731 225.312 37.4227C225.184 37.1144 225.151 36.7752 225.217 36.4482C225.283 36.1212 225.445 35.8208 225.683 35.5852C225.92 35.3496 226.223 35.1892 226.553 35.1244C226.882 35.0596 227.223 35.0932 227.534 35.2209C227.844 35.3487 228.109 35.565 228.296 35.8423C228.482 36.1197 228.582 36.4457 228.582 36.7793C228.582 37.0011 228.538 37.2207 228.452 37.4256C228.366 37.6305 228.241 37.8166 228.083 37.9733C227.925 38.13 227.737 38.2542 227.531 38.3388C227.324 38.4234 227.103 38.4668 226.88 38.4663V38.4663ZM226.88 35.4455C226.614 35.4462 226.355 35.5249 226.134 35.6719C225.914 35.8188 225.742 36.0273 225.641 36.2711C225.54 36.5148 225.514 36.7829 225.566 37.0414C225.618 37.2999 225.746 37.5373 225.934 37.7235C226.122 37.9097 226.361 38.0364 226.622 38.0876C226.882 38.1388 227.152 38.1122 227.397 38.0112C227.643 37.9101 227.852 37.7392 228 37.5199C228.147 37.3007 228.226 37.0429 228.226 36.7793C228.225 36.4253 228.083 36.086 227.83 35.836C227.578 35.586 227.236 35.4455 226.88 35.4455Z" fill="#F0F0F0"/>
<path d="M221.488 38.4663C221.152 38.4657 220.824 38.3662 220.545 38.1805C220.266 37.9947 220.049 37.731 219.921 37.4227C219.792 37.1144 219.759 36.7752 219.825 36.4482C219.891 36.1212 220.053 35.8208 220.291 35.5852C220.529 35.3496 220.831 35.1892 221.161 35.1244C221.49 35.0596 221.832 35.0932 222.142 35.2209C222.452 35.3487 222.717 35.565 222.904 35.8423C223.09 36.1197 223.19 36.4457 223.19 36.7793C223.19 37.0011 223.146 37.2207 223.06 37.4256C222.975 37.6305 222.849 37.8166 222.691 37.9733C222.533 38.13 222.345 38.2542 222.139 38.3388C221.932 38.4234 221.711 38.4668 221.488 38.4663V38.4663ZM221.488 35.4455C221.222 35.4455 220.963 35.5238 220.742 35.6703C220.521 35.8169 220.349 36.0252 220.247 36.2689C220.145 36.5126 220.119 36.7808 220.171 37.0395C220.222 37.2982 220.35 37.5358 220.538 37.7224C220.726 37.9089 220.965 38.0359 221.226 38.0874C221.486 38.1388 221.756 38.1124 222.002 38.0115C222.247 37.9105 222.457 37.7396 222.605 37.5203C222.752 37.3009 222.831 37.0431 222.831 36.7793C222.83 36.4258 222.688 36.0871 222.437 35.8371C222.185 35.5872 221.844 35.4464 221.488 35.4455Z" fill="#F0F0F0"/>
<path d="M307.839 102.377H218.013C217.48 102.375 216.969 102.164 216.591 101.79C216.214 101.415 216.002 100.908 216 100.378V40.9969H309.852V100.378C309.85 100.908 309.637 101.415 309.26 101.79C308.883 102.164 308.372 102.375 307.839 102.377Z" fill="#F96E11"/>
<path d="M309.281 42.7031H216.571V95.3296H309.281V42.7031Z" fill="white"/>
<path d="M257.65 47.2167H222.334C221.66 47.2167 221.113 47.7597 221.113 48.4295V53.1119C221.113 53.7817 221.66 54.3246 222.334 54.3246H257.65C258.324 54.3246 258.871 53.7817 258.871 53.1119V48.4295C258.871 47.7597 258.324 47.2167 257.65 47.2167Z" fill="#F96E11"/>
<path d="M303.517 47.535C303.756 47.535 303.985 47.6293 304.154 47.797C304.323 47.9648 304.418 48.1923 304.418 48.4295V53.1119C304.418 53.3491 304.323 53.5766 304.154 53.7444C303.985 53.9121 303.756 54.0063 303.517 54.0063H268.202C267.963 54.0063 267.734 53.9121 267.565 53.7444C267.396 53.5766 267.301 53.3491 267.301 53.1119V48.4295C267.301 48.1923 267.396 47.9648 267.565 47.797C267.734 47.6293 267.963 47.535 268.202 47.535H303.517ZM303.517 47.2167H268.202C267.878 47.2176 267.568 47.3456 267.339 47.5729C267.111 47.8001 266.982 48.1081 266.981 48.4295V53.1119C266.981 53.4335 267.109 53.742 267.338 53.9694C267.568 54.1969 267.878 54.3246 268.202 54.3246H303.517C303.841 54.3246 304.152 54.1969 304.381 53.9694C304.61 53.742 304.739 53.4335 304.739 53.1119V48.4295C304.738 48.1081 304.609 47.8001 304.38 47.5729C304.151 47.3456 303.841 47.2176 303.517 47.2167V47.2167Z" fill="#F96E11"/>
<path d="M227.389 57.5078C228.567 57.5078 229.719 57.8546 230.698 58.5045C231.678 59.1544 232.441 60.078 232.892 61.1587C233.343 62.2394 233.46 63.4286 233.231 64.5758C233.001 65.7231 232.434 66.7769 231.601 67.604C230.768 68.4311 229.706 68.9944 228.551 69.2226C227.396 69.4508 226.198 69.3337 225.11 68.8861C224.022 68.4384 223.092 67.6804 222.437 66.7078C221.783 65.7352 221.433 64.5917 221.433 63.422C221.435 61.854 222.063 60.3506 223.18 59.2419C224.296 58.1331 225.81 57.5095 227.389 57.5078V57.5078ZM227.389 57.1895C226.148 57.1895 224.934 57.555 223.902 58.2398C222.87 58.9247 222.066 59.8981 221.591 61.0369C221.116 62.1758 220.991 63.4289 221.233 64.6379C221.476 65.8469 222.073 66.9574 222.951 67.8291C223.829 68.7007 224.947 69.2943 226.165 69.5348C227.382 69.7753 228.644 69.6519 229.791 69.1801C230.938 68.7084 231.918 67.9096 232.608 66.8846C233.298 65.8597 233.666 64.6547 233.666 63.422C233.666 61.769 233.004 60.1838 231.827 59.0149C230.65 57.8461 229.054 57.1895 227.389 57.1895V57.1895Z" fill="#F96E11"/>
<path opacity="0.4" d="M231.931 65.873C231.487 66.6879 230.829 67.3685 230.027 67.8427C229.226 68.317 228.31 68.5674 227.376 68.5674C226.443 68.5674 225.527 68.317 224.725 67.8427C223.924 67.3685 223.266 66.6879 222.821 65.873C224.17 64.9785 225.755 64.5011 227.376 64.5011C228.998 64.5011 230.583 64.9785 231.931 65.873V65.873Z" fill="#F96E11"/>
<path opacity="0.4" d="M227.389 63.9536C228.664 63.9536 229.697 62.9275 229.697 61.6617C229.697 60.396 228.664 59.3699 227.389 59.3699C226.115 59.3699 225.081 60.396 225.081 61.6617C225.081 62.9275 226.115 63.9536 227.389 63.9536Z" fill="#F96E11"/>
<path opacity="0.4" d="M301.511 66.6274H240.42C239.564 66.6274 238.743 66.2897 238.137 65.6886C237.532 65.0874 237.192 64.2721 237.192 63.422C237.192 63.0012 237.275 62.5846 237.438 62.1958C237.6 61.8071 237.838 61.454 238.137 61.1566C238.437 60.8592 238.793 60.6234 239.185 60.4626C239.576 60.3019 239.996 60.2194 240.42 60.2198H301.511C301.935 60.2194 302.354 60.3019 302.746 60.4626C303.137 60.6234 303.493 60.8592 303.793 61.1566C304.093 61.454 304.331 61.8071 304.493 62.1958C304.655 62.5846 304.739 63.0012 304.739 63.422V63.422C304.739 64.2721 304.399 65.0874 303.793 65.6886C303.188 66.2897 302.367 66.6274 301.511 66.6274Z" fill="#F96E11"/>
<path d="M227.389 74.5025C228.567 74.5025 229.719 74.8493 230.698 75.4992C231.678 76.1491 232.441 77.0727 232.892 78.1534C233.343 79.2341 233.46 80.4233 233.231 81.5705C233.001 82.7178 232.434 83.7716 231.601 84.5987C230.768 85.4258 229.706 85.9891 228.551 86.2173C227.396 86.4455 226.198 86.3284 225.11 85.8807C224.022 85.4331 223.092 84.6751 222.437 83.7025C221.783 82.7299 221.433 81.5864 221.433 80.4167C221.434 78.8484 222.062 77.3446 223.179 76.2356C224.295 75.1267 225.81 74.5033 227.389 74.5025V74.5025ZM227.389 74.1841C226.148 74.1841 224.934 74.5497 223.902 75.2345C222.87 75.9194 222.066 76.8927 221.591 78.0316C221.116 79.1704 220.991 80.4236 221.233 81.6326C221.476 82.8416 222.073 83.9521 222.951 84.8238C223.829 85.6954 224.947 86.289 226.165 86.5295C227.382 86.77 228.644 86.6465 229.791 86.1748C230.938 85.7031 231.918 84.9043 232.608 83.8793C233.298 82.8544 233.666 81.6494 233.666 80.4167C233.666 78.7637 233.004 77.1784 231.827 76.0096C230.65 74.8408 229.054 74.1841 227.389 74.1841V74.1841Z" fill="#F96E11"/>
<path opacity="0.4" d="M231.931 82.8486C231.487 83.6635 230.829 84.344 230.027 84.8183C229.226 85.2925 228.31 85.5429 227.376 85.5429C226.443 85.5429 225.527 85.2925 224.725 84.8183C223.924 84.344 223.266 83.6635 222.821 82.8486C224.17 81.9561 225.755 81.4799 227.376 81.4799C228.997 81.4799 230.582 81.9561 231.931 82.8486V82.8486Z" fill="#F96E11"/>
<path opacity="0.4" d="M227.389 80.9292C228.664 80.9292 229.697 79.9031 229.697 78.6373C229.697 77.3716 228.664 76.3455 227.389 76.3455C226.115 76.3455 225.081 77.3716 225.081 78.6373C225.081 79.9031 226.115 80.9292 227.389 80.9292Z" fill="#F96E11"/>
<path opacity="0.4" d="M240.42 77.1954H301.511C302.367 77.1954 303.188 77.5331 303.793 78.1342C304.399 78.7354 304.739 79.5507 304.739 80.4008C304.739 81.2509 304.399 82.0662 303.793 82.6673C303.188 83.2685 302.367 83.6062 301.511 83.6062H240.42C239.564 83.6062 238.743 83.2685 238.137 82.6673C237.532 82.0662 237.192 81.2509 237.192 80.4008C237.191 79.9797 237.275 79.5627 237.437 79.1736C237.599 78.7845 237.836 78.431 238.136 78.1333C238.436 77.8356 238.792 77.5995 239.184 77.4385C239.576 77.2776 239.996 77.195 240.42 77.1954V77.1954Z" fill="#F96E11"/>
<path opacity="0.1" d="M286.464 83.5107C286.464 85.4579 286.656 87.4004 287.038 89.3103C285.245 90.3676 283.76 91.8687 282.726 93.667C281.693 95.4653 281.147 97.4991 281.143 99.5695C281.136 100.515 281.244 101.457 281.463 102.377H307.839C308.372 102.375 308.883 102.164 309.26 101.79C309.637 101.415 309.85 100.908 309.852 100.378V54.5411C303.219 56.014 297.29 59.6854 293.039 64.9508C288.788 70.2163 286.469 76.7621 286.464 83.5107V83.5107Z" fill="black"/>
<path d="M335.192 99.4868C345.606 89.1456 345.606 72.3792 335.192 62.0379C324.778 51.6967 307.894 51.6967 297.48 62.0379C287.066 72.3792 287.066 89.1456 297.48 99.4869C307.894 109.828 324.778 109.828 335.192 99.4868Z" fill="#F96E11"/>
<path d="M333.651 97.7995C343.145 88.372 343.145 73.0869 333.651 63.6593C324.157 54.2317 308.764 54.2317 299.27 63.6593C289.776 73.0869 289.776 88.372 299.27 97.7996C308.764 107.227 324.157 107.227 333.651 97.7995Z" fill="white"/>
<path d="M308.258 64.5341L306.707 66.5076C306.707 66.5076 305.345 67.5326 304.829 68.4175C304.226 69.0095 303.675 69.6175 303.13 70.2573C302.505 70.9889 301.923 71.7551 301.386 72.5523C300.798 73.4049 300.311 74.3225 299.937 75.2866C299.7 75.8969 299.569 76.5427 299.549 77.1965C299.541 77.6589 299.623 78.1185 299.793 78.5493C300.005 79.0771 300.356 79.5387 300.809 79.8863L301.149 80.1409L301.658 80.2364C302.664 80.4263 303.686 80.5264 304.71 80.5356L305.114 80.5006L304.697 76.4644C304.354 76.4644 303.617 76.5312 303.28 76.5249C303.28 76.4612 303.306 76.3976 303.322 76.3339C303.525 75.5657 303.804 74.8193 304.155 74.1057C304.514 73.3322 304.928 72.5587 305.357 71.7884C305.736 71.1072 306.143 70.4228 306.537 69.7544L308.46 68.5512L309.586 66.5681L308.258 64.5341ZM303.255 77.1074C303.252 77.0767 303.252 77.0458 303.255 77.0151C303.268 77.0378 303.278 77.0625 303.283 77.0883C303.293 77.1647 303.271 77.1679 303.255 77.1074Z" fill="#7F3E3B"/>
<path d="M319.183 68.7995C319.231 68.5544 319.154 68.5385 319.09 68.5385C319.032 68.5621 318.98 68.5984 318.939 68.6447C318.897 68.691 318.867 68.7461 318.85 68.8058C318.547 69.2765 318.157 69.6851 317.699 70.0091C317.635 70.0536 317.574 70.1014 317.506 70.1459C316.946 70.519 316.293 70.7325 315.618 70.7635C315.618 70.8303 315.641 70.8971 315.654 70.964C315.676 71.12 315.695 71.2823 315.705 71.4287C315.779 72.4441 315.509 73.3895 314.359 73.9275C314.359 73.9911 314.202 74.058 314.15 74.1025C313.724 74.4749 313.452 74.9909 313.387 75.5509C313.387 75.9647 313.782 76.2925 314.24 76.6872L314.881 77.117L315.759 77.0342C318.455 76.248 319.715 73.8033 319.657 73.6219C318.965 72.4887 318.975 70.5024 319.183 68.7995Z" fill="#7F3E3B"/>
<path d="M325.011 74.5991L324.523 74.5163C323.882 74.4145 321.023 73.7715 319.641 73.6505C319.321 74.3285 318.269 75.9837 315.573 76.77L314.907 76.9259L314.266 76.6076C314.067 76.4658 313.902 76.2831 313.782 76.0722C313.661 75.8612 313.588 75.627 313.567 75.3853C313.589 75.1367 313.662 74.8953 313.782 74.6762C313.903 74.4571 314.067 74.265 314.266 74.1121C314.289 74.0919 314.308 74.0669 314.32 74.0389C314.32 73.9625 314.32 73.9115 314.32 73.9052C314.118 73.9306 311.56 74.3158 311.345 74.3508C308.934 74.7932 306.567 75.4462 304.271 76.3021L304.296 76.5312L304.761 80.5388L304.934 82.0571C304.934 82.0571 306.217 81.9139 307.899 81.621C307.441 85.6763 307.351 91.5524 308.752 99.1059L314.224 99.0041L323.732 98.829C323.77 98.1924 323.699 96.8746 323.632 95.0729L323.546 92.2909C323.494 89.8335 323.504 86.8796 323.725 83.7219C323.76 83.2222 323.802 82.7192 323.847 82.2099C325.789 84.2949 327.735 86.2875 327.735 86.2875L328.655 85.409C329.832 84.8455 330.758 83.8365 331.566 82.6237L332.646 81.5892C332.646 81.5892 327.639 75.0384 325.011 74.5991Z" fill="#F96E11"/>
<path opacity="0.3" d="M322.379 80.5739C322.452 81.2365 322.665 81.8764 323.004 82.4519L323.741 83.706C323.776 83.2063 323.818 82.7034 323.863 82.1941C323.357 81.6434 322.85 81.0991 322.379 80.5739Z" fill="black"/>
<path opacity="0.3" d="M323.865 82.1972C323.821 82.7065 323.779 83.2094 323.744 83.7092C323.776 83.2094 323.821 82.7033 323.865 82.1972Z" fill="black"/>
<path d="M315.618 70.7634C315.618 70.8303 315.641 70.8971 315.653 70.964C315.653 70.8971 315.631 70.8303 315.618 70.7634Z" fill="#7F3E3B"/>
<path opacity="0.2" d="M315.705 71.4287C315.705 71.2759 315.676 71.1104 315.654 70.964C315.676 71.12 315.695 71.2759 315.705 71.4287Z" fill="black"/>
<path d="M317.699 70.009C317.635 70.0536 317.574 70.1013 317.506 70.1459C316.946 70.519 316.293 70.7325 315.618 70.7634C315.618 70.8303 315.641 70.8971 315.654 70.964C315.676 71.1199 315.695 71.2823 315.705 71.4287C315.705 71.4287 315.705 71.4478 315.705 71.4574C316.536 71.2559 317.254 70.735 317.699 70.009V70.009Z" fill="#7F3E3B"/>
<path d="M321.299 74.1344C321.27 74.0036 321.205 73.8833 321.111 73.7876C321.017 73.6918 320.897 73.6245 320.766 73.5933L320.1 73.4341C320.016 73.4146 319.929 73.4224 319.85 73.4562C319.772 73.49 319.706 73.5482 319.664 73.6219L319.641 73.6506C319.321 74.3286 318.269 75.9838 315.573 76.77L315.365 76.8178L314.907 76.926L314.266 76.6077C314.068 76.4658 313.903 76.2832 313.782 76.0722C313.661 75.8613 313.588 75.627 313.567 75.3854C313.589 75.1368 313.662 74.8954 313.782 74.6763C313.903 74.4572 314.067 74.2651 314.266 74.1121C314.301 74.0763 314.332 74.0368 314.359 73.9943C314.387 73.9211 314.381 73.8861 314.33 73.8543C313.621 73.3482 312.038 74.128 311.974 74.2617C311.906 74.3286 311.839 74.3986 311.772 74.4782C311.574 74.7093 311.427 74.9784 311.338 75.2686C311.25 75.5589 311.223 75.8641 311.259 76.1652C311.326 76.6717 311.506 77.1567 311.788 77.5843C312.069 78.0119 312.444 78.3711 312.884 78.6353C312.899 78.64 312.914 78.64 312.929 78.6353C312.946 78.6401 312.963 78.6401 312.98 78.6353C312.994 78.6256 313.005 78.6128 313.013 78.5978C313.021 78.5828 313.025 78.5662 313.025 78.5494C313.026 78.173 313.14 77.8055 313.351 77.4929C313.562 77.1803 313.861 76.9366 314.211 76.7923L314.772 77.0915C312.362 86.9146 313.996 98.689 314.041 99.0073H314.227C314.227 98.8863 312.528 87.0101 314.958 77.1329L315.545 76.9928C316.227 77.8204 315.904 79.0491 315.9 79.0619C315.896 79.0789 315.896 79.0968 315.901 79.1136C315.906 79.1305 315.916 79.1456 315.929 79.1574C315.947 79.172 315.97 79.1799 315.993 79.1796C316.005 79.1829 316.017 79.1829 316.029 79.1796C316.157 79.1223 319.189 77.8045 320.25 76.5472C320.751 75.9463 321.105 75.238 321.283 74.4782C321.318 74.3669 321.323 74.2484 321.299 74.1344V74.1344Z" fill="white"/>
<path opacity="0.2" d="M317.699 70.009C317.635 70.0536 317.574 70.1013 317.506 70.1459C316.946 70.519 316.293 70.7325 315.618 70.7634C315.618 70.8303 315.641 70.8971 315.654 70.964C315.676 71.1199 315.695 71.2823 315.705 71.4287C315.705 71.4287 315.705 71.4478 315.705 71.4574C316.536 71.2559 317.254 70.735 317.699 70.009V70.009Z" fill="black"/>
<path d="M313.031 62.5828C313.339 62.0221 313.737 61.5147 314.208 61.0804C313.997 60.925 313.813 60.7369 313.663 60.5233C313.16 60.7589 312.682 61.4241 312.435 62.9138C312.376 63.2652 312.367 63.6232 312.41 63.977C312.502 63.697 312.609 63.4218 312.73 63.1526L313.031 62.5828Z" fill="#263238"/>
<path d="M318.994 66.4917C320.439 64.8269 319.519 62.7101 318.673 62.2358C318.83 60.0076 315.609 59.7212 314.211 61.0803C313.74 61.5147 313.342 62.0221 313.035 62.5828L312.743 63.1526C312.622 63.4218 312.515 63.697 312.422 63.977C312.07 64.9834 311.886 66.0404 311.877 67.106C311.875 67.5926 311.971 68.0747 312.16 68.5238C312.348 68.973 312.625 69.38 312.975 69.721C313.325 70.0619 313.74 70.3298 314.195 70.5089C314.651 70.6879 315.138 70.7745 315.628 70.7634V70.7634C316.302 70.7325 316.955 70.5189 317.516 70.1459C317.583 70.1013 317.644 70.0536 317.708 70.009C318.166 69.685 318.557 69.2765 318.859 68.8058C319.571 67.663 319.385 67.0869 318.994 66.4917Z" fill="#7F3E3B"/>
<path d="M312.567 62.9648C312.546 62.9924 312.536 63.0272 312.54 63.0616C312.544 63.0961 312.562 63.1275 312.589 63.1494C312.613 63.1678 312.642 63.1778 312.672 63.1781C312.698 63.1774 312.723 63.1684 312.743 63.1526C312.756 63.147 312.767 63.1382 312.775 63.1271C312.878 62.9928 313.01 62.8836 313.162 62.808C313.313 62.7324 313.48 62.6924 313.65 62.691C313.685 62.6928 313.72 62.6808 313.746 62.6576C313.773 62.6344 313.789 62.6018 313.791 62.5669C313.792 62.5498 313.79 62.5325 313.785 62.5162C313.78 62.4998 313.771 62.4847 313.76 62.4717C313.748 62.4587 313.734 62.448 313.719 62.4403C313.704 62.4326 313.687 62.4281 313.669 62.4268C313.446 62.4255 313.226 62.4791 313.028 62.5828C312.85 62.6772 312.692 62.8072 312.567 62.9648V62.9648Z" fill="#263238"/>
<path d="M316.035 66.7781C316.023 66.7663 316.006 66.7596 315.989 66.7596C315.971 66.7596 315.955 66.7663 315.942 66.7781C315.723 66.9606 315.464 67.091 315.187 67.1594C314.909 67.2278 314.619 67.2324 314.339 67.1728C314.322 67.17 314.305 67.1737 314.291 67.1831C314.276 67.1926 314.266 67.2071 314.262 67.2238C314.259 67.241 314.263 67.2587 314.273 67.2734C314.282 67.2882 314.297 67.2988 314.314 67.3034C314.467 67.3335 314.623 67.3474 314.779 67.3447C315.237 67.3405 315.68 67.1734 316.025 66.8736C316.033 66.8681 316.038 66.8612 316.043 66.8533C316.047 66.8454 316.05 66.8368 316.051 66.8279C316.052 66.819 316.051 66.81 316.048 66.8015C316.045 66.7929 316.041 66.785 316.035 66.7781V66.7781Z" fill="#263238"/>
<path d="M314.314 64.5054C313.889 65.1224 313.384 65.6801 312.81 66.1638C313.131 66.6031 313.823 66.5713 313.823 66.5713L314.314 64.5054Z" fill="#630F0F"/>
<path d="M313.179 64.5818C313.323 64.6105 313.499 64.4577 313.535 64.238C313.57 64.0184 313.512 63.821 313.368 63.7924C313.224 63.7637 313.064 63.9165 313.012 64.1362C312.961 64.3558 313.031 64.5532 313.179 64.5818Z" fill="#263238"/>
<path d="M315.686 65.0911C315.83 65.1197 315.987 64.9669 316.041 64.7473C316.096 64.5277 316.016 64.3303 315.872 64.3017C315.727 64.273 315.567 64.4258 315.516 64.6454C315.464 64.8651 315.538 65.0497 315.686 65.0911Z" fill="#263238"/>
<path d="M318.965 62.2263C318.878 62.2263 318.779 62.2263 318.673 62.2263C318.49 62.6697 318.362 63.1336 318.292 63.6078C318.203 64.1075 318.22 64.6201 318.341 65.1131C318.462 65.6061 318.684 66.069 318.994 66.4726C319.635 67.5803 320.491 67.5485 321.222 66.7049C322.395 65.5845 323.526 63.3531 321.19 61.6119C320.824 61.9334 320.135 62.1594 318.965 62.2263Z" fill="#263238"/>
<path d="M320.6 66.0684C320.068 65.8519 319.468 66.1065 318.997 66.4917C318.738 66.6959 318.514 66.9398 318.333 67.2143C317.881 67.9177 318.042 68.7358 318.853 68.8058H318.994H319.186C319.825 68.7413 320.421 68.4602 320.875 68.0101C321.044 67.8488 321.165 67.6453 321.227 67.4212C321.288 67.1971 321.287 66.9606 321.225 66.7368C321.179 66.5854 321.099 66.4463 320.99 66.3305C320.882 66.2146 320.748 66.1249 320.6 66.0684V66.0684Z" fill="#7F3E3B"/>
<path d="M314.211 61.0804C315.384 61.9557 317.519 62.2263 318.673 62.2263C318.779 62.2263 318.878 62.2263 318.965 62.2263C320.135 62.1594 320.824 61.9334 321.19 61.6215C322.545 60.4692 319.455 58.1201 319.455 58.1201C319.455 58.1201 319.802 58.9604 319.084 59.1928C318.365 59.4251 313.314 57.5535 313.387 59.6766C313.401 59.9758 313.498 60.2655 313.666 60.5138C313.816 60.7308 314 60.9221 314.211 61.0804Z" fill="#263238"/>
<path d="M308.768 99.0901C308.768 99.0901 308.682 99.8349 308.547 101.086C313.456 102.734 318.767 102.783 323.706 101.226C323.738 99.7139 323.76 98.8099 323.76 98.8099L314.24 98.9882H314.054L308.768 99.0901Z" fill="#263238"/>
<path d="M333.547 86.2716C333.52 86.0005 333.457 85.7341 333.361 85.479C333.315 85.3523 333.26 85.229 333.197 85.1097L333.104 84.9379L333.053 84.8487C332.595 84.0657 332.092 83.324 331.579 82.6205L328.668 85.4058C329.053 85.8832 329.428 86.3607 329.774 86.8509C329.71 87.0136 329.627 87.1685 329.527 87.3125C329.061 87.9552 328.523 88.5436 327.924 89.0664C326.669 90.1892 325.354 91.2443 323.985 92.2272L323.539 92.2845L321.751 92.5264L319.991 93.7074L321.148 96.0438L322.603 95.3053C322.951 95.2578 323.293 95.1778 323.626 95.0666C324.14 94.9334 324.588 94.6189 324.886 94.1816C325.737 93.8467 326.57 93.4685 327.383 93.0484C328.256 92.6011 329.101 92.1026 329.915 91.5556C330.327 91.2755 330.736 90.9688 331.14 90.6356C331.568 90.286 331.965 89.8994 332.326 89.4802C332.787 88.9624 333.142 88.3601 333.371 87.7072C333.532 87.2466 333.592 86.7571 333.547 86.2716V86.2716ZM329.8 86.7745C329.8 86.7586 329.8 86.7395 329.8 86.7268C329.8 86.6504 329.828 86.6217 329.828 86.6663C329.827 86.7033 329.819 86.7399 329.806 86.7745H329.8Z" fill="#7F3E3B"/>
<path d="M301.839 95.6824C302.618 90.919 299.36 86.4308 294.563 85.6576C289.767 84.8844 285.247 88.119 284.468 92.8824C283.689 97.6457 286.947 102.134 291.744 102.907C296.541 103.68 301.06 100.446 301.839 95.6824Z" fill="#263238"/>
<path d="M297.985 93.4591H293.971V89.4738C293.971 89.2569 293.885 89.0488 293.73 88.8954C293.576 88.742 293.366 88.6558 293.148 88.6558C292.929 88.6558 292.72 88.742 292.565 88.8954C292.411 89.0488 292.324 89.2569 292.324 89.4738V93.4591H288.31C288.092 93.4591 287.882 93.5453 287.728 93.6987C287.573 93.8521 287.487 94.0602 287.487 94.2772C287.487 94.4941 287.573 94.7022 287.728 94.8556C287.882 95.009 288.092 95.0952 288.31 95.0952H292.324V99.0805C292.324 99.1879 292.345 99.2943 292.386 99.3935C292.428 99.4928 292.489 99.583 292.565 99.6589C292.642 99.7349 292.732 99.7952 292.832 99.8363C292.932 99.8774 293.039 99.8986 293.148 99.8986C293.256 99.8986 293.363 99.8774 293.463 99.8363C293.563 99.7952 293.654 99.7349 293.73 99.6589C293.807 99.583 293.867 99.4928 293.909 99.3935C293.95 99.2943 293.971 99.1879 293.971 99.0805V95.0952H297.985C298.203 95.0952 298.413 95.009 298.567 94.8556C298.722 94.7022 298.809 94.4941 298.809 94.2772C298.809 94.0602 298.722 93.8521 298.567 93.6987C298.413 93.5453 298.203 93.4591 297.985 93.4591V93.4591Z" fill="white"/>
<path d="M316.163 63.4232C316.324 63.4556 316.475 63.5264 316.602 63.6296C316.73 63.7327 316.83 63.8651 316.894 64.0152C316.905 64.0381 316.922 64.0574 316.944 64.071C316.965 64.0845 316.99 64.0916 317.016 64.0916C317.034 64.0961 317.053 64.0961 317.07 64.0916C317.086 64.0844 317.101 64.0742 317.113 64.0614C317.124 64.0487 317.134 64.0337 317.14 64.0174C317.146 64.0011 317.148 63.9838 317.147 63.9665C317.146 63.9492 317.142 63.9322 317.135 63.9165C317.051 63.7266 316.922 63.5598 316.759 63.4305C316.596 63.3013 316.404 63.2135 316.199 63.1749C316.164 63.1702 316.128 63.1795 316.1 63.2007C316.073 63.2219 316.054 63.2533 316.05 63.2879C316.045 63.3225 316.054 63.3575 316.076 63.3853C316.097 63.413 316.128 63.4313 316.163 63.4359V63.4232Z" fill="#263238"/>
</svg>
