<svg width="338" height="170" viewBox="0 0 338 170" fill="none" xmlns="http://www.w3.org/2000/svg">
<rect width="338" height="170" rx="10" fill="#FFEEE6"/>
<circle cx="167" cy="37" r="18" fill="#F96E11"/>
<path d="M96.104 88V77.776H92.072V75.4H103.052V77.776H99.02V88H96.104ZM109.871 88V86.11L109.691 85.696V82.312C109.691 81.712 109.505 81.244 109.133 80.908C108.773 80.572 108.215 80.404 107.459 80.404C106.943 80.404 106.433 80.488 105.929 80.656C105.437 80.812 105.017 81.028 104.669 81.304L103.661 79.342C104.189 78.97 104.825 78.682 105.569 78.478C106.313 78.274 107.069 78.172 107.837 78.172C109.313 78.172 110.459 78.52 111.275 79.216C112.091 79.912 112.499 80.998 112.499 82.474V88H109.871ZM106.919 88.144C106.163 88.144 105.515 88.018 104.975 87.766C104.435 87.502 104.021 87.148 103.733 86.704C103.445 86.26 103.301 85.762 103.301 85.21C103.301 84.634 103.439 84.13 103.715 83.698C104.003 83.266 104.453 82.93 105.065 82.69C105.677 82.438 106.475 82.312 107.459 82.312H110.033V83.95H107.765C107.105 83.95 106.649 84.058 106.397 84.274C106.157 84.49 106.037 84.76 106.037 85.084C106.037 85.444 106.175 85.732 106.451 85.948C106.739 86.152 107.129 86.254 107.621 86.254C108.089 86.254 108.509 86.146 108.881 85.93C109.253 85.702 109.523 85.372 109.691 84.94L110.123 86.236C109.919 86.86 109.547 87.334 109.007 87.658C108.467 87.982 107.771 88.144 106.919 88.144ZM120.764 88.144C119.948 88.144 119.234 87.964 118.622 87.604C118.01 87.244 117.53 86.698 117.182 85.966C116.846 85.222 116.678 84.286 116.678 83.158C116.678 82.018 116.84 81.082 117.164 80.35C117.488 79.618 117.956 79.072 118.568 78.712C119.18 78.352 119.912 78.172 120.764 78.172C121.676 78.172 122.492 78.382 123.212 78.802C123.944 79.21 124.52 79.786 124.94 80.53C125.372 81.274 125.588 82.15 125.588 83.158C125.588 84.178 125.372 85.06 124.94 85.804C124.52 86.548 123.944 87.124 123.212 87.532C122.492 87.94 121.676 88.144 120.764 88.144ZM115.04 91.492V78.316H117.722V80.296L117.668 83.176L117.848 86.038V91.492H115.04ZM120.278 85.84C120.746 85.84 121.16 85.732 121.52 85.516C121.892 85.3 122.186 84.994 122.402 84.598C122.63 84.19 122.744 83.71 122.744 83.158C122.744 82.594 122.63 82.114 122.402 81.718C122.186 81.322 121.892 81.016 121.52 80.8C121.16 80.584 120.746 80.476 120.278 80.476C119.81 80.476 119.39 80.584 119.018 80.8C118.646 81.016 118.352 81.322 118.136 81.718C117.92 82.114 117.812 82.594 117.812 83.158C117.812 83.71 117.92 84.19 118.136 84.598C118.352 84.994 118.646 85.3 119.018 85.516C119.39 85.732 119.81 85.84 120.278 85.84ZM136.526 88.144C135.386 88.144 134.498 87.856 133.862 87.28C133.226 86.692 132.908 85.822 132.908 84.67V76.174H135.716V84.634C135.716 85.042 135.824 85.36 136.04 85.588C136.256 85.804 136.55 85.912 136.922 85.912C137.366 85.912 137.744 85.792 138.056 85.552L138.812 87.532C138.524 87.736 138.176 87.892 137.768 88C137.372 88.096 136.958 88.144 136.526 88.144ZM131.414 80.692V78.532H138.128V80.692H131.414ZM144.697 88.144C143.665 88.144 142.747 87.928 141.943 87.496C141.151 87.064 140.521 86.476 140.053 85.732C139.597 84.976 139.369 84.118 139.369 83.158C139.369 82.186 139.597 81.328 140.053 80.584C140.521 79.828 141.151 79.24 141.943 78.82C142.747 78.388 143.665 78.172 144.697 78.172C145.717 78.172 146.629 78.388 147.433 78.82C148.237 79.24 148.867 79.822 149.323 80.566C149.779 81.31 150.007 82.174 150.007 83.158C150.007 84.118 149.779 84.976 149.323 85.732C148.867 86.476 148.237 87.064 147.433 87.496C146.629 87.928 145.717 88.144 144.697 88.144ZM144.697 85.84C145.165 85.84 145.585 85.732 145.957 85.516C146.329 85.3 146.623 84.994 146.839 84.598C147.055 84.19 147.163 83.71 147.163 83.158C147.163 82.594 147.055 82.114 146.839 81.718C146.623 81.322 146.329 81.016 145.957 80.8C145.585 80.584 145.165 80.476 144.697 80.476C144.229 80.476 143.809 80.584 143.437 80.8C143.065 81.016 142.765 81.322 142.537 81.718C142.321 82.114 142.213 82.594 142.213 83.158C142.213 83.71 142.321 84.19 142.537 84.598C142.765 84.994 143.065 85.3 143.437 85.516C143.809 85.732 144.229 85.84 144.697 85.84ZM160.24 88.144C159.412 88.144 158.614 88.048 157.846 87.856C157.09 87.652 156.49 87.4 156.046 87.1L156.982 85.084C157.426 85.36 157.948 85.588 158.548 85.768C159.16 85.936 159.76 86.02 160.348 86.02C160.996 86.02 161.452 85.942 161.716 85.786C161.992 85.63 162.13 85.414 162.13 85.138C162.13 84.91 162.022 84.742 161.806 84.634C161.602 84.514 161.326 84.424 160.978 84.364C160.63 84.304 160.246 84.244 159.826 84.184C159.418 84.124 159.004 84.046 158.584 83.95C158.164 83.842 157.78 83.686 157.432 83.482C157.084 83.278 156.802 83.002 156.586 82.654C156.382 82.306 156.28 81.856 156.28 81.304C156.28 80.692 156.454 80.152 156.802 79.684C157.162 79.216 157.678 78.85 158.35 78.586C159.022 78.31 159.826 78.172 160.762 78.172C161.422 78.172 162.094 78.244 162.778 78.388C163.462 78.532 164.032 78.742 164.488 79.018L163.552 81.016C163.084 80.74 162.61 80.554 162.13 80.458C161.662 80.35 161.206 80.296 160.762 80.296C160.138 80.296 159.682 80.38 159.394 80.548C159.106 80.716 158.962 80.932 158.962 81.196C158.962 81.436 159.064 81.616 159.268 81.736C159.484 81.856 159.766 81.952 160.114 82.024C160.462 82.096 160.84 82.162 161.248 82.222C161.668 82.27 162.088 82.348 162.508 82.456C162.928 82.564 163.306 82.72 163.642 82.924C163.99 83.116 164.272 83.386 164.488 83.734C164.704 84.07 164.812 84.514 164.812 85.066C164.812 85.666 164.632 86.2 164.272 86.668C163.912 87.124 163.39 87.484 162.706 87.748C162.034 88.012 161.212 88.144 160.24 88.144ZM171.224 88.144C170.18 88.144 169.25 87.934 168.434 87.514C167.618 87.082 166.976 86.488 166.508 85.732C166.052 84.976 165.824 84.118 165.824 83.158C165.824 82.186 166.052 81.328 166.508 80.584C166.976 79.828 167.618 79.24 168.434 78.82C169.25 78.388 170.18 78.172 171.224 78.172C172.244 78.172 173.132 78.388 173.888 78.82C174.644 79.24 175.202 79.846 175.562 80.638L173.384 81.808C173.132 81.352 172.814 81.016 172.43 80.8C172.058 80.584 171.65 80.476 171.206 80.476C170.726 80.476 170.294 80.584 169.91 80.8C169.526 81.016 169.22 81.322 168.992 81.718C168.776 82.114 168.668 82.594 168.668 83.158C168.668 83.722 168.776 84.202 168.992 84.598C169.22 84.994 169.526 85.3 169.91 85.516C170.294 85.732 170.726 85.84 171.206 85.84C171.65 85.84 172.058 85.738 172.43 85.534C172.814 85.318 173.132 84.976 173.384 84.508L175.562 85.696C175.202 86.476 174.644 87.082 173.888 87.514C173.132 87.934 172.244 88.144 171.224 88.144ZM183.119 88V86.11L182.939 85.696V82.312C182.939 81.712 182.753 81.244 182.381 80.908C182.021 80.572 181.463 80.404 180.707 80.404C180.191 80.404 179.681 80.488 179.177 80.656C178.685 80.812 178.265 81.028 177.917 81.304L176.909 79.342C177.437 78.97 178.073 78.682 178.817 78.478C179.561 78.274 180.317 78.172 181.085 78.172C182.561 78.172 183.707 78.52 184.523 79.216C185.339 79.912 185.747 80.998 185.747 82.474V88H183.119ZM180.167 88.144C179.411 88.144 178.763 88.018 178.223 87.766C177.683 87.502 177.269 87.148 176.981 86.704C176.693 86.26 176.549 85.762 176.549 85.21C176.549 84.634 176.687 84.13 176.963 83.698C177.251 83.266 177.701 82.93 178.313 82.69C178.925 82.438 179.723 82.312 180.707 82.312H183.281V83.95H181.013C180.353 83.95 179.897 84.058 179.645 84.274C179.405 84.49 179.285 84.76 179.285 85.084C179.285 85.444 179.423 85.732 179.699 85.948C179.987 86.152 180.377 86.254 180.869 86.254C181.337 86.254 181.757 86.146 182.129 85.93C182.501 85.702 182.771 85.372 182.939 84.94L183.371 86.236C183.167 86.86 182.795 87.334 182.255 87.658C181.715 87.982 181.019 88.144 180.167 88.144ZM194.174 78.172C194.942 78.172 195.626 78.328 196.226 78.64C196.838 78.94 197.318 79.408 197.666 80.044C198.014 80.668 198.188 81.472 198.188 82.456V88H195.38V82.888C195.38 82.108 195.206 81.532 194.858 81.16C194.522 80.788 194.042 80.602 193.418 80.602C192.974 80.602 192.572 80.698 192.212 80.89C191.864 81.07 191.588 81.352 191.384 81.736C191.192 82.12 191.096 82.612 191.096 83.212V88H188.288V78.316H190.97V80.998L190.466 80.188C190.814 79.54 191.312 79.042 191.96 78.694C192.608 78.346 193.346 78.172 194.174 78.172ZM210.511 88.144C209.467 88.144 208.537 87.934 207.721 87.514C206.905 87.082 206.263 86.488 205.795 85.732C205.339 84.976 205.111 84.118 205.111 83.158C205.111 82.186 205.339 81.328 205.795 80.584C206.263 79.828 206.905 79.24 207.721 78.82C208.537 78.388 209.467 78.172 210.511 78.172C211.531 78.172 212.419 78.388 213.175 78.82C213.931 79.24 214.489 79.846 214.849 80.638L212.671 81.808C212.419 81.352 212.101 81.016 211.717 80.8C211.345 80.584 210.937 80.476 210.493 80.476C210.013 80.476 209.581 80.584 209.197 80.8C208.813 81.016 208.507 81.322 208.279 81.718C208.063 82.114 207.955 82.594 207.955 83.158C207.955 83.722 208.063 84.202 208.279 84.598C208.507 84.994 208.813 85.3 209.197 85.516C209.581 85.732 210.013 85.84 210.493 85.84C210.937 85.84 211.345 85.738 211.717 85.534C212.101 85.318 212.419 84.976 212.671 84.508L214.849 85.696C214.489 86.476 213.931 87.082 213.175 87.514C212.419 87.934 211.531 88.144 210.511 88.144ZM222.406 88V86.11L222.226 85.696V82.312C222.226 81.712 222.04 81.244 221.668 80.908C221.308 80.572 220.75 80.404 219.994 80.404C219.478 80.404 218.968 80.488 218.464 80.656C217.972 80.812 217.552 81.028 217.204 81.304L216.196 79.342C216.724 78.97 217.36 78.682 218.104 78.478C218.848 78.274 219.604 78.172 220.372 78.172C221.848 78.172 222.994 78.52 223.81 79.216C224.626 79.912 225.034 80.998 225.034 82.474V88H222.406ZM219.454 88.144C218.698 88.144 218.05 88.018 217.51 87.766C216.97 87.502 216.556 87.148 216.268 86.704C215.98 86.26 215.836 85.762 215.836 85.21C215.836 84.634 215.974 84.13 216.25 83.698C216.538 83.266 216.988 82.93 217.6 82.69C218.212 82.438 219.01 82.312 219.994 82.312H222.568V83.95H220.3C219.64 83.95 219.184 84.058 218.932 84.274C218.692 84.49 218.572 84.76 218.572 85.084C218.572 85.444 218.71 85.732 218.986 85.948C219.274 86.152 219.664 86.254 220.156 86.254C220.624 86.254 221.044 86.146 221.416 85.93C221.788 85.702 222.058 85.372 222.226 84.94L222.658 86.236C222.454 86.86 222.082 87.334 221.542 87.658C221.002 87.982 220.306 88.144 219.454 88.144ZM227.575 88V78.316H230.257V81.052L229.879 80.26C230.167 79.576 230.629 79.06 231.265 78.712C231.901 78.352 232.675 78.172 233.587 78.172V80.764C233.467 80.752 233.359 80.746 233.263 80.746C233.167 80.734 233.065 80.728 232.957 80.728C232.189 80.728 231.565 80.95 231.085 81.394C230.617 81.826 230.383 82.504 230.383 83.428V88H227.575ZM239.345 88.144C238.433 88.144 237.611 87.94 236.879 87.532C236.147 87.112 235.565 86.53 235.133 85.786C234.713 85.042 234.503 84.166 234.503 83.158C234.503 82.138 234.713 81.256 235.133 80.512C235.565 79.768 236.147 79.192 236.879 78.784C237.611 78.376 238.433 78.172 239.345 78.172C240.161 78.172 240.875 78.352 241.487 78.712C242.099 79.072 242.573 79.618 242.909 80.35C243.245 81.082 243.413 82.018 243.413 83.158C243.413 84.286 243.251 85.222 242.927 85.966C242.603 86.698 242.135 87.244 241.523 87.604C240.923 87.964 240.197 88.144 239.345 88.144ZM239.831 85.84C240.287 85.84 240.701 85.732 241.073 85.516C241.445 85.3 241.739 84.994 241.955 84.598C242.183 84.19 242.297 83.71 242.297 83.158C242.297 82.594 242.183 82.114 241.955 81.718C241.739 81.322 241.445 81.016 241.073 80.8C240.701 80.584 240.287 80.476 239.831 80.476C239.363 80.476 238.943 80.584 238.571 80.8C238.199 81.016 237.899 81.322 237.671 81.718C237.455 82.114 237.347 82.594 237.347 83.158C237.347 83.71 237.455 84.19 237.671 84.598C237.899 84.994 238.199 85.3 238.571 85.516C238.943 85.732 239.363 85.84 239.831 85.84ZM242.369 88V86.02L242.423 83.14L242.243 80.278V74.644H245.051V88H242.369Z" fill="#FF792E"/>
<path d="M24.912 121.096C24.08 121.096 23.28 120.963 22.512 120.696C21.7547 120.419 21.168 120.067 20.752 119.64L21.216 118.728C21.6107 119.112 22.1387 119.437 22.8 119.704C23.472 119.96 24.176 120.088 24.912 120.088C25.616 120.088 26.1867 120.003 26.624 119.832C27.072 119.651 27.3973 119.411 27.6 119.112C27.8133 118.813 27.92 118.483 27.92 118.12C27.92 117.683 27.792 117.331 27.536 117.064C27.2907 116.797 26.9653 116.589 26.56 116.44C26.1547 116.28 25.7067 116.141 25.216 116.024C24.7253 115.907 24.2347 115.784 23.744 115.656C23.2533 115.517 22.8 115.336 22.384 115.112C21.9787 114.888 21.648 114.595 21.392 114.232C21.1467 113.859 21.024 113.373 21.024 112.776C21.024 112.221 21.168 111.715 21.456 111.256C21.7547 110.787 22.208 110.413 22.816 110.136C23.424 109.848 24.2027 109.704 25.152 109.704C25.7813 109.704 26.4053 109.795 27.024 109.976C27.6427 110.147 28.176 110.387 28.624 110.696L28.224 111.64C27.744 111.32 27.232 111.085 26.688 110.936C26.1547 110.787 25.6373 110.712 25.136 110.712C24.464 110.712 23.9093 110.803 23.472 110.984C23.0347 111.165 22.7093 111.411 22.496 111.72C22.2933 112.019 22.192 112.36 22.192 112.744C22.192 113.181 22.3147 113.533 22.56 113.8C22.816 114.067 23.1467 114.275 23.552 114.424C23.968 114.573 24.4213 114.707 24.912 114.824C25.4027 114.941 25.888 115.069 26.368 115.208C26.8587 115.347 27.3067 115.528 27.712 115.752C28.128 115.965 28.4587 116.253 28.704 116.616C28.96 116.979 29.088 117.453 29.088 118.04C29.088 118.584 28.9387 119.091 28.64 119.56C28.3413 120.019 27.8827 120.392 27.264 120.68C26.656 120.957 25.872 121.096 24.912 121.096ZM34.9158 121.08C34.0838 121.08 33.3371 120.899 32.6758 120.536C32.0251 120.163 31.5131 119.656 31.1398 119.016C30.7664 118.365 30.5798 117.624 30.5798 116.792C30.5798 115.949 30.7664 115.208 31.1398 114.568C31.5131 113.928 32.0251 113.427 32.6758 113.064C33.3371 112.701 34.0838 112.52 34.9158 112.52C35.6304 112.52 36.2758 112.659 36.8518 112.936C37.4278 113.213 37.8811 113.629 38.2118 114.184L37.3638 114.76C37.0758 114.333 36.7184 114.019 36.2918 113.816C35.8651 113.613 35.4011 113.512 34.8998 113.512C34.3024 113.512 33.7638 113.651 33.2838 113.928C32.8038 114.195 32.4251 114.573 32.1478 115.064C31.8704 115.555 31.7318 116.131 31.7318 116.792C31.7318 117.453 31.8704 118.029 32.1478 118.52C32.4251 119.011 32.8038 119.395 33.2838 119.672C33.7638 119.939 34.3024 120.072 34.8998 120.072C35.4011 120.072 35.8651 119.971 36.2918 119.768C36.7184 119.565 37.0758 119.256 37.3638 118.84L38.2118 119.416C37.8811 119.96 37.4278 120.376 36.8518 120.664C36.2758 120.941 35.6304 121.08 34.9158 121.08ZM45.7074 121V119.144L45.6594 118.84V115.736C45.6594 115.021 45.4567 114.472 45.0514 114.088C44.6567 113.704 44.0647 113.512 43.2754 113.512C42.7314 113.512 42.214 113.603 41.7234 113.784C41.2327 113.965 40.8167 114.205 40.4754 114.504L39.9634 113.656C40.39 113.293 40.902 113.016 41.4994 112.824C42.0967 112.621 42.726 112.52 43.3874 112.52C44.4754 112.52 45.3127 112.792 45.8994 113.336C46.4967 113.869 46.7954 114.685 46.7954 115.784V121H45.7074ZM42.8114 121.08C42.182 121.08 41.6327 120.979 41.1634 120.776C40.7047 120.563 40.3527 120.275 40.1074 119.912C39.862 119.539 39.7394 119.112 39.7394 118.632C39.7394 118.195 39.8407 117.8 40.0434 117.448C40.2567 117.085 40.598 116.797 41.0674 116.584C41.5474 116.36 42.1874 116.248 42.9874 116.248H45.8834V117.096H43.0194C42.2087 117.096 41.6434 117.24 41.3234 117.528C41.014 117.816 40.8594 118.173 40.8594 118.6C40.8594 119.08 41.046 119.464 41.4194 119.752C41.7927 120.04 42.3154 120.184 42.9874 120.184C43.6274 120.184 44.1767 120.04 44.6354 119.752C45.1047 119.453 45.446 119.027 45.6594 118.472L45.9154 119.256C45.702 119.811 45.3287 120.253 44.7954 120.584C44.2727 120.915 43.6114 121.08 42.8114 121.08ZM54.1689 112.52C54.8515 112.52 55.4489 112.653 55.9609 112.92C56.4835 113.176 56.8889 113.571 57.1769 114.104C57.4755 114.637 57.6249 115.309 57.6249 116.12V121H56.4889V116.232C56.4889 115.347 56.2649 114.68 55.8169 114.232C55.3795 113.773 54.7609 113.544 53.9609 113.544C53.3635 113.544 52.8409 113.667 52.3929 113.912C51.9555 114.147 51.6142 114.493 51.3689 114.952C51.1342 115.4 51.0169 115.944 51.0169 116.584V121H49.8809V112.6H50.9689V114.904L50.7929 114.472C51.0595 113.864 51.4862 113.389 52.0729 113.048C52.6595 112.696 53.3582 112.52 54.1689 112.52ZM67.5369 121.08C66.7475 121.08 66.1395 120.867 65.7129 120.44C65.2862 120.013 65.0729 119.411 65.0729 118.632V110.744H66.2089V118.568C66.2089 119.059 66.3315 119.437 66.5769 119.704C66.8329 119.971 67.1955 120.104 67.6649 120.104C68.1662 120.104 68.5822 119.96 68.9129 119.672L69.3129 120.488C69.0889 120.691 68.8169 120.84 68.4969 120.936C68.1875 121.032 67.8675 121.08 67.5369 121.08ZM63.5689 113.544V112.6H68.7689V113.544H63.5689ZM75.6689 112.52C76.3515 112.52 76.9489 112.653 77.4609 112.92C77.9835 113.176 78.3889 113.571 78.6769 114.104C78.9755 114.637 79.1249 115.309 79.1249 116.12V121H77.9889V116.232C77.9889 115.347 77.7649 114.68 77.3169 114.232C76.8795 113.773 76.2609 113.544 75.4609 113.544C74.8635 113.544 74.3409 113.667 73.8929 113.912C73.4555 114.147 73.1142 114.493 72.8689 114.952C72.6342 115.4 72.5169 115.944 72.5169 116.584V121H71.3809V109.128H72.5169V114.904L72.2929 114.472C72.5595 113.864 72.9862 113.389 73.5729 113.048C74.1595 112.696 74.8582 112.52 75.6689 112.52ZM85.7614 121.08C84.8867 121.08 84.1187 120.899 83.4574 120.536C82.796 120.163 82.2787 119.656 81.9054 119.016C81.532 118.365 81.3454 117.624 81.3454 116.792C81.3454 115.96 81.5214 115.224 81.8734 114.584C82.236 113.944 82.7267 113.443 83.3454 113.08C83.9747 112.707 84.6787 112.52 85.4574 112.52C86.2467 112.52 86.9454 112.701 87.5534 113.064C88.172 113.416 88.6574 113.917 89.0094 114.568C89.3614 115.208 89.5374 115.949 89.5374 116.792C89.5374 116.845 89.532 116.904 89.5214 116.968C89.5214 117.021 89.5214 117.08 89.5214 117.144H82.2094V116.296H88.9134L88.4654 116.632C88.4654 116.024 88.332 115.485 88.0654 115.016C87.8094 114.536 87.4574 114.163 87.0094 113.896C86.5614 113.629 86.044 113.496 85.4574 113.496C84.8814 113.496 84.364 113.629 83.9054 113.896C83.4467 114.163 83.0894 114.536 82.8334 115.016C82.5774 115.496 82.4494 116.045 82.4494 116.664V116.84C82.4494 117.48 82.588 118.045 82.8654 118.536C83.1534 119.016 83.548 119.395 84.0494 119.672C84.5614 119.939 85.1427 120.072 85.7934 120.072C86.3054 120.072 86.78 119.981 87.2174 119.8C87.6654 119.619 88.0494 119.341 88.3694 118.968L89.0094 119.704C88.636 120.152 88.1667 120.493 87.6014 120.728C87.0467 120.963 86.4334 121.08 85.7614 121.08ZM99.5251 121.08C98.6931 121.08 97.9465 120.899 97.2851 120.536C96.6345 120.163 96.1225 119.656 95.7491 119.016C95.3758 118.365 95.1891 117.624 95.1891 116.792C95.1891 115.949 95.3758 115.208 95.7491 114.568C96.1225 113.928 96.6345 113.427 97.2851 113.064C97.9465 112.701 98.6931 112.52 99.5251 112.52C100.24 112.52 100.885 112.659 101.461 112.936C102.037 113.213 102.49 113.629 102.821 114.184L101.973 114.76C101.685 114.333 101.328 114.019 100.901 113.816C100.474 113.613 100.01 113.512 99.5091 113.512C98.9118 113.512 98.3731 113.651 97.8931 113.928C97.4131 114.195 97.0345 114.573 96.7571 115.064C96.4798 115.555 96.3411 116.131 96.3411 116.792C96.3411 117.453 96.4798 118.029 96.7571 118.52C97.0345 119.011 97.4131 119.395 97.8931 119.672C98.3731 119.939 98.9118 120.072 99.5091 120.072C100.01 120.072 100.474 119.971 100.901 119.768C101.328 119.565 101.685 119.256 101.973 118.84L102.821 119.416C102.49 119.96 102.037 120.376 101.461 120.664C100.885 120.941 100.24 121.08 99.5251 121.08ZM110.317 121V119.144L110.269 118.84V115.736C110.269 115.021 110.066 114.472 109.661 114.088C109.266 113.704 108.674 113.512 107.885 113.512C107.341 113.512 106.823 113.603 106.333 113.784C105.842 113.965 105.426 114.205 105.085 114.504L104.573 113.656C104.999 113.293 105.511 113.016 106.109 112.824C106.706 112.621 107.335 112.52 107.997 112.52C109.085 112.52 109.922 112.792 110.509 113.336C111.106 113.869 111.405 114.685 111.405 115.784V121H110.317ZM107.421 121.08C106.791 121.08 106.242 120.979 105.773 120.776C105.314 120.563 104.962 120.275 104.717 119.912C104.471 119.539 104.349 119.112 104.349 118.632C104.349 118.195 104.45 117.8 104.653 117.448C104.866 117.085 105.207 116.797 105.677 116.584C106.157 116.36 106.797 116.248 107.597 116.248H110.493V117.096H107.629C106.818 117.096 106.253 117.24 105.933 117.528C105.623 117.816 105.469 118.173 105.469 118.6C105.469 119.08 105.655 119.464 106.029 119.752C106.402 120.04 106.925 120.184 107.597 120.184C108.237 120.184 108.786 120.04 109.245 119.752C109.714 119.453 110.055 119.027 110.269 118.472L110.525 119.256C110.311 119.811 109.938 120.253 109.405 120.584C108.882 120.915 108.221 121.08 107.421 121.08ZM114.49 121V112.6H115.578V114.888L115.466 114.488C115.701 113.848 116.096 113.363 116.65 113.032C117.205 112.691 117.893 112.52 118.714 112.52V113.624C118.672 113.624 118.629 113.624 118.586 113.624C118.544 113.613 118.501 113.608 118.458 113.608C117.573 113.608 116.88 113.88 116.378 114.424C115.877 114.957 115.626 115.72 115.626 116.712V121H114.49ZM124.053 121.08C123.253 121.08 122.533 120.899 121.893 120.536C121.264 120.173 120.768 119.672 120.405 119.032C120.042 118.381 119.861 117.635 119.861 116.792C119.861 115.939 120.042 115.192 120.405 114.552C120.768 113.912 121.264 113.416 121.893 113.064C122.533 112.701 123.253 112.52 124.053 112.52C124.789 112.52 125.445 112.685 126.021 113.016C126.608 113.347 127.072 113.832 127.413 114.472C127.765 115.101 127.941 115.875 127.941 116.792C127.941 117.699 127.77 118.472 127.429 119.112C127.088 119.752 126.624 120.243 126.037 120.584C125.461 120.915 124.8 121.08 124.053 121.08ZM124.133 120.072C124.73 120.072 125.264 119.939 125.733 119.672C126.213 119.395 126.586 119.011 126.853 118.52C127.13 118.019 127.269 117.443 127.269 116.792C127.269 116.131 127.13 115.555 126.853 115.064C126.586 114.573 126.213 114.195 125.733 113.928C125.264 113.651 124.73 113.512 124.133 113.512C123.546 113.512 123.018 113.651 122.549 113.928C122.08 114.195 121.706 114.573 121.429 115.064C121.152 115.555 121.013 116.131 121.013 116.792C121.013 117.443 121.152 118.019 121.429 118.52C121.706 119.011 122.08 119.395 122.549 119.672C123.018 119.939 123.546 120.072 124.133 120.072ZM127.301 121V118.472L127.413 116.776L127.253 115.08V109.128H128.389V121H127.301ZM138.396 121.08C137.607 121.08 136.999 120.867 136.572 120.44C136.146 120.013 135.932 119.411 135.932 118.632V110.744H137.068V118.568C137.068 119.059 137.191 119.437 137.436 119.704C137.692 119.971 138.055 120.104 138.524 120.104C139.026 120.104 139.442 119.96 139.772 119.672L140.172 120.488C139.948 120.691 139.676 120.84 139.356 120.936C139.047 121.032 138.727 121.08 138.396 121.08ZM134.428 113.544V112.6H139.628V113.544H134.428ZM145.367 121.08C144.557 121.08 143.826 120.899 143.175 120.536C142.535 120.163 142.029 119.656 141.655 119.016C141.282 118.365 141.095 117.624 141.095 116.792C141.095 115.949 141.282 115.208 141.655 114.568C142.029 113.928 142.535 113.427 143.175 113.064C143.815 112.701 144.546 112.52 145.367 112.52C146.199 112.52 146.935 112.701 147.575 113.064C148.226 113.427 148.733 113.928 149.095 114.568C149.469 115.208 149.655 115.949 149.655 116.792C149.655 117.624 149.469 118.365 149.095 119.016C148.733 119.656 148.226 120.163 147.575 120.536C146.925 120.899 146.189 121.08 145.367 121.08ZM145.367 120.072C145.975 120.072 146.514 119.939 146.983 119.672C147.453 119.395 147.821 119.011 148.087 118.52C148.365 118.019 148.503 117.443 148.503 116.792C148.503 116.131 148.365 115.555 148.087 115.064C147.821 114.573 147.453 114.195 146.983 113.928C146.514 113.651 145.981 113.512 145.383 113.512C144.786 113.512 144.253 113.651 143.783 113.928C143.314 114.195 142.941 114.573 142.663 115.064C142.386 115.555 142.247 116.131 142.247 116.792C142.247 117.443 142.386 118.019 142.663 118.52C142.941 119.011 143.314 119.395 143.783 119.672C144.253 119.939 144.781 120.072 145.367 120.072ZM159.73 121.08C158.855 121.08 158.087 120.899 157.426 120.536C156.765 120.163 156.247 119.656 155.874 119.016C155.501 118.365 155.314 117.624 155.314 116.792C155.314 115.96 155.49 115.224 155.842 114.584C156.205 113.944 156.695 113.443 157.314 113.08C157.943 112.707 158.647 112.52 159.426 112.52C160.215 112.52 160.914 112.701 161.522 113.064C162.141 113.416 162.626 113.917 162.978 114.568C163.33 115.208 163.506 115.949 163.506 116.792C163.506 116.845 163.501 116.904 163.49 116.968C163.49 117.021 163.49 117.08 163.49 117.144H156.178V116.296H162.882L162.434 116.632C162.434 116.024 162.301 115.485 162.034 115.016C161.778 114.536 161.426 114.163 160.978 113.896C160.53 113.629 160.013 113.496 159.426 113.496C158.85 113.496 158.333 113.629 157.874 113.896C157.415 114.163 157.058 114.536 156.802 115.016C156.546 115.496 156.418 116.045 156.418 116.664V116.84C156.418 117.48 156.557 118.045 156.834 118.536C157.122 119.016 157.517 119.395 158.018 119.672C158.53 119.939 159.111 120.072 159.762 120.072C160.274 120.072 160.749 119.981 161.186 119.8C161.634 119.619 162.018 119.341 162.338 118.968L162.978 119.704C162.605 120.152 162.135 120.493 161.57 120.728C161.015 120.963 160.402 121.08 159.73 121.08ZM170.848 121V119.144L170.8 118.84V115.736C170.8 115.021 170.597 114.472 170.192 114.088C169.797 113.704 169.205 113.512 168.416 113.512C167.872 113.512 167.355 113.603 166.864 113.784C166.373 113.965 165.957 114.205 165.616 114.504L165.104 113.656C165.531 113.293 166.043 113.016 166.64 112.824C167.237 112.621 167.867 112.52 168.528 112.52C169.616 112.52 170.453 112.792 171.04 113.336C171.637 113.869 171.936 114.685 171.936 115.784V121H170.848ZM167.952 121.08C167.323 121.08 166.773 120.979 166.304 120.776C165.845 120.563 165.493 120.275 165.248 119.912C165.003 119.539 164.88 119.112 164.88 118.632C164.88 118.195 164.981 117.8 165.184 117.448C165.397 117.085 165.739 116.797 166.208 116.584C166.688 116.36 167.328 116.248 168.128 116.248H171.024V117.096H168.16C167.349 117.096 166.784 117.24 166.464 117.528C166.155 117.816 166 118.173 166 118.6C166 119.08 166.187 119.464 166.56 119.752C166.933 120.04 167.456 120.184 168.128 120.184C168.768 120.184 169.317 120.04 169.776 119.752C170.245 119.453 170.587 119.027 170.8 118.472L171.056 119.256C170.843 119.811 170.469 120.253 169.936 120.584C169.413 120.915 168.752 121.08 167.952 121.08ZM177.278 121.08C176.584 121.08 175.928 120.984 175.31 120.792C174.691 120.589 174.206 120.339 173.854 120.04L174.366 119.144C174.707 119.4 175.144 119.624 175.678 119.816C176.211 119.997 176.771 120.088 177.358 120.088C178.158 120.088 178.734 119.965 179.086 119.72C179.438 119.464 179.614 119.128 179.614 118.712C179.614 118.403 179.512 118.163 179.31 117.992C179.118 117.811 178.862 117.677 178.542 117.592C178.222 117.496 177.864 117.416 177.47 117.352C177.075 117.288 176.68 117.213 176.286 117.128C175.902 117.043 175.55 116.92 175.23 116.76C174.91 116.589 174.648 116.36 174.446 116.072C174.254 115.784 174.158 115.4 174.158 114.92C174.158 114.461 174.286 114.051 174.542 113.688C174.798 113.325 175.171 113.043 175.662 112.84C176.163 112.627 176.771 112.52 177.486 112.52C178.03 112.52 178.574 112.595 179.118 112.744C179.662 112.883 180.11 113.069 180.462 113.304L179.966 114.216C179.592 113.96 179.192 113.779 178.766 113.672C178.339 113.555 177.912 113.496 177.486 113.496C176.728 113.496 176.168 113.629 175.806 113.896C175.454 114.152 175.278 114.483 175.278 114.888C175.278 115.208 175.374 115.459 175.566 115.64C175.768 115.821 176.03 115.965 176.35 116.072C176.68 116.168 177.038 116.248 177.422 116.312C177.816 116.376 178.206 116.456 178.59 116.552C178.984 116.637 179.342 116.76 179.662 116.92C179.992 117.069 180.254 117.288 180.446 117.576C180.648 117.853 180.75 118.221 180.75 118.68C180.75 119.171 180.611 119.597 180.334 119.96C180.067 120.312 179.672 120.589 179.15 120.792C178.638 120.984 178.014 121.08 177.278 121.08ZM182.834 121V112.6H183.97V121H182.834ZM183.41 110.744C183.175 110.744 182.978 110.664 182.818 110.504C182.658 110.344 182.578 110.152 182.578 109.928C182.578 109.704 182.658 109.517 182.818 109.368C182.978 109.208 183.175 109.128 183.41 109.128C183.645 109.128 183.842 109.203 184.002 109.352C184.162 109.501 184.242 109.688 184.242 109.912C184.242 110.147 184.162 110.344 184.002 110.504C183.853 110.664 183.655 110.744 183.41 110.744ZM187.131 121V109.128H188.267V121H187.131ZM191.492 124.184C191.097 124.184 190.718 124.12 190.356 123.992C190.004 123.864 189.7 123.672 189.444 123.416L189.972 122.568C190.185 122.771 190.414 122.925 190.66 123.032C190.916 123.149 191.198 123.208 191.508 123.208C191.881 123.208 192.201 123.101 192.468 122.888C192.745 122.685 193.006 122.323 193.252 121.8L193.796 120.568L193.924 120.392L197.38 112.6H198.5L194.292 122.008C194.057 122.552 193.796 122.984 193.508 123.304C193.23 123.624 192.926 123.848 192.596 123.976C192.265 124.115 191.897 124.184 191.492 124.184ZM193.732 121.24L189.86 112.6H191.044L194.468 120.312L193.732 121.24ZM207.871 124.184C207.103 124.184 206.367 124.072 205.663 123.848C204.959 123.624 204.388 123.304 203.951 122.888L204.527 122.024C204.922 122.376 205.407 122.653 205.983 122.856C206.57 123.069 207.188 123.176 207.839 123.176C208.906 123.176 209.69 122.925 210.191 122.424C210.692 121.933 210.943 121.165 210.943 120.12V118.024L211.103 116.584L210.991 115.144V112.6H212.079V119.976C212.079 121.427 211.722 122.488 211.007 123.16C210.303 123.843 209.258 124.184 207.871 124.184ZM207.663 120.68C206.863 120.68 206.143 120.509 205.503 120.168C204.863 119.816 204.356 119.331 203.983 118.712C203.62 118.093 203.439 117.384 203.439 116.584C203.439 115.784 203.62 115.08 203.983 114.472C204.356 113.853 204.863 113.373 205.503 113.032C206.143 112.691 206.863 112.52 207.663 112.52C208.41 112.52 209.082 112.675 209.679 112.984C210.276 113.293 210.751 113.752 211.103 114.36C211.455 114.968 211.631 115.709 211.631 116.584C211.631 117.459 211.455 118.2 211.103 118.808C210.751 119.416 210.276 119.88 209.679 120.2C209.082 120.52 208.41 120.68 207.663 120.68ZM207.775 119.672C208.394 119.672 208.943 119.544 209.423 119.288C209.903 119.021 210.282 118.659 210.559 118.2C210.836 117.731 210.975 117.192 210.975 116.584C210.975 115.976 210.836 115.443 210.559 114.984C210.282 114.525 209.903 114.168 209.423 113.912C208.943 113.645 208.394 113.512 207.775 113.512C207.167 113.512 206.618 113.645 206.127 113.912C205.647 114.168 205.268 114.525 204.991 114.984C204.724 115.443 204.591 115.976 204.591 116.584C204.591 117.192 204.724 117.731 204.991 118.2C205.268 118.659 205.647 119.021 206.127 119.288C206.618 119.544 207.167 119.672 207.775 119.672ZM218.808 121.08C217.934 121.08 217.166 120.899 216.504 120.536C215.843 120.163 215.326 119.656 214.952 119.016C214.579 118.365 214.392 117.624 214.392 116.792C214.392 115.96 214.568 115.224 214.92 114.584C215.283 113.944 215.774 113.443 216.392 113.08C217.022 112.707 217.726 112.52 218.504 112.52C219.294 112.52 219.992 112.701 220.6 113.064C221.219 113.416 221.704 113.917 222.056 114.568C222.408 115.208 222.584 115.949 222.584 116.792C222.584 116.845 222.579 116.904 222.568 116.968C222.568 117.021 222.568 117.08 222.568 117.144H215.256V116.296H221.96L221.512 116.632C221.512 116.024 221.379 115.485 221.112 115.016C220.856 114.536 220.504 114.163 220.056 113.896C219.608 113.629 219.091 113.496 218.504 113.496C217.928 113.496 217.411 113.629 216.952 113.896C216.494 114.163 216.136 114.536 215.88 115.016C215.624 115.496 215.496 116.045 215.496 116.664V116.84C215.496 117.48 215.635 118.045 215.912 118.536C216.2 119.016 216.595 119.395 217.096 119.672C217.608 119.939 218.19 120.072 218.84 120.072C219.352 120.072 219.827 119.981 220.264 119.8C220.712 119.619 221.096 119.341 221.416 118.968L222.056 119.704C221.683 120.152 221.214 120.493 220.648 120.728C220.094 120.963 219.48 121.08 218.808 121.08ZM227.553 121.08C226.763 121.08 226.155 120.867 225.729 120.44C225.302 120.013 225.089 119.411 225.089 118.632V110.744H226.225V118.568C226.225 119.059 226.347 119.437 226.593 119.704C226.849 119.971 227.211 120.104 227.681 120.104C228.182 120.104 228.598 119.96 228.929 119.672L229.329 120.488C229.105 120.691 228.833 120.84 228.513 120.936C228.203 121.032 227.883 121.08 227.553 121.08ZM223.585 113.544V112.6H228.785V113.544H223.585ZM238.24 121.08C237.451 121.08 236.843 120.867 236.416 120.44C235.989 120.013 235.776 119.411 235.776 118.632V110.744H236.912V118.568C236.912 119.059 237.035 119.437 237.28 119.704C237.536 119.971 237.899 120.104 238.368 120.104C238.869 120.104 239.285 119.96 239.616 119.672L240.016 120.488C239.792 120.691 239.52 120.84 239.2 120.936C238.891 121.032 238.571 121.08 238.24 121.08ZM234.272 113.544V112.6H239.472V113.544H234.272ZM246.372 112.52C247.055 112.52 247.652 112.653 248.164 112.92C248.687 113.176 249.092 113.571 249.38 114.104C249.679 114.637 249.828 115.309 249.828 116.12V121H248.692V116.232C248.692 115.347 248.468 114.68 248.02 114.232C247.583 113.773 246.964 113.544 246.164 113.544C245.567 113.544 245.044 113.667 244.596 113.912C244.159 114.147 243.817 114.493 243.572 114.952C243.337 115.4 243.22 115.944 243.22 116.584V121H242.084V109.128H243.22V114.904L242.996 114.472C243.263 113.864 243.689 113.389 244.276 113.048C244.863 112.696 245.561 112.52 246.372 112.52ZM256.465 121.08C255.59 121.08 254.822 120.899 254.161 120.536C253.499 120.163 252.982 119.656 252.609 119.016C252.235 118.365 252.049 117.624 252.049 116.792C252.049 115.96 252.225 115.224 252.577 114.584C252.939 113.944 253.43 113.443 254.049 113.08C254.678 112.707 255.382 112.52 256.161 112.52C256.95 112.52 257.649 112.701 258.257 113.064C258.875 113.416 259.361 113.917 259.713 114.568C260.065 115.208 260.241 115.949 260.241 116.792C260.241 116.845 260.235 116.904 260.225 116.968C260.225 117.021 260.225 117.08 260.225 117.144H252.913V116.296H259.617L259.169 116.632C259.169 116.024 259.035 115.485 258.769 115.016C258.513 114.536 258.161 114.163 257.713 113.896C257.265 113.629 256.747 113.496 256.161 113.496C255.585 113.496 255.067 113.629 254.609 113.896C254.15 114.163 253.793 114.536 253.537 115.016C253.281 115.496 253.153 116.045 253.153 116.664V116.84C253.153 117.48 253.291 118.045 253.569 118.536C253.857 119.016 254.251 119.395 254.753 119.672C255.265 119.939 255.846 120.072 256.497 120.072C257.009 120.072 257.483 119.981 257.921 119.8C258.369 119.619 258.753 119.341 259.073 118.968L259.713 119.704C259.339 120.152 258.87 120.493 258.305 120.728C257.75 120.963 257.137 121.08 256.465 121.08ZM270.084 121.08C269.284 121.08 268.564 120.899 267.924 120.536C267.295 120.173 266.799 119.672 266.436 119.032C266.074 118.381 265.892 117.635 265.892 116.792C265.892 115.939 266.074 115.192 266.436 114.552C266.799 113.912 267.295 113.416 267.924 113.064C268.564 112.701 269.284 112.52 270.084 112.52C270.82 112.52 271.476 112.685 272.052 113.016C272.639 113.347 273.103 113.832 273.444 114.472C273.796 115.101 273.972 115.875 273.972 116.792C273.972 117.699 273.802 118.472 273.46 119.112C273.119 119.752 272.655 120.243 272.068 120.584C271.492 120.915 270.831 121.08 270.084 121.08ZM270.164 120.072C270.762 120.072 271.295 119.939 271.764 119.672C272.244 119.395 272.618 119.011 272.884 118.52C273.162 118.019 273.3 117.443 273.3 116.792C273.3 116.131 273.162 115.555 272.884 115.064C272.618 114.573 272.244 114.195 271.764 113.928C271.295 113.651 270.762 113.512 270.164 113.512C269.578 113.512 269.05 113.651 268.58 113.928C268.111 114.195 267.738 114.573 267.46 115.064C267.183 115.555 267.044 116.131 267.044 116.792C267.044 117.443 267.183 118.019 267.46 118.52C267.738 119.011 268.111 119.395 268.58 119.672C269.05 119.939 269.578 120.072 270.164 120.072ZM273.332 121V118.472L273.444 116.776L273.284 115.08V109.128H274.42V121H273.332ZM281.152 121.08C280.277 121.08 279.509 120.899 278.848 120.536C278.187 120.163 277.669 119.656 277.296 119.016C276.923 118.365 276.736 117.624 276.736 116.792C276.736 115.96 276.912 115.224 277.264 114.584C277.627 113.944 278.117 113.443 278.736 113.08C279.365 112.707 280.069 112.52 280.848 112.52C281.637 112.52 282.336 112.701 282.944 113.064C283.563 113.416 284.048 113.917 284.4 114.568C284.752 115.208 284.928 115.949 284.928 116.792C284.928 116.845 284.923 116.904 284.912 116.968C284.912 117.021 284.912 117.08 284.912 117.144H277.6V116.296H284.304L283.856 116.632C283.856 116.024 283.723 115.485 283.456 115.016C283.2 114.536 282.848 114.163 282.4 113.896C281.952 113.629 281.435 113.496 280.848 113.496C280.272 113.496 279.755 113.629 279.296 113.896C278.837 114.163 278.48 114.536 278.224 115.016C277.968 115.496 277.84 116.045 277.84 116.664V116.84C277.84 117.48 277.979 118.045 278.256 118.536C278.544 119.016 278.939 119.395 279.44 119.672C279.952 119.939 280.533 120.072 281.184 120.072C281.696 120.072 282.171 119.981 282.608 119.8C283.056 119.619 283.44 119.341 283.76 118.968L284.4 119.704C284.027 120.152 283.557 120.493 282.992 120.728C282.437 120.963 281.824 121.08 281.152 121.08ZM289.896 121.08C289.107 121.08 288.499 120.867 288.072 120.44C287.646 120.013 287.432 119.411 287.432 118.632V110.744H288.568V118.568C288.568 119.059 288.691 119.437 288.936 119.704C289.192 119.971 289.555 120.104 290.024 120.104C290.526 120.104 290.942 119.96 291.272 119.672L291.672 120.488C291.448 120.691 291.176 120.84 290.856 120.936C290.547 121.032 290.227 121.08 289.896 121.08ZM285.928 113.544V112.6H291.128V113.544H285.928ZM299.004 121V119.144L298.956 118.84V115.736C298.956 115.021 298.754 114.472 298.348 114.088C297.954 113.704 297.362 113.512 296.572 113.512C296.028 113.512 295.511 113.603 295.02 113.784C294.53 113.965 294.114 114.205 293.772 114.504L293.26 113.656C293.687 113.293 294.199 113.016 294.796 112.824C295.394 112.621 296.023 112.52 296.684 112.52C297.772 112.52 298.61 112.792 299.196 113.336C299.794 113.869 300.092 114.685 300.092 115.784V121H299.004ZM296.108 121.08C295.479 121.08 294.93 120.979 294.46 120.776C294.002 120.563 293.65 120.275 293.404 119.912C293.159 119.539 293.036 119.112 293.036 118.632C293.036 118.195 293.138 117.8 293.34 117.448C293.554 117.085 293.895 116.797 294.364 116.584C294.844 116.36 295.484 116.248 296.284 116.248H299.18V117.096H296.316C295.506 117.096 294.94 117.24 294.62 117.528C294.311 117.816 294.156 118.173 294.156 118.6C294.156 119.08 294.343 119.464 294.716 119.752C295.09 120.04 295.612 120.184 296.284 120.184C296.924 120.184 297.474 120.04 297.932 119.752C298.402 119.453 298.743 119.027 298.956 118.472L299.212 119.256C298.999 119.811 298.626 120.253 298.092 120.584C297.57 120.915 296.908 121.08 296.108 121.08ZM303.178 121V112.6H304.314V121H303.178ZM303.754 110.744C303.519 110.744 303.322 110.664 303.162 110.504C303.002 110.344 302.922 110.152 302.922 109.928C302.922 109.704 303.002 109.517 303.162 109.368C303.322 109.208 303.519 109.128 303.754 109.128C303.988 109.128 304.186 109.203 304.346 109.352C304.506 109.501 304.586 109.688 304.586 109.912C304.586 110.147 304.506 110.344 304.346 110.504C304.196 110.664 303.999 110.744 303.754 110.744ZM307.475 121V109.128H308.611V121H307.475ZM314.028 121.08C313.334 121.08 312.678 120.984 312.06 120.792C311.441 120.589 310.956 120.339 310.604 120.04L311.116 119.144C311.457 119.4 311.894 119.624 312.428 119.816C312.961 119.997 313.521 120.088 314.108 120.088C314.908 120.088 315.484 119.965 315.836 119.72C316.188 119.464 316.364 119.128 316.364 118.712C316.364 118.403 316.262 118.163 316.06 117.992C315.868 117.811 315.612 117.677 315.292 117.592C314.972 117.496 314.614 117.416 314.22 117.352C313.825 117.288 313.43 117.213 313.036 117.128C312.652 117.043 312.3 116.92 311.98 116.76C311.66 116.589 311.398 116.36 311.196 116.072C311.004 115.784 310.908 115.4 310.908 114.92C310.908 114.461 311.036 114.051 311.292 113.688C311.548 113.325 311.921 113.043 312.412 112.84C312.913 112.627 313.521 112.52 314.236 112.52C314.78 112.52 315.324 112.595 315.868 112.744C316.412 112.883 316.86 113.069 317.212 113.304L316.716 114.216C316.342 113.96 315.942 113.779 315.516 113.672C315.089 113.555 314.662 113.496 314.236 113.496C313.478 113.496 312.918 113.629 312.556 113.896C312.204 114.152 312.028 114.483 312.028 114.888C312.028 115.208 312.124 115.459 312.316 115.64C312.518 115.821 312.78 115.965 313.1 116.072C313.43 116.168 313.788 116.248 314.172 116.312C314.566 116.376 314.956 116.456 315.34 116.552C315.734 116.637 316.092 116.76 316.412 116.92C316.742 117.069 317.004 117.288 317.196 117.576C317.398 117.853 317.5 118.221 317.5 118.68C317.5 119.171 317.361 119.597 317.084 119.96C316.817 120.312 316.422 120.589 315.9 120.792C315.388 120.984 314.764 121.08 314.028 121.08Z" fill="#FF792E"/>
<rect x="166" y="27" width="2" height="20" rx="1" fill="#FFEEE6"/>
<rect x="157" y="38" width="2" height="20" rx="1" transform="rotate(-90 157 38)" fill="#FFEEE6"/>
</svg>
